<svg width="48" height="48" viewBox="0 0 48 48" fill="none" xmlns="http://www.w3.org/2000/svg">
<path d="M29.9062 7.9375H18.3438C17.6934 7.9375 17.1875 8.51562 17.1875 9.09375V16.0312C17.1875 16.6816 17.6934 17.1875 18.3438 17.1875H22.9688H25.2812H29.9062C30.4844 17.1875 31.0625 16.6816 31.0625 16.0312V9.09375C31.0625 8.51562 30.4844 7.9375 29.9062 7.9375ZM25.2812 19.5V22.9688H46.0938C46.6719 22.9688 47.25 23.5469 47.25 24.125C47.25 24.7754 46.6719 25.2812 46.0938 25.2812H36.8438V28.75H41.4688C43.3477 28.75 44.9375 30.3398 44.9375 32.2188V39.1562C44.9375 41.1074 43.3477 42.625 41.4688 42.625H29.9062C27.9551 42.625 26.4375 41.1074 26.4375 39.1562V32.2188C26.4375 30.3398 27.9551 28.75 29.9062 28.75H34.5312V25.2812H13.7188V28.75H18.3438C20.2227 28.75 21.8125 30.3398 21.8125 32.2188V39.1562C21.8125 41.1074 20.2227 42.625 18.3438 42.625H6.78125C4.83008 42.625 3.3125 41.1074 3.3125 39.1562V32.2188C3.3125 30.3398 4.83008 28.75 6.78125 28.75H11.4062V25.2812H2.15625C1.50586 25.2812 1 24.7754 1 24.125C1 23.5469 1.50586 22.9688 2.15625 22.9688H22.9688V19.5H18.3438C16.3926 19.5 14.875 17.9824 14.875 16.0312V9.09375C14.875 7.21484 16.3926 5.625 18.3438 5.625H29.9062C31.7852 5.625 33.375 7.21484 33.375 9.09375V16.0312C33.375 17.9824 31.7852 19.5 29.9062 19.5H25.2812ZM36.8438 31.0625H34.5312H29.9062C29.2559 31.0625 28.75 31.6406 28.75 32.2188V39.1562C28.75 39.8066 29.2559 40.3125 29.9062 40.3125H41.4688C42.0469 40.3125 42.625 39.8066 42.625 39.1562V32.2188C42.625 31.6406 42.0469 31.0625 41.4688 31.0625H36.8438ZM13.7188 31.0625H11.4062H6.78125C6.13086 31.0625 5.625 31.6406 5.625 32.2188V39.1562C5.625 39.8066 6.13086 40.3125 6.78125 40.3125H18.3438C18.9219 40.3125 19.5 39.8066 19.5 39.1562V32.2188C19.5 31.6406 18.9219 31.0625 18.3438 31.0625H13.7188Z" fill="#314081"/>
</svg>
