<svg width="35" height="46" viewBox="0 0 35 46" fill="none" xmlns="http://www.w3.org/2000/svg">
<path d="M24.6172 0.628906C25.0664 0.269531 25.6055 0 26.1445 0C27.6719 0 28.75 1.61719 28.2109 3.05469L22.1016 20.125H32.0742C33.332 20.125 34.5 21.293 34.5 22.5508C34.5 23.2695 34.1406 23.9883 33.6016 24.4375L9.79297 45.4609C9.34375 45.8203 8.80469 46 8.26562 46C6.73828 46 5.66016 44.4727 6.19922 43.0352L12.3086 25.875H2.24609C0.988281 25.875 0 24.8867 0 23.6289C0 22.9102 0.269531 22.2812 0.71875 21.832L24.6172 0.628906ZM24.707 4.40234L3.77344 23H14.375C14.8242 23 15.2734 23.2695 15.543 23.6289C15.8125 24.0781 15.8125 24.5273 15.7227 24.9766L9.70312 41.6875L30.8164 23H20.125C19.5859 23 19.1367 22.8203 18.8672 22.4609C18.5977 22.0117 18.5977 21.5625 18.6875 21.1133L24.707 4.40234Z" fill="#314081"/>
</svg>
