<svg width="865" height="559" viewBox="0 0 865 559" fill="none" xmlns="http://www.w3.org/2000/svg">
<g opacity="0.5" clip-path="url(#clip0_3927_36161)">
<path d="M223.991 97.6568H-43.7245L-82.2874 59.0933H-335.355V56.4261H-81.1871L-42.6241 95.0142H223.991V97.6568Z" fill="#DEDDEC"/>
<path d="M260.549 79.941H-10.2969V77.2739H259.448L315.716 20.9946H505.278V23.6373H316.816L260.549 79.941Z" fill="#314081"/>
<path d="M300.139 121.637H112.631V118.994H299.039L362.593 55.3984H562.671L602.799 95.528H687.763V98.1952H601.698L561.57 58.0411H363.694L300.139 121.637Z" fill="#DEDDEC"/>
<path d="M403.187 536.048H132.855L76.0746 479.23H-46.8036L-91.6022 524.058H-170.758V521.391H-92.7026L-47.904 476.563H77.175L133.956 533.381H403.187V536.048Z" fill="#DEDDEC"/>
<path d="M485.57 555.33H354.354V552.662H484.47L556.363 480.747H776.174V483.39H557.463L485.57 555.33Z" fill="#314081"/>
<path d="M479.825 529.808L438.645 488.602H119.847L78.1538 446.906H-115.615L-188.559 373.939H-364.55L-412.894 422.315L-414.777 420.431L-365.651 371.272H-187.459L-114.514 444.239H79.2542L120.947 485.959H439.746L479.825 526.064L541.79 464.059H771.994V466.727H542.89L479.825 529.808Z" fill="#DEDDEC"/>
<path d="M325.668 154.474H-13.0111L-90.0881 77.3229H-341.126L-368.221 104.435H-639.066V101.768H-369.321L-342.227 74.6802H-88.9877L-11.9107 151.832H324.568L387.486 88.8479L389.369 90.732L325.668 154.474Z" fill="#DEDDEC"/>
<path d="M-93.6816 220.688H-379.224L-441.727 158.145H-623.953V155.478H-440.626L-378.123 218.021H-94.782L-45.5574 168.764H350.612L434.609 84.7125H546.434V87.3797H435.709L351.712 171.432H-44.457L-93.6816 220.688Z" fill="#DEDDEC"/>
<path d="M137.598 413.041H-108.868L-163.717 358.156L-161.834 356.272L-107.767 410.374H136.497L227.146 319.666H419.839V322.333H228.246L137.598 413.041Z" fill="#DEDDEC"/>
<path d="M128.234 384.877H-91.6756L-132.464 344.062L-58.3701 269.945H-133.54L-174.328 310.759L-176.211 308.875L-134.64 267.278H-51.9633L-128.698 344.062L-90.5752 382.234H127.133L217.146 292.138L219.029 294.022L128.234 384.877Z" fill="#DEDDEC"/>
<path d="M-41.498 238.844L-43.3809 236.96L-6.5052 200.036H374.038L410.523 163.528L412.406 165.412L375.139 202.703H-5.40477L-41.498 238.844Z" fill="#DEDDEC"/>
<path d="M131.338 304.349H-65.4141L-1.63961 240.533L0.218796 242.417L-58.9828 301.681H130.237L175.965 255.948H349.511V258.615H177.066L131.338 304.349Z" fill="#DEDDEC"/>
<path d="M123.538 353.605H-72.9203L-90.2578 336.256L-88.3749 334.372L-71.8199 350.938H122.438L178.069 295.27L179.952 297.155L123.538 353.605Z" fill="#DEDDEC"/>
<path d="M114.147 273.077H0.21875L43.6725 229.595L45.5553 231.479L6.65 270.41H113.047L150.949 232.482H403.724L514.889 121.27H593.311V123.937H515.989L404.824 235.15H152.05L114.147 273.077Z" fill="#314081"/>
<path d="M507.969 480.282H455.296L433.435 458.382H128.697L106.811 436.483H58.9805V433.84H107.912L129.798 455.715H434.535L456.397 477.615H506.869L539.685 444.778H694.891V447.445H540.81L507.969 480.282Z" fill="#DEDDEC"/>
<path d="M279.208 438.049H171.344L227.929 381.451H429.229V384.118H229.029L177.775 435.406H279.208V438.049Z" fill="#DEDDEC"/>
<path d="M675.182 395.056H515.477L464.687 344.233H242.308L197.607 388.963L195.725 387.079L241.208 341.566H465.788L516.577 392.389H674.082L736.218 330.237H841.807V332.904H737.318L675.182 395.056Z" fill="#314081"/>
<path d="M447.032 287.93H263.705V285.263H445.932L526.408 204.734H616.763V207.401H527.508L447.032 287.93Z" fill="#314081"/>
<path d="M446.077 232.58L444.219 230.696L523.276 151.562H640.799L690.415 201.211H723.813V203.878H689.315L639.699 154.23H524.377L446.077 232.58Z" fill="#DEDDEC"/>
<path d="M722.083 431.809H472.487L455.296 414.607H274.635V411.94H456.397L473.588 429.142H720.982L761.599 388.474H789.179V391.141H762.7L722.083 431.809Z" fill="#DEDDEC"/>
<path d="M796.47 237.89H678.018L624.074 183.911H520V181.244H625.174L679.118 235.223H796.47V237.89Z" fill="#DEDDEC"/>
<path d="M650.191 363.001H525.625L472.732 310.05L537.509 245.231L539.392 247.115L476.498 310.05L526.725 360.334H649.09L723.306 286.046H860.257V288.713H724.407L650.191 363.001Z" fill="#DEDDEC"/>
<path d="M546.874 305.303L545.016 303.419L585.021 263.387H789.452V266.03H586.122L546.874 305.303Z" fill="#314081"/>
<path d="M629.869 331.73H555.775L596.882 290.597L598.764 292.456L562.207 329.062H628.769L654.714 303.101L656.597 304.985L629.869 331.73Z" fill="#DEDDEC"/>
<path d="M223.748 101.327C226.512 101.327 228.737 99.076 228.737 96.3355C228.737 93.5949 226.487 91.3438 223.748 91.3438C221.009 91.3438 218.76 93.5949 218.76 96.3355C218.76 99.076 221.009 101.327 223.748 101.327Z" fill="#DEDDEC"/>
<path d="M505.035 27.3077C507.799 27.3077 510.024 25.0565 510.024 22.3159C510.024 19.5754 507.774 17.3242 505.035 17.3242C502.297 17.3242 500.047 19.5754 500.047 22.3159C500.047 25.0565 502.297 27.3077 505.035 27.3077Z" fill="#314081"/>
<path d="M112.875 125.307C110.112 125.307 107.887 123.056 107.887 120.315C107.887 117.575 110.136 115.324 112.875 115.324C115.614 115.324 117.864 117.575 117.864 120.315C117.864 123.056 115.614 125.307 112.875 125.307Z" fill="#DEDDEC"/>
<path d="M687.52 101.866C690.283 101.866 692.508 99.6144 692.508 96.8738C692.508 94.1333 690.258 91.8821 687.52 91.8821C684.781 91.8821 682.531 94.1333 682.531 96.8738C682.531 99.6144 684.781 101.866 687.52 101.866Z" fill="#DEDDEC"/>
<path d="M402.942 539.718C405.705 539.718 407.93 537.467 407.93 534.727C407.93 531.986 405.68 529.735 402.942 529.735C400.203 529.735 397.953 531.986 397.953 534.727C397.953 537.467 400.203 539.718 402.942 539.718Z" fill="#DEDDEC"/>
<path d="M354.598 559C351.835 559 349.609 556.749 349.609 554.008C349.609 551.268 351.859 549.017 354.598 549.017C357.337 549.017 359.586 551.268 359.586 554.008C359.586 556.749 357.337 559 354.598 559Z" fill="#314081"/>
<path d="M775.93 487.06C778.685 487.06 780.918 484.825 780.918 482.069C780.918 479.312 778.685 477.077 775.93 477.077C773.175 477.077 770.941 479.312 770.941 482.069C770.941 484.825 773.175 487.06 775.93 487.06Z" fill="#314081"/>
<path d="M771.748 470.397C774.511 470.397 776.737 468.146 776.737 465.405C776.737 462.664 774.487 460.413 771.748 460.413C769.009 460.413 766.76 462.664 766.76 465.405C766.76 468.146 769.009 470.397 771.748 470.397Z" fill="#DEDDEC"/>
<path d="M391.792 93.497C393.748 91.5395 393.748 88.383 391.792 86.4254C389.836 84.4679 386.681 84.4679 384.725 86.4254C382.769 88.383 382.769 91.5395 384.725 93.497C386.681 95.4546 389.836 95.4546 391.792 93.497Z" fill="#DEDDEC"/>
<path d="M546.19 91.0256C548.945 91.0256 551.178 88.7907 551.178 86.0338C551.178 83.277 548.945 81.0421 546.19 81.0421C543.435 81.0421 541.201 83.277 541.201 86.0338C541.201 88.7907 543.435 91.0256 546.19 91.0256Z" fill="#DEDDEC"/>
<path d="M419.594 326.004C422.357 326.004 424.582 323.753 424.582 321.012C424.582 318.271 422.333 316.02 419.594 316.02C416.855 316.02 414.605 318.271 414.605 321.012C414.605 323.753 416.855 326.004 419.594 326.004Z" fill="#DEDDEC"/>
<path d="M221.448 296.812C223.405 294.854 223.405 291.698 221.448 289.74C219.492 287.783 216.338 287.783 214.381 289.74C212.425 291.698 212.425 294.854 214.381 296.812C216.338 298.77 219.492 298.77 221.448 296.812Z" fill="#DEDDEC"/>
<path d="M414.827 168.177C416.784 166.22 416.784 163.063 414.827 161.105C412.871 159.148 409.716 159.148 407.76 161.105C405.804 163.063 405.804 166.22 407.76 168.177C409.716 170.135 412.871 170.135 414.827 168.177Z" fill="#DEDDEC"/>
<path d="M-4.42733 238.135C-2.47106 236.177 0.683463 236.177 2.63973 238.135C4.596 240.092 4.596 243.249 2.63973 245.206C0.683463 247.164 -2.47106 247.164 -4.42733 245.206C-6.3836 243.249 -6.3836 240.092 -4.42733 238.135Z" fill="#DEDDEC"/>
<path d="M349.266 262.286C352.029 262.286 354.254 260.035 354.254 257.294C354.254 254.554 352.005 252.302 349.266 252.302C346.527 252.302 344.277 254.554 344.277 257.294C344.277 260.035 346.527 262.286 349.266 262.286Z" fill="#DEDDEC"/>
<path d="M182.372 299.944C184.328 297.987 184.328 294.83 182.372 292.872C180.416 290.915 177.261 290.915 175.305 292.872C173.349 294.83 173.349 297.987 175.305 299.944C177.261 301.902 180.416 301.902 182.372 299.944Z" fill="#DEDDEC"/>
<path d="M40.9086 227.173C42.8649 225.215 46.0193 225.215 47.9756 227.173C49.9319 229.13 49.9319 232.287 47.9756 234.244C46.0193 236.202 42.8649 236.202 40.9086 234.244C38.9523 232.287 38.9523 229.13 40.9086 227.173Z" fill="#DEDDEC"/>
<path d="M593.067 127.607C595.83 127.607 598.055 125.356 598.055 122.615C598.055 119.875 595.805 117.624 593.067 117.624C590.328 117.624 588.078 119.875 588.078 122.615C588.078 125.356 590.328 127.607 593.067 127.607Z" fill="#314081"/>
<path d="M59.2248 440.177C56.4616 440.177 54.2363 437.926 54.2363 435.186C54.2363 432.445 56.4861 430.194 59.2248 430.194C61.9636 430.194 64.2133 432.445 64.2133 435.186C64.2133 437.926 61.9636 440.177 59.2248 440.177Z" fill="#DEDDEC"/>
<path d="M694.647 451.115C697.41 451.115 699.635 448.864 699.635 446.123C699.635 443.383 697.385 441.132 694.647 441.132C691.908 441.132 689.658 443.383 689.658 446.123C689.658 448.864 691.908 451.115 694.647 451.115Z" fill="#DEDDEC"/>
<path d="M278.963 431.711C281.726 431.711 283.952 433.962 283.952 436.703C283.952 439.443 281.702 441.694 278.963 441.694C276.224 441.694 273.975 439.443 273.975 436.703C273.975 433.962 276.224 431.711 278.963 431.711Z" fill="#DEDDEC"/>
<path d="M428.985 387.789C431.748 387.789 433.973 385.537 433.973 382.797C433.973 380.056 431.723 377.805 428.985 377.805C426.246 377.805 423.996 380.056 423.996 382.797C423.996 385.537 426.246 387.789 428.985 387.789Z" fill="#DEDDEC"/>
<path d="M200.37 391.386C198.414 393.343 195.259 393.343 193.303 391.386C191.347 389.428 191.347 386.272 193.303 384.314C195.259 382.356 198.414 382.356 200.37 384.314C202.326 386.272 202.326 389.428 200.37 391.386Z" fill="#DEDDEC"/>
<path d="M841.537 336.575C844.301 336.575 846.526 334.323 846.526 331.583C846.526 328.842 844.276 326.591 841.537 326.591C838.799 326.591 836.549 328.842 836.549 331.583C836.549 334.323 838.799 336.575 841.537 336.575Z" fill="#314081"/>
<path d="M263.949 291.6C261.186 291.6 258.961 289.349 258.961 286.608C258.961 283.868 261.211 281.617 263.949 281.617C266.688 281.617 268.938 283.868 268.938 286.608C268.938 289.349 266.688 291.6 263.949 291.6Z" fill="#314081"/>
<path d="M616.518 211.072C619.281 211.072 621.506 208.821 621.506 206.08C621.506 203.339 619.257 201.088 616.518 201.088C613.779 201.088 611.529 203.339 611.529 206.08C611.529 208.821 613.779 211.072 616.518 211.072Z" fill="#314081"/>
<path d="M448.866 235.003C446.91 236.96 443.756 236.96 441.799 235.003C439.843 233.045 439.843 229.889 441.799 227.931C443.756 225.974 446.91 225.974 448.866 227.931C450.822 229.889 450.822 233.045 448.866 235.003Z" fill="#DEDDEC"/>
<path d="M723.57 207.548C726.334 207.548 728.559 205.297 728.559 202.556C728.559 199.816 726.309 197.565 723.57 197.565C720.832 197.565 718.582 199.816 718.582 202.556C718.582 205.297 720.832 207.548 723.57 207.548Z" fill="#DEDDEC"/>
<path d="M274.879 418.277C272.116 418.277 269.891 416.026 269.891 413.286C269.891 410.545 272.14 408.294 274.879 408.294C277.618 408.294 279.868 410.545 279.868 413.286C279.868 416.026 277.618 418.277 274.879 418.277Z" fill="#DEDDEC"/>
<path d="M788.934 394.811C791.689 394.811 793.922 392.576 793.922 389.82C793.922 387.063 791.689 384.828 788.934 384.828C786.179 384.828 783.945 387.063 783.945 389.82C783.945 392.576 786.179 394.811 788.934 394.811Z" fill="#DEDDEC"/>
<path d="M520.244 187.581C517.481 187.581 515.256 185.33 515.256 182.59C515.256 179.849 517.506 177.598 520.244 177.598C522.983 177.598 525.233 179.849 525.233 182.59C525.233 185.33 522.983 187.581 520.244 187.581Z" fill="#DEDDEC"/>
<path d="M796.227 241.56C798.99 241.56 801.215 239.309 801.215 236.569C801.215 233.828 798.965 231.577 796.227 231.577C793.488 231.577 791.238 233.828 791.238 236.569C791.238 239.309 793.488 241.56 796.227 241.56Z" fill="#DEDDEC"/>
<path d="M534.721 242.808C536.677 240.851 539.832 240.851 541.788 242.808C543.744 244.766 543.744 247.922 541.788 249.88C539.832 251.838 536.677 251.838 534.721 249.88C532.765 247.922 532.765 244.766 534.721 242.808Z" fill="#DEDDEC"/>
<path d="M860.012 292.383C862.775 292.383 865 290.132 865 287.391C865 284.651 862.751 282.4 860.012 282.4C857.273 282.4 855.023 284.651 855.023 287.391C855.023 290.132 857.273 292.383 860.012 292.383Z" fill="#DEDDEC"/>
<path d="M549.663 307.725C547.707 309.683 544.552 309.683 542.596 307.725C540.64 305.768 540.64 302.611 542.596 300.654C544.552 298.696 547.707 298.696 549.663 300.654C551.619 302.611 551.619 305.768 549.663 307.725Z" fill="#314081"/>
<path d="M789.207 269.7C791.962 269.7 794.196 267.465 794.196 264.708C794.196 261.951 791.962 259.717 789.207 259.717C786.452 259.717 784.219 261.951 784.219 264.708C784.219 267.465 786.452 269.7 789.207 269.7Z" fill="#314081"/>
<path d="M594.12 288.174C596.076 286.217 599.23 286.217 601.186 288.174C603.143 290.132 603.143 293.288 601.186 295.246C599.23 297.204 596.076 297.204 594.12 295.246C592.163 293.288 592.163 290.132 594.12 288.174Z" fill="#DEDDEC"/>
<path d="M659.019 307.75C660.975 305.792 660.975 302.636 659.019 300.678C657.062 298.721 653.908 298.721 651.952 300.678C649.995 302.636 649.995 305.792 651.952 307.75C653.908 309.707 657.062 309.707 659.019 307.75Z" fill="#DEDDEC"/>
</g>
<defs>
<clipPath id="clip0_3927_36161">
<rect width="865" height="559" fill="white"/>
</clipPath>
</defs>
</svg>
