<svg width="16" height="12" viewBox="0 0 16 12" fill="none" xmlns="http://www.w3.org/2000/svg">
<path d="M2.70703 0.664062C3.00781 0.882812 3.03516 1.29297 2.81641 1.59375C1.85938 2.71484 1.3125 4.16406 1.3125 5.75C1.3125 7.36328 1.85938 8.8125 2.81641 9.93359C3.03516 10.207 3.00781 10.6445 2.70703 10.8633C2.43359 11.1094 2.02344 11.0547 1.80469 10.7812C0.65625 9.41406 0 7.66406 0 5.75C0 3.86328 0.65625 2.11328 1.80469 0.746094C2.02344 0.472656 2.43359 0.417969 2.70703 0.664062ZM13.0156 0.664062C13.2891 0.417969 13.6992 0.472656 13.9453 0.746094C15.0664 2.11328 15.75 3.86328 15.75 5.75C15.75 7.66406 15.0664 9.41406 13.9453 10.7812C13.6992 11.0547 13.2891 11.082 13.0156 10.8633C12.7422 10.6445 12.6875 10.207 12.9336 9.93359C13.8633 8.8125 14.4375 7.36328 14.4375 5.75C14.4375 4.16406 13.8633 2.71484 12.9336 1.59375C12.6875 1.29297 12.7422 0.882812 13.0156 0.664062ZM6.78125 5.75C6.78125 5.36719 6.97266 5.01172 7.32812 4.82031C7.65625 4.62891 8.06641 4.62891 8.42188 4.82031C8.75 5.01172 8.96875 5.36719 8.96875 5.75C8.96875 6.16016 8.75 6.51562 8.42188 6.70703C8.06641 6.89844 7.65625 6.89844 7.32812 6.70703C6.97266 6.51562 6.78125 6.16016 6.78125 5.75ZM5.08594 3.61719C4.64844 4.21875 4.375 4.95703 4.375 5.75C4.375 6.57031 4.64844 7.30859 5.08594 7.91016C5.33203 8.18359 5.27734 8.59375 4.97656 8.83984C4.70312 9.05859 4.29297 9.00391 4.07422 8.70312C3.41797 7.91016 3.0625 6.87109 3.0625 5.75C3.0625 4.65625 3.41797 3.61719 4.07422 2.79688C4.29297 2.52344 4.70312 2.46875 4.97656 2.6875C5.27734 2.90625 5.33203 3.31641 5.08594 3.61719ZM11.6758 2.79688C12.3047 3.61719 12.6875 4.65625 12.6875 5.75C12.6875 6.87109 12.3047 7.91016 11.6758 8.70312C11.4297 9.00391 11.0195 9.05859 10.7461 8.83984C10.4453 8.62109 10.418 8.18359 10.6367 7.91016C11.1016 7.30859 11.375 6.57031 11.375 5.75C11.375 4.95703 11.1016 4.21875 10.6367 3.61719C10.418 3.31641 10.4453 2.90625 10.7461 2.6875C11.0195 2.46875 11.4297 2.52344 11.6758 2.79688Z" fill="#314081"/>
</svg>
