<svg width="958" height="280" viewBox="0 0 958 280" fill="none" xmlns="http://www.w3.org/2000/svg">
<path d="M957.408 0V280H900.208V166H842.608V280H785.408V0H842.608V112H900.208V0H957.408Z" fill="url(#paint0_linear_3927_35495)"/>
<path d="M691.35 233.6H632.15L622.95 280H564.15L631.35 0H692.15L759.35 280H700.55L691.35 233.6ZM680.15 179.6L673.75 147.6C670.017 127.067 666.284 101.467 662.55 70.8H660.95C656.417 106.8 652.684 132.4 649.75 147.6L643.35 179.6H680.15Z" fill="url(#paint1_linear_3927_35495)"/>
<path d="M572.889 54H518.089V280H459.689V54H404.889V0H572.889V54Z" fill="url(#paint2_linear_3927_35495)"/>
<path d="M195.564 0H250.764V64.8C250.764 78.4 250.098 95.8667 248.764 117.2C247.431 138.267 245.698 157.2 243.564 174L244.764 175.2L251.964 155.6C257.298 140.933 261.698 129.6 265.164 121.6L318.364 0H373.964V280H318.764V223.2C318.764 206.667 319.298 186.933 320.364 164C321.698 141.067 323.298 121.2 325.164 104.4L323.964 103.2L316.764 123.2C307.698 147.733 301.564 163.867 298.364 171.6L251.164 280H195.564V0Z" fill="url(#paint3_linear_3927_35495)"/>
<path d="M168.592 54H113.792V280H55.3918V54H0.591797V0H168.592V54Z" fill="url(#paint4_linear_3927_35495)"/>
<defs>
<linearGradient id="paint0_linear_3927_35495" x1="883.857" y1="-3.66665" x2="883.857" y2="373" gradientUnits="userSpaceOnUse">
<stop stop-color="#F1F1F1"/>
<stop offset="1" stop-color="white"/>
</linearGradient>
<linearGradient id="paint1_linear_3927_35495" x1="675.878" y1="-3.66665" x2="675.878" y2="373" gradientUnits="userSpaceOnUse">
<stop stop-color="#F1F1F1"/>
<stop offset="1" stop-color="white"/>
</linearGradient>
<linearGradient id="paint2_linear_3927_35495" x1="501.047" y1="-3.66665" x2="501.047" y2="373" gradientUnits="userSpaceOnUse">
<stop stop-color="#F1F1F1"/>
<stop offset="1" stop-color="white"/>
</linearGradient>
<linearGradient id="paint3_linear_3927_35495" x1="297.676" y1="-3.66665" x2="297.676" y2="373" gradientUnits="userSpaceOnUse">
<stop stop-color="#F1F1F1"/>
<stop offset="1" stop-color="white"/>
</linearGradient>
<linearGradient id="paint4_linear_3927_35495" x1="96.7506" y1="-3.66665" x2="96.7506" y2="373" gradientUnits="userSpaceOnUse">
<stop stop-color="#F1F1F1"/>
<stop offset="1" stop-color="white"/>
</linearGradient>
</defs>
</svg>
