<svg width="56" height="56" viewBox="0 0 56 56" fill="none" xmlns="http://www.w3.org/2000/svg">
<path d="M5.25065 16.3333C6.98242 17.7005 8.16732 19.7969 8.16732 22.1667C8.16732 24.6276 6.98242 26.724 5.25065 28V30.9167H51.9173V28C50.0944 26.724 49.0006 24.6276 49.0006 22.1667C49.0006 19.7969 50.0944 17.7005 51.9173 16.3333C51.9173 14.7839 50.5501 13.4167 49.0006 13.4167H8.16732C6.52669 13.4167 5.25065 14.7839 5.25065 16.3333ZM2.33398 27.362C2.33398 26.724 2.69857 26.1771 3.24544 25.9036C4.43034 25.0833 5.25065 23.7161 5.25065 22.1667C5.25065 20.7083 4.43034 19.3411 3.24544 18.5208C2.69857 18.1562 2.33398 17.7005 2.33398 17.0625V16.3333C2.33398 13.1432 4.88607 10.5 8.16732 10.5H49.0006C52.1908 10.5 54.834 13.1432 54.834 16.3333V17.0625C54.834 17.7005 54.3783 18.1562 53.8314 18.5208C52.6465 19.3411 51.9173 20.7083 51.9173 22.1667C51.9173 23.7161 52.6465 25.0833 53.8314 25.9036C54.3783 26.1771 54.834 26.724 54.834 27.362V32.375V42.5833C54.834 44.224 53.4668 45.5 51.9173 45.5H5.25065C3.61003 45.5 2.33398 44.224 2.33398 42.5833V32.375V27.362ZM51.9173 42.5833V33.8333H5.25065V42.5833H11.084V41.125C11.084 40.3958 11.722 39.6667 12.5423 39.6667C13.2715 39.6667 14.0007 40.3958 14.0007 41.125V42.5833H19.1048V41.125C19.1048 40.3958 19.7428 39.6667 20.5632 39.6667C21.2923 39.6667 22.0215 40.3958 22.0215 41.125V42.5833H27.1257V41.125C27.1257 40.3958 27.7637 39.6667 28.584 39.6667C29.3132 39.6667 30.0423 40.3958 30.0423 41.125V42.5833H35.1465V41.125C35.1465 40.3958 35.7845 39.6667 36.6048 39.6667C37.334 39.6667 38.0631 40.3958 38.0631 41.125V42.5833H43.1673V41.125C43.1673 40.3958 43.8053 39.6667 44.6256 39.6667C45.3548 39.6667 46.084 40.3958 46.084 41.125V42.5833H51.9173ZM18.3757 17.7917V26.5417C18.3757 27.362 17.6465 28 16.9173 28C16.097 28 15.459 27.362 15.459 26.5417V17.7917C15.459 17.0625 16.097 16.3333 16.9173 16.3333C17.6465 16.3333 18.3757 17.0625 18.3757 17.7917ZM30.0423 17.7917V26.5417C30.0423 27.362 29.3132 28 28.584 28C27.7637 28 27.1257 27.362 27.1257 26.5417V17.7917C27.1257 17.0625 27.7637 16.3333 28.584 16.3333C29.3132 16.3333 30.0423 17.0625 30.0423 17.7917ZM41.709 17.7917V26.5417C41.709 27.362 40.9798 28 40.2506 28C39.4303 28 38.7923 27.362 38.7923 26.5417V17.7917C38.7923 17.0625 39.4303 16.3333 40.2506 16.3333C40.9798 16.3333 41.709 17.0625 41.709 17.7917Z" fill="#314081"/>
</svg>
