<svg width="48" height="48" viewBox="0 0 48 48" fill="none" xmlns="http://www.w3.org/2000/svg">
<path d="M7.75 34H12.9062C12.9844 35.0156 13.375 35.875 14 36.5H7.75C4.23438 36.5 1.5 33.7656 1.5 30.25V17.75C1.5 14.3125 4.23438 11.5 7.75 11.5H23.0625L20.4062 14H7.75C5.64062 14 4 15.7188 4 17.75V30.25C4 32.3594 5.64062 34 7.75 34ZM19.9375 36.5L22.5156 34H35.25C37.2812 34 39 32.3594 39 30.25V17.75C39 15.7188 37.2812 14 35.25 14H30.0156C29.9375 13.0625 29.5469 12.2031 28.9219 11.5H35.25C38.6875 11.5 41.5 14.3125 41.5 17.75V30.25C41.5 33.7656 38.6875 36.5 35.25 36.5H19.9375ZM45.25 19C45.875 19 46.5 19.625 46.5 20.25V27.75C46.5 28.4531 45.875 29 45.25 29C44.5469 29 44 28.4531 44 27.75V20.25C44 19.625 44.5469 19 45.25 19ZM16.4219 24.625H20.25C20.6406 24.625 21.0312 24.8594 21.2656 25.25C21.5 25.5625 21.5 26.0312 21.3438 26.4219L19.8594 29.7031L26.5 23.375H22.75C22.2812 23.375 21.8906 23.2188 21.6562 22.8281C21.4219 22.4375 21.4219 22.0469 21.5781 21.6562L23.0625 18.375L16.4219 24.625ZM25.9531 12.75C27.125 12.75 27.9062 14 27.3594 15.0156L24.7031 20.875H28.5312C29.4688 20.875 30.25 21.6562 30.25 22.5938C30.25 23.0625 30.0156 23.5312 29.7031 23.8438L18.0625 34.8594C17.75 35.0938 17.3594 35.25 16.9688 35.25C15.7969 35.25 15.0938 34.0781 15.5625 33.0625L18.2969 27.125H14.3906C13.4531 27.125 12.75 26.4219 12.75 25.4844C12.75 25.0156 12.9062 24.5469 13.2188 24.2344L24.8594 13.2188C25.1719 12.9062 25.5625 12.75 25.9531 12.75Z" fill="#314081"/>
</svg>
