<svg width="48" height="48" viewBox="0 0 48 48" fill="none" xmlns="http://www.w3.org/2000/svg">
<path d="M19 7.75V17.75C19 18.4531 18.375 19 17.75 19H7.75C7.04688 19 6.5 18.4531 6.5 17.75C6.5 17.125 7.04688 16.5 7.75 16.5H16.5V7.75C16.5 7.125 17.0469 6.5 17.75 6.5C18.375 6.5 19 7.125 19 7.75ZM7.75 29H17.75C18.375 29 19 29.625 19 30.25V40.25C19 40.9531 18.375 41.5 17.75 41.5C17.0469 41.5 16.5 40.9531 16.5 40.25V31.5H7.75C7.04688 31.5 6.5 30.9531 6.5 30.25C6.5 29.625 7.04688 29 7.75 29ZM31.5 7.75V16.5H40.25C40.875 16.5 41.5 17.125 41.5 17.75C41.5 18.4531 40.875 19 40.25 19H30.25C29.5469 19 29 18.4531 29 17.75V7.75C29 7.125 29.5469 6.5 30.25 6.5C30.875 6.5 31.5 7.125 31.5 7.75ZM30.25 29H40.25C40.875 29 41.5 29.625 41.5 30.25C41.5 30.9531 40.875 31.5 40.25 31.5H31.5V40.25C31.5 40.9531 30.875 41.5 30.25 41.5C29.5469 41.5 29 40.9531 29 40.25V30.25C29 29.625 29.5469 29 30.25 29Z" fill="#314081"/>
</svg>
