<svg width="48" height="48" viewBox="0 0 48 48" fill="none" xmlns="http://www.w3.org/2000/svg">
<path d="M14 11.5C14 10.1719 15.0938 9 16.5 9H31.5C32.8281 9 34 10.1719 34 11.5V14H36.5C37.8281 14 39 15.1719 39 16.5V19H41.5C42.8281 19 44 20.1719 44 21.5V36.5C44 37.9062 42.8281 39 41.5 39H35.25H27.75H20.25H12.75H6.5C5.09375 39 4 37.9062 4 36.5V21.5C4 20.1719 5.09375 19 6.5 19H9V16.5C9 15.1719 10.0938 14 11.5 14H14V11.5ZM31.5 11.5H16.5V15.25C16.5 15.9531 15.875 16.5 15.25 16.5H11.5V20.25C11.5 20.9531 10.875 21.5 10.25 21.5H6.5V36.5H11.5V30.25C11.5 29.625 12.0469 29 12.75 29C13.375 29 14 29.625 14 30.25V36.5H19V30.25C19 29.625 19.5469 29 20.25 29C20.875 29 21.5 29.625 21.5 30.25V36.5H26.5V30.25C26.5 29.625 27.0469 29 27.75 29C28.375 29 29 29.625 29 30.25V36.5H34V30.25C34 29.625 34.5469 29 35.25 29C35.875 29 36.5 29.625 36.5 30.25V36.5H41.5V21.5H37.75C37.0469 21.5 36.5 20.9531 36.5 20.25V16.5H32.75C32.0469 16.5 31.5 15.9531 31.5 15.25V11.5Z" fill="#314081"/>
</svg>
