<svg width="294" height="469" viewBox="0 0 294 469" fill="none" xmlns="http://www.w3.org/2000/svg">
<g clip-path="url(#clip0_3927_30350)">
<path d="M169.881 411.46L289.682 347.198V380.281L169.946 454.672L169.881 411.46Z" fill="#262E60"/>
<path d="M130.418 152.354L137.699 156.641V391.861L130.418 387.807V152.354Z" fill="#BBC8E8"/>
<path d="M169.946 174.53L137.699 156.642V391.862L169.881 411.46L169.946 174.53Z" fill="#F1F1F1"/>
<path d="M169.946 174.53L291.379 107.976L291.042 346.667L169.881 411.46L169.946 174.53Z" fill="#BBC8E8"/>
<path d="M214.553 160.657L214.967 396.447L264.963 368.856L265.119 135.916L214.553 153.779V160.657Z" fill="#22254C"/>
<path d="M169.895 304.244L206.766 287.172L207.142 304.244L169.946 322.923L169.895 304.244Z" fill="#313989"/>
<path d="M169.881 331.719L206.934 314.556L207.439 337.289L169.972 355.385L169.881 331.719Z" fill="#313989"/>
<path d="M169.881 463.286L169.946 454.672L289.682 380.281V386.797L169.881 463.286Z" fill="#22254C"/>
<path d="M169.946 464.957L169.881 463.286L179.274 457.289L186.14 455.009L169.946 464.957Z" fill="#BBC8E8"/>
<path d="M179.273 457.289L186.14 455.009L292.001 387.198L289.682 386.797L179.273 457.289Z" fill="#313989"/>
<path d="M169.971 468.856L292.001 391.447V387.198L169.945 464.957L169.971 468.856Z" fill="#22254C"/>
<path d="M169.945 464.958L1.01562 360.515V364.984L169.971 468.857L169.945 464.958Z" fill="#262E60"/>
<path d="M1.01562 360.514L2.81648 360.1L169.88 463.286L169.945 464.957L1.01562 360.514Z" fill="#BBC8E8"/>
<path d="M2.92199 352.432L2.81836 360.1L169.882 463.287L169.947 454.673" fill="#262E60"/>
<path d="M17.3926 66.5373L85.5007 29.4L130.418 9.12793L279.266 94.2834L249.934 108.597L262.929 119.348L220.447 141.356L204.084 133.48L170.736 153.273L132.659 129.905L107.694 139.996L28.7158 93.5839L47.6571 84.1927L17.3926 66.5373Z" fill="white"/>
<path d="M24.1816 102.69V326.395L38.5366 333.675L39.003 111.227L24.1816 102.69Z" fill="#313989"/>
<path d="M169.947 454.672L169.882 410.54L2.92188 314.452V352.431L169.947 454.672Z" fill="#CEDAF1"/>
<path d="M122.177 155.76L32.6924 112.418L30.5547 334.594L122.177 390.462V155.76Z" fill="#313989"/>
<path d="M1.97461 79.4648L2.92035 314.452L33.146 332.379L35.5428 97.3664L1.97461 79.4648Z" fill="#F1F1F1"/>
<path d="M291.315 132.846L258.861 149.711V171.006L291.315 155.061V132.846Z" fill="#313989"/>
<path d="M291.302 166.797L259.275 183.442V204.167L291.263 189.012L291.302 166.797Z" fill="#313989"/>
<path d="M291.223 198.156L258.938 214.944V236.382L291.223 220.384V198.156Z" fill="#313989"/>
<path d="M291.147 231.007L258.861 247.794V268.52L291.173 253.209L291.147 231.007Z" fill="#313989"/>
<path d="M291.172 265.203L258.73 282.068L259.028 303.947L291.133 287.69L291.172 265.203Z" fill="#313989"/>
<path d="M291.068 326.537L259.547 342.923V363.648L291.042 346.667L291.068 326.537Z" fill="#313989"/>
<path d="M33.0945 125.657L14.9824 116.123L15.2286 99.5557L33.0945 109.4V125.657Z" fill="#314081"/>
<path d="M33.0948 130.32V125.657L14.9827 116.123L15.2159 98.8564L11.8086 96.8486V118.558L33.0948 130.32Z" fill="#B5B3DA"/>
<path d="M33.0942 109.957L23.209 120.397L33.0942 125.657V109.957Z" fill="#575AA4"/>
<path d="M23.4555 104.465L14.9824 116.123L23.1316 120.359L23.4555 104.465Z" fill="#575AA4"/>
<path d="M40.9196 114.621L2.01367 91.8746L2.0914 90.4238L41.5674 113.507L40.9196 114.621Z" fill="#314081"/>
<path d="M33.1472 160.527L15.0352 150.98L15.2813 134.426L33.1472 144.257V160.527Z" fill="#314081"/>
<path d="M33.1476 165.19V160.527L15.0355 150.98L15.2687 133.727L11.8613 131.719V153.416L33.1476 165.19Z" fill="#B5B3DA"/>
<path d="M33.1469 144.828L23.2617 155.269L33.1469 160.528V144.828Z" fill="#575AA4"/>
<path d="M23.5082 139.336L15.0352 150.981L23.1843 155.23L23.5082 139.336Z" fill="#575AA4"/>
<path d="M40.9715 149.478L2.16922 126.796L2.15625 125.307L41.6193 148.377L40.9715 149.478Z" fill="#314081"/>
<path d="M33.1472 194.452L15.0352 184.905L15.2813 168.351L33.1472 178.182V194.452Z" fill="#314081"/>
<path d="M33.1476 199.115V194.452L15.0355 184.905L15.2687 167.651L11.8613 165.644V187.353L33.1476 199.115Z" fill="#B5B3DA"/>
<path d="M33.1469 178.753L23.2617 189.193L33.1469 194.452V178.753Z" fill="#575AA4"/>
<path d="M23.5082 173.261L15.0352 184.906L23.1843 189.155L23.5082 173.261Z" fill="#575AA4"/>
<path d="M40.9715 183.416L2.29883 160.799V159.31L41.6193 182.302L40.9715 183.416Z" fill="#314081"/>
<path d="M33.1472 226.343L15.0352 216.797L15.2813 200.242L33.1472 210.074V226.343Z" fill="#314081"/>
<path d="M33.1476 231.007V226.343L15.0355 216.797L15.2687 199.543L11.8613 197.535V219.232L33.1476 231.007Z" fill="#B5B3DA"/>
<path d="M33.1469 210.644L23.2617 221.084L33.1469 226.343V210.644Z" fill="#575AA4"/>
<path d="M23.5082 205.151L15.0352 216.796L23.1843 221.045L23.5082 205.151Z" fill="#575AA4"/>
<path d="M40.9729 215.294L2.42969 192.768L2.45562 191.291L41.6207 214.193L40.9729 215.294Z" fill="#314081"/>
<path d="M33.1472 260.787L15.0352 251.24L15.2813 234.686L33.1472 244.53V260.787Z" fill="#314081"/>
<path d="M33.1476 265.449V260.786L15.0355 251.239L15.2687 233.985L11.8613 231.978V253.687L33.1476 265.449Z" fill="#B5B3DA"/>
<path d="M33.1469 245.087L23.2617 255.527L33.1469 260.786V245.087Z" fill="#575AA4"/>
<path d="M23.5082 239.595L15.0352 251.24L23.1843 255.488L23.5082 239.595Z" fill="#575AA4"/>
<path d="M40.972 249.75L2.51953 227.263L2.57137 225.799L41.6198 248.636L40.972 249.75Z" fill="#314081"/>
<path d="M33.1472 293.467L15.0352 283.934L15.2813 267.366L33.1472 277.211V293.467Z" fill="#314081"/>
<path d="M33.1476 298.131V293.467L15.0355 283.934L15.2687 266.667L11.8613 264.659V286.369L33.1476 298.131Z" fill="#B5B3DA"/>
<path d="M33.1469 277.769L23.2617 288.209L33.1469 293.468V277.769Z" fill="#575AA4"/>
<path d="M23.5082 272.289L15.0352 283.934L23.1843 288.17L23.5082 272.289Z" fill="#575AA4"/>
<path d="M40.9723 282.431L2.70117 260.061L2.7141 258.571L41.62 281.317L40.9723 282.431Z" fill="#314081"/>
<path d="M33.1472 327.781L15.0352 318.247L15.2813 301.68L33.1472 311.524V327.781Z" fill="#314081"/>
<path d="M33.1469 312.082L23.2617 322.522L33.1469 327.782V312.082Z" fill="#575AA4"/>
<path d="M23.5082 306.59L15.0352 318.248L23.1843 322.484L23.5082 306.59Z" fill="#575AA4"/>
<path d="M33.1476 332.444V327.781L15.0355 317.392L15.2687 300.98L11.8613 298.973L12.1464 319.18L33.1476 332.444Z" fill="#B5B3DA"/>
<path d="M40.9723 316.745L2.84375 294.453V292.963L41.6201 315.631L40.9723 316.745Z" fill="#314081"/>
<path d="M31.8649 331.602L2.92188 314.685V313.195L32.5127 330.488L31.8649 331.602Z" fill="#314081"/>
<path d="M36.2812 114.568L36.3978 142.327L64.7967 157.755V132.483L36.2812 114.568Z" fill="#262E60"/>
<path d="M86.9902 172.898V152.159L87.7028 152.898V173.532L86.9902 172.898Z" fill="#BBC8E8"/>
<path d="M177.953 416.019L200.263 403.571V432.133L177.953 445.786V416.019Z" fill="#314081"/>
<path d="M177.992 200.151L196.117 190.618L195.884 174.905L177.992 183.895V200.151Z" fill="#314081"/>
<path d="M177.992 204.815V200.152L196.117 190.618L195.884 175.113L199.291 173.377V193.053L177.992 204.815Z" fill="#B5B3DA"/>
<path d="M187.722 179.154L187.877 194.893L177.992 200.152L187.722 179.154Z" fill="#575AA4"/>
<path d="M195.884 174.905L196.117 190.618L187.955 194.866L195.884 174.905Z" fill="#575AA4"/>
<path d="M205.952 169.297L169.406 187.946L169.989 189.089L206.535 170.439L205.952 169.297Z" fill="#314081"/>
<path d="M162.081 200.1L143.969 190.553L144.215 173.999L162.081 183.831V200.1Z" fill="#314081"/>
<path d="M162.081 204.75V200.1L143.969 190.553L144.202 173.286L140.795 171.278V192.988L162.081 204.75Z" fill="#B5B3DA"/>
<path d="M162.082 184.4L152.197 194.841L162.082 200.1V184.4Z" fill="#575AA4"/>
<path d="M152.442 178.908L143.969 190.553L152.118 194.802L152.442 178.908Z" fill="#575AA4"/>
<path d="M169.907 189.05L130.418 165.967V164.478L170.555 187.949L169.907 189.05Z" fill="#314081"/>
<path d="M162.133 234.957L144.008 225.411L144.267 208.856L162.133 218.701V234.957Z" fill="#314081"/>
<path d="M162.133 239.62V234.957L144.008 225.41L144.241 208.156L140.834 206.148V227.858L162.133 239.62Z" fill="#B5B3DA"/>
<path d="M162.133 219.258L152.248 229.698L162.133 234.957V219.258Z" fill="#575AA4"/>
<path d="M152.481 213.766L144.008 225.411L152.17 229.659L152.481 213.766Z" fill="#575AA4"/>
<path d="M169.959 223.921L130.418 200.799V199.31L169.894 222.639L169.959 223.921Z" fill="#314081"/>
<path d="M162.133 268.882L144.008 259.349L144.267 242.781L162.133 252.626V268.882Z" fill="#314081"/>
<path d="M162.133 273.546V268.882L144.008 259.349L144.241 242.082L140.834 240.074V261.784L162.133 273.546Z" fill="#B5B3DA"/>
<path d="M162.133 253.183L152.248 263.623L162.133 268.882V253.183Z" fill="#575AA4"/>
<path d="M152.481 247.69L144.008 259.348L152.17 263.584L152.481 247.69Z" fill="#575AA4"/>
<path d="M169.959 257.846L130.418 234.724V233.234L170.049 256.602L169.959 257.846Z" fill="#314081"/>
<path d="M162.133 300.773L144.008 291.226L144.267 274.672L162.133 284.516V300.773Z" fill="#314081"/>
<path d="M162.133 305.436V300.773L144.008 291.226L144.241 273.973L140.834 271.965V293.675L162.133 305.436Z" fill="#B5B3DA"/>
<path d="M162.133 285.074L152.248 295.515L162.133 300.774V285.074Z" fill="#575AA4"/>
<path d="M152.481 279.582L144.008 291.227L152.17 295.476L152.481 279.582Z" fill="#575AA4"/>
<path d="M169.958 289.737L130.327 266.563L130.158 264.97L170.606 288.623L169.958 289.737Z" fill="#314081"/>
<path d="M162.133 335.229L144.008 325.682L144.267 309.128L162.133 318.96V335.229Z" fill="#314081"/>
<path d="M162.133 339.88V335.229L144.008 325.683L144.241 308.416L140.834 306.408V328.118L162.133 339.88Z" fill="#B5B3DA"/>
<path d="M162.133 319.529L152.248 329.97L162.133 335.229V319.529Z" fill="#575AA4"/>
<path d="M152.481 314.037L144.008 325.682L152.17 329.931L152.481 314.037Z" fill="#575AA4"/>
<path d="M169.959 324.18L129.926 300.774L130.418 299.582L170.607 323.079L169.959 324.18Z" fill="#314081"/>
<path d="M162.133 367.911L144.008 358.364L144.267 341.81L162.133 351.641V367.911Z" fill="#314081"/>
<path d="M162.133 372.574V367.911L144.008 358.364L144.241 341.11L140.834 339.103V360.799L162.133 372.574Z" fill="#B5B3DA"/>
<path d="M162.133 352.211L152.248 362.651L162.133 367.91V352.211Z" fill="#575AA4"/>
<path d="M152.481 346.719L144.008 358.364L152.17 362.613L152.481 346.719Z" fill="#575AA4"/>
<path d="M169.959 356.862L130.095 333.558L128.98 331.408L170.607 355.761L169.959 356.862Z" fill="#314081"/>
<path d="M162.133 402.224L144.008 392.677L144.267 376.123L162.133 385.955V402.224Z" fill="#314081"/>
<path d="M162.133 386.524L152.248 396.965L162.133 402.224V386.524Z" fill="#575AA4"/>
<path d="M152.481 381.032L144.008 392.677L152.17 396.926L152.481 381.032Z" fill="#575AA4"/>
<path d="M160.787 437.289L142.934 425.916L143.219 405.009L161.564 415.98L160.787 437.289Z" fill="#314081"/>
<path d="M161.046 440.125V436.188L142.934 425.916L143.219 405.009L139.76 402.949V428.364L161.046 440.125Z" fill="#B5B3DA"/>
<path d="M161.563 415.98L150.965 430.475L161.044 436.188L161.563 415.98Z" fill="#575AA4"/>
<path d="M151.497 409.97L142.934 425.915L150.966 430.475L151.497 409.97Z" fill="#575AA4"/>
<path d="M262.773 152.366L280.898 142.833L280.665 127.12L262.773 136.11V152.366Z" fill="#314081"/>
<path d="M262.773 157.03V152.367L280.898 142.833L280.665 127.328L284.073 125.579V145.268L262.773 157.03Z" fill="#B5B3DA"/>
<path d="M272.503 131.356L272.659 147.108L262.773 152.367L272.503 131.356Z" fill="#575AA4"/>
<path d="M280.665 127.12L280.898 142.833L272.736 147.068L280.665 127.12Z" fill="#575AA4"/>
<path d="M254.792 141.266L254.209 140.113L291.314 121.162V122.613L254.792 141.266Z" fill="#314081"/>
<path d="M263.447 185.191L281.559 175.644L281.326 159.932L263.447 168.921V185.191Z" fill="#314081"/>
<path d="M263.447 189.853V185.19L281.559 175.643L281.326 160.151L284.733 158.402V178.091L263.447 189.853Z" fill="#B5B3DA"/>
<path d="M273.164 164.18L273.32 179.931L263.447 185.19L273.164 164.18Z" fill="#575AA4"/>
<path d="M281.325 159.932L281.559 175.644L273.396 179.893L281.325 159.932Z" fill="#575AA4"/>
<path d="M255.467 174.076L254.871 172.936L291.315 154.322V155.76L255.467 174.076Z" fill="#314081"/>
<path d="M262.773 219.258L280.898 209.711L280.665 194.012L262.773 203.001V219.258Z" fill="#314081"/>
<path d="M262.773 223.92V219.257L280.898 209.711L280.665 194.218L284.073 192.47V212.159L262.773 223.92Z" fill="#B5B3DA"/>
<path d="M272.503 198.247L272.659 213.998L262.773 219.257L272.503 198.247Z" fill="#575AA4"/>
<path d="M280.665 194.012L280.898 209.711L272.736 213.96L280.665 194.012Z" fill="#575AA4"/>
<path d="M254.792 208.144L254.209 207.004L291.262 188.079V189.517L254.792 208.144Z" fill="#314081"/>
<path d="M262.93 250.981L281.042 241.434L280.809 225.734L262.93 234.724V250.981Z" fill="#314081"/>
<path d="M262.93 255.644V250.981L281.042 241.434L280.809 225.942L284.216 224.193V243.882L262.93 255.644Z" fill="#B5B3DA"/>
<path d="M272.646 229.971L272.815 245.722L262.93 250.981L272.646 229.971Z" fill="#575AA4"/>
<path d="M280.808 225.734L281.041 241.434L272.879 245.683L280.808 225.734Z" fill="#575AA4"/>
<path d="M254.948 239.867L254.365 238.727L291.224 219.893V221.343L254.948 239.867Z" fill="#314081"/>
<path d="M262.93 283.429L281.042 273.882L280.809 258.17L262.93 267.16V283.429Z" fill="#314081"/>
<path d="M262.93 288.079V283.429L281.042 273.883L280.809 258.377L284.216 256.642V276.318L262.93 288.079Z" fill="#B5B3DA"/>
<path d="M272.646 262.418L272.815 278.221L262.93 283.428L272.646 262.418Z" fill="#575AA4"/>
<path d="M280.808 258.17L281.041 273.882L272.814 278.222L280.808 258.17Z" fill="#575AA4"/>
<path d="M265.119 267.12L265.21 265.514L291.173 252.366V253.804L265.119 267.12Z" fill="#314081"/>
<path d="M262.346 318.157L280.458 308.61L280.225 292.897L262.346 301.887V318.157Z" fill="#314081"/>
<path d="M262.346 322.807V318.157L280.458 308.61L280.225 293.105L283.632 291.369V311.045L262.346 322.807Z" fill="#B5B3DA"/>
<path d="M272.062 297.146L272.231 312.898L262.346 318.157L272.062 297.146Z" fill="#575AA4"/>
<path d="M280.225 292.897L280.458 308.61L272.309 312.859L280.225 292.897Z" fill="#575AA4"/>
<path d="M254.364 307.043L253.781 305.903L291.171 286.797L291.133 288.261L254.364 307.043Z" fill="#314081"/>
<path d="M262.955 348.947L281.067 339.4L280.834 323.688L262.955 332.677V348.947Z" fill="#314081"/>
<path d="M262.955 353.61V348.947L281.067 339.4L280.834 323.895L284.241 322.159V341.848L262.955 353.61Z" fill="#B5B3DA"/>
<path d="M272.672 327.937L272.84 343.688L262.955 348.947L272.672 327.937Z" fill="#575AA4"/>
<path d="M280.834 323.688L281.067 339.4L272.918 343.649L280.834 323.688Z" fill="#575AA4"/>
<path d="M254.974 337.833L254.391 336.693L291.081 317.949L291.107 319.374L254.974 337.833Z" fill="#314081"/>
<path d="M177.887 235.268L196.012 225.721L195.779 210.009L177.887 218.998V235.268Z" fill="#314081"/>
<path d="M177.887 239.918V235.268L196.012 225.721L195.779 210.216L199.186 208.48V228.157L177.887 239.918Z" fill="#B5B3DA"/>
<path d="M187.616 214.258L187.772 229.996L177.887 235.268L187.616 214.258Z" fill="#575AA4"/>
<path d="M195.78 210.009L196.014 225.721L187.852 229.97L195.78 210.009Z" fill="#575AA4"/>
<path d="M169.959 223.921L169.324 223.001L206.986 203.766L206.766 205.333L169.959 223.921Z" fill="#314081"/>
<path d="M177.887 269.231L196.012 259.685L195.779 243.985L177.887 252.962V269.231Z" fill="#314081"/>
<path d="M177.887 273.895V269.232L196.012 259.685L195.779 244.193L199.186 242.444V262.133L177.887 273.895Z" fill="#B5B3DA"/>
<path d="M187.616 248.222L187.772 263.973L177.887 269.232L187.616 248.222Z" fill="#575AA4"/>
<path d="M195.78 243.985L196.014 259.685L187.852 263.934L195.78 243.985Z" fill="#575AA4"/>
<path d="M169.959 257.845L169.324 256.978L206.766 237.858V239.296L169.959 257.845Z" fill="#314081"/>
<path d="M178.043 300.657L196.168 291.11L195.922 275.397L178.043 284.387V300.657Z" fill="#314081"/>
<path d="M178.043 305.32V300.657L196.168 291.11L195.935 275.605L199.342 273.869V293.558L178.043 305.32Z" fill="#B5B3DA"/>
<path d="M187.76 279.646L187.928 295.398L178.043 300.657L187.76 279.646Z" fill="#575AA4"/>
<path d="M195.922 275.397L196.168 291.11L188.006 295.359L195.922 275.397Z" fill="#575AA4"/>
<path d="M169.958 289.737L169.945 288.157L206.765 269.361V270.799L169.958 289.737Z" fill="#314081"/>
<path d="M178.043 335.463L196.168 325.929L195.922 310.217L178.043 319.206V335.463Z" fill="#314081"/>
<path d="M178.043 340.125V335.462L196.168 325.928L195.935 310.423L199.342 308.688V328.364L178.043 340.125Z" fill="#B5B3DA"/>
<path d="M187.76 314.452L187.928 330.203L178.043 335.463L187.76 314.452Z" fill="#575AA4"/>
<path d="M195.922 310.217L196.168 325.929L188.006 330.165L195.922 310.217Z" fill="#575AA4"/>
<path d="M169.959 324.18L169.972 322.703L207.233 303.921L207.816 305.074L169.959 324.18Z" fill="#314081"/>
<path d="M177.953 368.247L196.065 358.713L195.832 343.001L177.953 351.991V368.247Z" fill="#314081"/>
<path d="M177.953 372.91V368.247L196.065 358.714L195.832 343.208L199.239 341.473V361.149L177.953 372.91Z" fill="#B5B3DA"/>
<path d="M187.67 347.237L187.825 362.989L177.953 368.248L187.67 347.237Z" fill="#575AA4"/>
<path d="M195.831 343.001L196.064 358.713L187.902 362.949L195.831 343.001Z" fill="#575AA4"/>
<path d="M169.959 356.861L169.972 355.385L207.155 336.719L207.738 337.859L169.959 356.861Z" fill="#314081"/>
<path d="M178.043 402.651L196.168 393.105L195.922 377.405L178.043 386.395V402.651Z" fill="#314081"/>
<path d="M178.043 407.082V402.652L196.168 393.105L195.935 377.613L199.342 375.864V395.709L178.043 407.082Z" fill="#B5B3DA"/>
<path d="M187.76 381.642L187.928 397.393L178.043 402.652L187.76 381.642Z" fill="#575AA4"/>
<path d="M195.922 377.405L196.168 393.105L188.006 397.353L195.922 377.405Z" fill="#575AA4"/>
<path d="M169.958 391.175L169.945 389.685L207.608 370.916L208.19 372.069L169.958 391.175Z" fill="#314081"/>
<path d="M226.315 157.897L225.939 184.879L253.108 167.431V142.224L226.315 157.897Z" fill="#1F1C3D"/>
<path d="M229.969 178.105L253.108 164.336V169.854L229.969 183.39V178.105Z" fill="#C2BEE0"/>
<path d="M229.969 176.162L250.918 164.154L253.108 164.336L229.969 178.105V176.162Z" fill="#F5F5FB"/>
<path d="M236.383 157.237V172.548L238.767 171.201V155.877L236.383 157.237Z" fill="#D9D8ED"/>
<path d="M244.766 152.354V167.717L247.162 166.318V150.955L244.766 152.354Z" fill="#D9D8ED"/>
<path d="M229.969 169.853L250.918 157.897V160.967L229.969 172.444V169.853Z" fill="#D9D8ED"/>
<path d="M247.162 160.035L250.919 148.766V157.898L247.162 160.035Z" fill="#272959"/>
<path d="M238.766 164.828L244.764 152.354V161.408L238.766 164.828Z" fill="#272959"/>
<path d="M229.969 169.854L236.382 157.237V166.188L229.969 169.854Z" fill="#272959"/>
<path d="M229.969 176.162L236.382 168.934V172.353L229.969 176.162Z" fill="#272959"/>
<path d="M238.766 171.006L244.764 164.426V167.586L238.766 171.006Z" fill="#272959"/>
<path d="M247.162 166.318L250.919 160.968V164.154L247.162 166.318Z" fill="#272959"/>
<path d="M250.918 164.154L253.107 164.336V147.924L250.918 149.167V164.154Z" fill="#F5F5FB"/>
<path d="M253.213 142.159L253.109 147.923L229.97 160.967V183.39L225.047 186.162V158.571L253.213 142.159Z" fill="#314081"/>
<path d="M226.315 192.988L225.939 219.97L253.108 202.522V177.302L226.315 192.988Z" fill="#1F1C3D"/>
<path d="M229.969 213.195L253.108 199.426V204.931L229.969 218.48V213.195Z" fill="#C2BEE0"/>
<path d="M229.969 211.253L250.918 199.245L253.108 199.426L229.969 213.196V211.253Z" fill="#F5F5FB"/>
<path d="M236.383 192.328V207.626L238.767 206.279V190.968L236.383 192.328Z" fill="#D9D8ED"/>
<path d="M244.766 187.444V202.807L247.162 201.395V186.045L244.766 187.444Z" fill="#D9D8ED"/>
<path d="M229.969 204.931L250.918 192.988V196.058L229.969 207.522V204.931Z" fill="#D9D8ED"/>
<path d="M247.162 195.126L250.919 183.856V192.989L247.162 195.126Z" fill="#272959"/>
<path d="M238.766 199.918L244.764 187.444V196.499L238.766 199.918Z" fill="#272959"/>
<path d="M229.969 204.932L236.382 192.328V201.279L229.969 204.932Z" fill="#272959"/>
<path d="M229.969 211.253L236.382 204.012V207.444L229.969 211.253Z" fill="#272959"/>
<path d="M238.766 206.097L244.764 199.517V202.664L238.766 206.097Z" fill="#272959"/>
<path d="M247.162 201.395L250.919 196.059V199.245L247.162 201.395Z" fill="#272959"/>
<path d="M250.918 199.257L253.107 199.439V181.744L250.918 178.597V199.257Z" fill="#F5F5FB"/>
<path d="M253.109 177.302V182.574L229.97 196.058V218.481L225.047 221.253V193.649L253.109 177.302Z" fill="#314081"/>
<path d="M226.354 227.055L225.979 254.037L253.147 236.602V211.382L226.354 227.055Z" fill="#1F1C3D"/>
<path d="M229.996 247.263L253.148 233.493V239.011L229.996 252.561V247.263Z" fill="#C2BEE0"/>
<path d="M229.996 245.32L250.958 233.325L253.148 233.494L229.996 247.263V245.32Z" fill="#F5F5FB"/>
<path d="M236.422 226.395V241.706L238.806 240.359V225.035L236.422 226.395Z" fill="#D9D8ED"/>
<path d="M244.791 221.511V236.874L247.201 235.475V220.112L244.791 221.511Z" fill="#D9D8ED"/>
<path d="M229.996 239.012L250.958 227.056V230.126L229.996 241.602V239.012Z" fill="#D9D8ED"/>
<path d="M247.201 229.206L250.958 217.924V227.056L247.201 229.206Z" fill="#272959"/>
<path d="M238.805 233.986L244.79 221.512V230.566L238.805 233.986Z" fill="#272959"/>
<path d="M229.996 239.012L236.422 226.396V235.346L229.996 239.012Z" fill="#272959"/>
<path d="M229.996 245.32L236.422 238.092V241.512L229.996 245.32Z" fill="#272959"/>
<path d="M238.805 240.177L244.79 233.584V236.745L238.805 240.177Z" fill="#272959"/>
<path d="M247.201 235.476L250.958 230.126V233.325L247.201 235.476Z" fill="#272959"/>
<path d="M250.957 233.325L253.147 233.493V211.382L250.957 212.664V233.325Z" fill="#F5F5FB"/>
<path d="M253.148 211.305L253.187 216.629L229.996 230.126V252.561L225.086 255.32V227.73L253.148 211.305Z" fill="#314081"/>
<path d="M226.095 260.903L225.732 287.898L252.888 270.45V245.229L226.095 260.903Z" fill="#1F1C3D"/>
<path d="M229.75 281.123L252.889 267.354V272.859L229.75 286.408V281.123Z" fill="#C2BEE0"/>
<path d="M229.75 279.167L250.699 267.172L252.889 267.353L229.75 281.123V279.167Z" fill="#F5F5FB"/>
<path d="M236.162 260.242V275.553L238.546 274.206V258.882L236.162 260.242Z" fill="#D9D8ED"/>
<path d="M244.545 255.372V270.734L246.942 269.322V253.973L244.545 255.372Z" fill="#D9D8ED"/>
<path d="M229.75 272.858L250.699 260.902V263.985L229.75 275.449V272.858Z" fill="#D9D8ED"/>
<path d="M246.941 263.053L250.699 251.783V260.902L246.941 263.053Z" fill="#272959"/>
<path d="M238.547 267.846L244.545 255.372V264.426L238.547 267.846Z" fill="#272959"/>
<path d="M229.75 272.859L236.163 260.242V269.206L229.75 272.859Z" fill="#272959"/>
<path d="M229.75 279.167L236.163 271.939V275.372L229.75 279.167Z" fill="#272959"/>
<path d="M238.547 274.025L244.545 267.444V270.592L238.547 274.025Z" fill="#272959"/>
<path d="M246.941 269.322L250.699 263.985V267.172L246.941 269.322Z" fill="#272959"/>
<path d="M250.699 267.172L252.889 267.354L252.85 250.527L250.699 251.784V267.172Z" fill="#F5F5FB"/>
<path d="M252.888 245.229L252.849 250.527L229.749 263.986V286.408L224.826 289.18V261.577L252.888 245.229Z" fill="#314081"/>
<path d="M226.354 294.336L225.979 321.318L253.147 303.882V278.662L226.354 294.336Z" fill="#1F1C3D"/>
<path d="M229.996 314.543L253.148 300.773V306.292L229.996 319.841V314.543Z" fill="#C2BEE0"/>
<path d="M229.996 312.6L250.958 300.592L253.148 300.773L229.996 314.543V312.6Z" fill="#F5F5FB"/>
<path d="M236.422 293.675V308.985L238.806 307.638V292.314L236.422 293.675Z" fill="#D9D8ED"/>
<path d="M244.791 288.792V304.154L247.201 302.755V287.393L244.791 288.792Z" fill="#D9D8ED"/>
<path d="M229.996 306.292L250.958 294.336V297.406L229.996 308.883V306.292Z" fill="#D9D8ED"/>
<path d="M247.201 296.485L250.958 285.203V294.335L247.201 296.485Z" fill="#272959"/>
<path d="M238.805 301.265L244.79 288.791V297.845L238.805 301.265Z" fill="#272959"/>
<path d="M229.996 306.291L236.422 293.675V302.626L229.996 306.291Z" fill="#272959"/>
<path d="M229.996 312.6L236.422 305.372V308.792L229.996 312.6Z" fill="#272959"/>
<path d="M238.805 307.458L244.79 300.864V304.025L238.805 307.458Z" fill="#272959"/>
<path d="M247.201 302.755L250.958 297.405V300.592L247.201 302.755Z" fill="#272959"/>
<path d="M250.957 300.592L253.147 300.774L253.108 283.947L250.957 285.204V300.592Z" fill="#F5F5FB"/>
<path d="M253.148 278.662L253.109 283.947L229.996 297.406V319.841L225.086 322.6V295.009L253.148 278.662Z" fill="#314081"/>
<path d="M226.354 327.911L225.979 354.906L253.147 337.458V312.237L226.354 327.911Z" fill="#1F1C3D"/>
<path d="M229.996 348.118L253.148 334.361V339.867L229.996 353.416V348.118Z" fill="#C2BEE0"/>
<path d="M229.996 346.175L250.958 334.18L253.148 334.361L229.996 348.118V346.175Z" fill="#F5F5FB"/>
<path d="M236.422 327.25V342.561L238.806 341.214V325.89L236.422 327.25Z" fill="#D9D8ED"/>
<path d="M244.791 322.379V337.742L247.201 336.33V320.98L244.791 322.379Z" fill="#D9D8ED"/>
<path d="M229.996 339.866L250.958 327.91V330.993L229.996 342.457V339.866Z" fill="#D9D8ED"/>
<path d="M247.201 330.061L250.958 318.778V327.91L247.201 330.061Z" fill="#272959"/>
<path d="M238.805 334.841L244.79 322.38V331.434L238.805 334.841Z" fill="#272959"/>
<path d="M229.996 339.867L236.422 327.25V336.214L229.996 339.867Z" fill="#272959"/>
<path d="M229.996 346.175L236.422 338.947V342.38L229.996 346.175Z" fill="#272959"/>
<path d="M238.805 341.033L244.79 334.439V337.6L238.805 341.033Z" fill="#272959"/>
<path d="M247.201 336.33L250.958 330.993V334.18L247.201 336.33Z" fill="#272959"/>
<path d="M250.957 334.18L253.147 334.362V312.237L250.957 313.52V334.18Z" fill="#F5F5FB"/>
<path d="M253.148 312.237L253.109 317.535L229.996 330.994V353.416L225.086 356.188V328.584L253.148 312.237Z" fill="#314081"/>
<path d="M226.55 360.631L226.174 387.625L253.342 370.177V344.957L226.55 360.631Z" fill="#1F1C3D"/>
<path d="M230.189 380.838L253.341 367.91V373.402L230.189 386.136V380.838Z" fill="#C2BEE0"/>
<path d="M230.189 378.895L251.152 366.9L253.341 367.911L230.189 380.838V378.895Z" fill="#F5F5FB"/>
<path d="M236.615 359.97V375.281L238.999 373.934V358.61L236.615 359.97Z" fill="#D9D8ED"/>
<path d="M244.984 355.087V370.463L247.394 369.051V353.701L244.984 355.087Z" fill="#D9D8ED"/>
<path d="M230.189 372.587L251.152 360.631V363.714L230.189 375.177V372.587Z" fill="#D9D8ED"/>
<path d="M247.395 362.781L251.152 351.499V360.631L247.395 362.781Z" fill="#272959"/>
<path d="M239 367.561L244.986 355.087V364.154L239 367.561Z" fill="#272959"/>
<path d="M230.189 372.586L236.615 359.97V368.933L230.189 372.586Z" fill="#272959"/>
<path d="M230.189 378.895L236.615 371.667V375.1L230.189 378.895Z" fill="#272959"/>
<path d="M239 373.752L244.986 367.159V370.32L239 373.752Z" fill="#272959"/>
<path d="M247.395 369.051L251.152 363.714V366.9L247.395 369.051Z" fill="#272959"/>
<path d="M251.152 367.159L253.342 367.91V344.957L251.152 346.239V367.159Z" fill="#F5F5FB"/>
<path d="M253.341 344.957L253.302 350.255L230.19 363.714V386.136L225.279 388.908V361.304L253.341 344.957Z" fill="#314081"/>
<path d="M194.808 428.869V406.615L200.263 403.571V432.133L177.953 445.786V438.882L194.808 428.869Z" fill="#B5B3DA"/>
<path d="M189.016 409.841V433.014H187.824V410.501L189.016 409.841Z" fill="#B5B3DA"/>
<path d="M177.953 438.882L187.825 410.501V433.014L177.953 438.882Z" fill="#575AA4"/>
<path d="M189.107 432.133L194.808 406.615V428.869L189.107 432.133Z" fill="#575AA4"/>
<path d="M261.686 363.921L283.995 351.485V380.035L261.686 393.687V363.921Z" fill="#314081"/>
<path d="M278.541 376.783V354.516L283.995 351.485V380.035L261.686 393.687V386.796L278.541 376.783Z" fill="#B5B3DA"/>
<path d="M272.749 357.755V380.928H271.557V358.416L272.749 357.755Z" fill="#B5B3DA"/>
<path d="M261.686 386.797L271.558 358.416V380.929L261.686 386.797Z" fill="#575AA4"/>
<path d="M272.84 380.035L278.54 354.517V376.783L272.84 380.035Z" fill="#575AA4"/>
<path d="M219.684 396.187L247.292 380.112L247.396 396.9L219.735 414.555L219.684 396.187Z" fill="#314081"/>
<path d="M243.988 387.379L244.001 382.029L247.291 380.112L247.395 396.9L219.734 414.555L219.631 410.501L243.988 395.19V387.379Z" fill="#B5B3DA"/>
<path d="M237.251 385.955V399.802L235.812 400.398V386.797L237.251 385.955Z" fill="#B5B3DA"/>
<path d="M228.362 391.136V405.19L226.898 406.226V391.991L228.362 391.136Z" fill="#B5B3DA"/>
<path d="M219.734 410.437L226.899 391.991V405.942L219.734 410.437Z" fill="#353285"/>
<path d="M228.363 405.009L235.813 386.797V400.398L228.363 405.009Z" fill="#353285"/>
<path d="M237.25 399.426L244 382.029L243.987 395.19L237.25 399.426Z" fill="#353285"/>
<path d="M81.252 143.053L81.3685 170.812L109.78 186.239V160.967L81.252 143.053Z" fill="#262E60"/>
<path d="M96.9414 158.61V178.908L97.8872 179.608V159.206L96.9414 158.61Z" fill="#BBC8E8"/>
<path d="M106.787 164.646V184.789L107.694 185.113L107.629 164.646H106.787Z" fill="#BBC8E8"/>
<path d="M82.793 162.444L109.78 178.312V180.061L82.793 164.012V162.444Z" fill="#BBC8E8"/>
<path d="M96.9406 170.761L82.793 149.841L96.9406 158.61V170.761Z" fill="#314081"/>
<path d="M106.787 176.564L97.8867 159.206L106.787 164.724V176.564Z" fill="#314081"/>
<path d="M109.78 178.312L107.629 165.242L109.78 166.576V178.312Z" fill="#314081"/>
<path d="M109.78 186.24C109.729 185.994 107.682 178.805 107.682 178.805L109.78 180.048V186.227V186.24Z" fill="#314081"/>
<path d="M106.787 184.491L97.8867 173.066L106.787 178.287V184.491Z" fill="#314081"/>
<path d="M96.9406 178.727L82.793 164.012L96.9406 172.406V178.727Z" fill="#314081"/>
<path d="M82.793 149.84L109.78 166.576V160.967L82.793 143.882V149.84Z" fill="#22254C"/>
<path d="M86.9785 204.88V184.142L87.704 184.88V205.528L86.9785 204.88Z" fill="#BBC8E8"/>
<path d="M81.252 175.048L81.3685 202.807L109.767 218.234V192.962L81.252 175.048Z" fill="#262E60"/>
<path d="M96.9277 190.604V210.889L97.8865 211.589V191.2L96.9277 190.604Z" fill="#BBC8E8"/>
<path d="M106.787 196.642V216.771L107.681 217.095L107.629 196.642H106.787Z" fill="#BBC8E8"/>
<path d="M82.793 194.426L109.767 210.307V212.055L82.793 196.006V194.426Z" fill="#BBC8E8"/>
<path d="M109.767 220.799L81.2383 203.934L81.2512 175.048L82.7929 175.864V181.835V202.418L109.767 218.234V220.799Z" fill="#F1F1F1"/>
<path d="M96.9276 202.756L82.793 181.836L96.9276 190.605V202.756Z" fill="#314081"/>
<path d="M106.787 208.546L97.8867 191.201L106.787 196.706V208.546Z" fill="#314081"/>
<path d="M109.767 210.307L107.629 197.237L109.767 198.559V210.307Z" fill="#314081"/>
<path d="M109.767 218.234C109.715 217.988 107.668 210.799 107.668 210.799L109.767 212.042V218.221V218.234Z" fill="#314081"/>
<path d="M106.787 216.486L97.8867 205.048L106.787 210.268V216.486Z" fill="#314081"/>
<path d="M96.9276 210.709L82.793 196.007L96.9276 204.401V210.709Z" fill="#314081"/>
<path d="M82.793 181.836L109.767 198.559V192.963L82.793 175.864V181.836Z" fill="#22254C"/>
<path d="M109.78 188.805L81.2386 171.939L81.1738 176.072L109.767 192.963L109.78 188.805Z" fill="#BBC8E8"/>
<path d="M86.9785 236.719V215.968L87.704 216.706V237.354L86.9785 236.719Z" fill="#BBC8E8"/>
<path d="M81.252 206.874L81.3685 234.633L109.767 250.061V224.789L81.252 206.874Z" fill="#262E60"/>
<path d="M96.9277 222.432V242.73L97.8865 243.429V223.027L96.9277 222.432Z" fill="#BBC8E8"/>
<path d="M106.787 228.468V248.61L107.681 248.934L107.629 228.468H106.787Z" fill="#BBC8E8"/>
<path d="M82.793 226.266L109.767 242.134V243.882L82.793 227.833V226.266Z" fill="#BBC8E8"/>
<path d="M109.767 252.625L81.2383 235.76L81.2512 206.874L82.7929 207.703V213.662V234.257L109.767 250.061V252.625Z" fill="#F1F1F1"/>
<path d="M96.9276 234.582L82.793 213.662L96.9276 222.432V234.582Z" fill="#314081"/>
<path d="M106.787 240.385L97.8867 223.027L106.787 228.545V240.385Z" fill="#314081"/>
<path d="M109.767 242.133L107.629 229.063L109.767 230.398V242.133Z" fill="#314081"/>
<path d="M109.767 250.061C109.715 249.815 107.668 242.626 107.668 242.626L109.767 243.869V250.048V250.061Z" fill="#314081"/>
<path d="M106.787 248.313L97.8867 236.888L106.787 242.108V248.313Z" fill="#314081"/>
<path d="M96.9276 242.535L82.793 227.833L96.9276 236.227V242.535Z" fill="#314081"/>
<path d="M82.793 213.662L109.767 230.397V224.789L82.793 207.703V213.662Z" fill="#22254C"/>
<path d="M109.78 220.644L81.2386 203.766L81.1738 207.898L109.767 224.789L109.78 220.644Z" fill="#BBC8E8"/>
<path d="M86.9785 268.753V248.015L87.704 248.753V269.401L86.9785 268.753Z" fill="#BBC8E8"/>
<path d="M81.252 238.921L81.3685 266.68L109.767 282.107V256.835L81.252 238.921Z" fill="#262E60"/>
<path d="M96.9277 254.478V274.775L97.8865 275.462V255.073L96.9277 254.478Z" fill="#BBC8E8"/>
<path d="M106.787 260.515V280.644L107.681 280.981L107.629 260.515H106.787Z" fill="#BBC8E8"/>
<path d="M82.793 258.299L109.767 274.18V275.928L82.793 259.879V258.299Z" fill="#BBC8E8"/>
<path d="M109.767 284.672L81.2383 267.807L81.2512 238.921L82.7929 239.737V245.708V266.304L109.767 282.107V284.672Z" fill="#F1F1F1"/>
<path d="M96.9276 266.629L82.793 245.709L96.9276 254.478V266.629Z" fill="#314081"/>
<path d="M106.787 272.419L97.8867 255.074L106.787 260.579V272.419Z" fill="#314081"/>
<path d="M109.767 274.18L107.629 261.11L109.767 262.432V274.18Z" fill="#314081"/>
<path d="M109.767 282.107C109.715 281.861 107.668 274.672 107.668 274.672L109.767 275.915V282.094V282.107Z" fill="#314081"/>
<path d="M106.787 280.358L97.8867 268.934L106.787 274.154V280.358Z" fill="#314081"/>
<path d="M96.9276 274.582L82.793 259.88L96.9276 268.274V274.582Z" fill="#314081"/>
<path d="M82.793 245.709L109.767 262.432V256.836L82.793 239.737V245.709Z" fill="#22254C"/>
<path d="M109.78 252.691L81.2386 235.812L81.1738 239.945L109.767 256.836L109.78 252.691Z" fill="#BBC8E8"/>
<path d="M86.9785 300.825V280.087L87.704 280.825V301.473L86.9785 300.825Z" fill="#BBC8E8"/>
<path d="M81.252 270.993L81.3685 298.752L109.767 314.18V288.908L81.252 270.993Z" fill="#262E60"/>
<path d="M96.9277 286.551V306.849L97.8865 307.548V287.147L96.9277 286.551Z" fill="#BBC8E8"/>
<path d="M106.787 292.587V312.729L107.681 313.053L107.629 292.587H106.787Z" fill="#BBC8E8"/>
<path d="M82.793 290.372L109.767 306.253V308.002L82.793 291.952V290.372Z" fill="#BBC8E8"/>
<path d="M109.767 316.744L81.2383 299.879L81.2512 270.993L82.7929 271.822V277.781V298.377L109.767 314.18V316.744Z" fill="#F1F1F1"/>
<path d="M96.9276 298.701L82.793 277.781L96.9276 286.551V298.701Z" fill="#314081"/>
<path d="M106.787 304.504L97.8867 287.146L106.787 292.652V304.504Z" fill="#314081"/>
<path d="M109.767 306.253L107.629 293.183L109.767 294.504V306.253Z" fill="#314081"/>
<path d="M109.767 314.18C109.715 313.934 107.668 306.745 107.668 306.745L109.767 307.989V314.167V314.18Z" fill="#314081"/>
<path d="M106.787 312.432L97.8867 301.007L106.787 306.227V312.432Z" fill="#314081"/>
<path d="M96.9276 306.654L82.793 291.952L96.9276 300.346V306.654Z" fill="#314081"/>
<path d="M82.793 277.781L109.767 294.504V288.908L82.793 271.822V277.781Z" fill="#22254C"/>
<path d="M109.78 284.763L81.2386 267.885L81.1738 272.017L109.767 288.908L109.78 284.763Z" fill="#BBC8E8"/>
<path d="M86.9785 332.937V312.198L87.704 312.937V333.584L86.9785 332.937Z" fill="#BBC8E8"/>
<path d="M81.252 303.104L81.3685 330.864L109.767 346.291V321.019L81.252 303.104Z" fill="#262E60"/>
<path d="M96.9277 318.662V338.947L97.8865 339.647V319.258L96.9277 318.662Z" fill="#BBC8E8"/>
<path d="M106.787 324.698V344.828L107.681 345.152L107.629 324.698H106.787Z" fill="#BBC8E8"/>
<path d="M82.793 322.483L109.767 338.364V340.113L82.793 324.064V322.483Z" fill="#BBC8E8"/>
<path d="M109.767 348.856L81.2383 331.99L81.2512 303.104L82.7929 303.921V309.892V330.488L109.767 346.291V348.856Z" fill="#F1F1F1"/>
<path d="M96.9276 330.812L82.793 309.893L96.9276 318.662V330.812Z" fill="#314081"/>
<path d="M106.787 336.602L97.8867 319.258L106.787 324.763V336.602Z" fill="#314081"/>
<path d="M109.767 338.364L107.629 325.294L109.767 326.615V338.364Z" fill="#314081"/>
<path d="M109.767 346.292C109.715 346.046 107.668 338.856 107.668 338.856L109.767 340.1V346.279V346.292Z" fill="#314081"/>
<path d="M106.787 344.543L97.8867 333.118L106.787 338.338V344.543Z" fill="#314081"/>
<path d="M96.9276 338.766L82.793 324.063L96.9276 332.457V338.766Z" fill="#314081"/>
<path d="M82.793 309.892L109.767 326.615V321.019L82.793 303.921V309.892Z" fill="#22254C"/>
<path d="M109.78 316.861L81.2386 299.996L81.1738 304.128L109.767 321.019L109.78 316.861Z" fill="#BBC8E8"/>
<path d="M109.78 188.804L81.2383 171.939L81.2512 143.053L82.7929 143.882V149.84V170.436L109.78 186.239V188.804Z" fill="#F1F1F1"/>
<path d="M42.0078 144.4V123.662L42.7333 124.4V145.048L42.0078 144.4Z" fill="#BBC8E8"/>
<path d="M51.959 130.126V150.411L52.9177 151.11V130.722L51.959 130.126Z" fill="#BBC8E8"/>
<path d="M61.8184 136.162V156.292L62.7123 156.615L62.6605 136.162H61.8184Z" fill="#BBC8E8"/>
<path d="M37.8242 133.947L64.798 149.828V151.577L37.8242 135.528V133.947Z" fill="#BBC8E8"/>
<path d="M51.9588 142.276L42.7344 124.4L51.9588 130.126V142.276Z" fill="#314081"/>
<path d="M61.8186 148.066L52.918 130.722L61.8186 136.227V148.066Z" fill="#314081"/>
<path d="M64.7978 149.828L62.6602 136.758L64.7978 138.079V149.828Z" fill="#314081"/>
<path d="M64.798 157.756C64.7462 157.509 62.6992 150.32 62.6992 150.32L64.798 151.564V157.743V157.756Z" fill="#314081"/>
<path d="M61.8186 156.007L52.918 144.582L61.8186 149.802V156.007Z" fill="#314081"/>
<path d="M51.9588 150.229L42.7344 138.441L51.9588 143.921V150.229Z" fill="#314081"/>
<path d="M37.8242 121.356L64.798 138.079V132.483L37.8242 115.385V121.356Z" fill="#22254C"/>
<path d="M37.8242 121.356L42.0089 136.421V123.96L37.8242 121.356Z" fill="#314081"/>
<path d="M42.0089 144.4L37.8242 135.527L42.0089 138.014V144.4Z" fill="#314081"/>
<path d="M64.7979 160.32L36.2695 143.454L36.2825 114.568L37.8242 115.384V121.356V141.952L64.7979 157.755V160.32Z" fill="#F1F1F1"/>
<path d="M36.2812 146.33L36.3978 174.089L64.7967 189.517V164.245L36.2812 146.33Z" fill="#262E60"/>
<path d="M42.0078 176.175V155.437L42.7333 156.175V176.81L42.0078 176.175Z" fill="#BBC8E8"/>
<path d="M51.959 161.888V182.186L52.9177 182.885V162.484L51.959 161.888Z" fill="#BBC8E8"/>
<path d="M61.8184 167.924V188.066L62.7123 188.39L62.6605 167.924H61.8184Z" fill="#BBC8E8"/>
<path d="M37.8242 165.722L64.798 181.59V183.338L37.8242 167.289V165.722Z" fill="#BBC8E8"/>
<path d="M51.9588 174.038L42.7344 156.175L51.9588 161.887V174.038Z" fill="#314081"/>
<path d="M61.8186 179.841L52.918 162.483L61.8186 168.002V179.841Z" fill="#314081"/>
<path d="M64.7978 181.589L62.6602 168.52L64.7978 169.854V181.589Z" fill="#314081"/>
<path d="M64.798 189.517C64.7462 189.271 62.6992 182.082 62.6992 182.082L64.798 183.326V189.504V189.517Z" fill="#314081"/>
<path d="M61.8186 187.769L52.918 176.344L61.8186 181.564V187.769Z" fill="#314081"/>
<path d="M51.9588 181.991L42.7344 170.203L51.9588 175.682V181.991Z" fill="#314081"/>
<path d="M37.8242 153.118L64.798 169.853V164.245L37.8242 147.159V153.118Z" fill="#22254C"/>
<path d="M37.8242 153.118L42.0089 168.183V155.722L37.8242 153.118Z" fill="#314081"/>
<path d="M42.0089 176.175L37.8242 167.289L42.0089 169.789V176.175Z" fill="#314081"/>
<path d="M64.7979 192.081L36.2695 175.216L36.2825 146.33L37.8242 147.159V153.118V173.713L64.7979 189.517V192.081Z" fill="#F1F1F1"/>
<path d="M64.7976 160.32L36.2692 143.455L36.1914 147.574L64.7976 164.465V160.32Z" fill="#BBC8E8"/>
<path d="M36.1777 177.885L36.2943 205.631L64.6932 221.071V195.799L36.1777 177.885Z" fill="#262E60"/>
<path d="M41.9043 207.716V186.978L42.6298 187.716V208.364L41.9043 207.716Z" fill="#BBC8E8"/>
<path d="M51.8555 193.441V213.726L52.8142 214.426V194.024L51.8555 193.441Z" fill="#BBC8E8"/>
<path d="M61.7148 199.478V219.607L62.6088 219.931L62.557 199.478H61.7148Z" fill="#BBC8E8"/>
<path d="M37.7207 197.263L64.6944 213.144V214.879L37.7207 198.843V197.263Z" fill="#BBC8E8"/>
<path d="M51.8553 205.591L42.6309 187.716L51.8553 193.441V205.591Z" fill="#314081"/>
<path d="M61.7131 211.382L52.8125 194.024L61.7131 199.543V211.382Z" fill="#314081"/>
<path d="M64.6943 213.144L62.5566 200.074L64.6943 201.395V213.144Z" fill="#314081"/>
<path d="M64.6945 221.071C64.6427 220.825 62.5957 213.636 62.5957 213.636L64.6945 214.879V221.058V221.071Z" fill="#314081"/>
<path d="M61.7131 219.323L52.8125 207.885L61.7131 213.105V219.323Z" fill="#314081"/>
<path d="M51.8553 213.545L42.6309 201.758L51.8553 207.237V213.545Z" fill="#314081"/>
<path d="M37.7207 184.673L64.6944 201.395V195.8L37.7207 178.701V184.673Z" fill="#22254C"/>
<path d="M37.7207 184.672L41.9054 199.737V187.276L37.7207 184.672Z" fill="#314081"/>
<path d="M41.9054 207.716L37.7207 198.843L41.9054 201.33V207.716Z" fill="#314081"/>
<path d="M64.6944 223.636L36.166 206.758L36.179 177.885L37.7207 178.701V184.672V205.255L64.6944 221.071V223.636Z" fill="#F1F1F1"/>
<path d="M64.694 191.861L36.1656 174.996L36.0879 179.128L64.694 196.019V191.861Z" fill="#BBC8E8"/>
<path d="M36.1777 209.686L36.2943 237.445L64.6932 252.872V227.6L36.1777 209.686Z" fill="#262E60"/>
<path d="M41.9043 239.517V218.778L42.6298 219.517V240.164L41.9043 239.517Z" fill="#BBC8E8"/>
<path d="M51.8555 225.242V245.527L52.8142 246.227V225.838L51.8555 225.242Z" fill="#BBC8E8"/>
<path d="M61.7148 231.278V251.408L62.6088 251.732L62.557 231.278H61.7148Z" fill="#BBC8E8"/>
<path d="M37.7207 229.063L64.6944 244.944V246.693L37.7207 230.644V229.063Z" fill="#BBC8E8"/>
<path d="M51.8553 237.392L42.6309 219.517L51.8553 225.242V237.392Z" fill="#314081"/>
<path d="M61.7131 243.182L52.8125 225.838L61.7131 231.343V243.182Z" fill="#314081"/>
<path d="M64.6943 244.944L62.5566 231.874L64.6943 233.195V244.944Z" fill="#314081"/>
<path d="M64.6945 252.872C64.6427 252.626 62.5957 245.437 62.5957 245.437L64.6945 246.68V252.859V252.872Z" fill="#314081"/>
<path d="M61.7131 251.123L52.8125 239.686L61.7131 244.906V251.123Z" fill="#314081"/>
<path d="M51.8553 245.346L42.6309 233.559L51.8553 239.038V245.346Z" fill="#314081"/>
<path d="M37.7207 216.472L64.6944 233.195V227.599L37.7207 210.501V216.472Z" fill="#22254C"/>
<path d="M37.7207 216.473L41.9054 231.537V219.076L37.7207 216.473Z" fill="#314081"/>
<path d="M41.9054 239.517L37.7207 230.644L41.9054 233.131V239.517Z" fill="#314081"/>
<path d="M64.6944 255.437L36.166 238.572L36.179 209.686L37.7207 210.502V216.473V237.056L64.6944 252.872V255.437Z" fill="#F1F1F1"/>
<path d="M64.694 223.675L36.1656 206.797L36.0879 210.929L64.694 227.82V223.675Z" fill="#BBC8E8"/>
<path d="M36.1777 241.291L36.2943 269.05L64.6932 284.478V259.206L36.1777 241.291Z" fill="#262E60"/>
<path d="M41.9043 271.123V250.385L42.6298 251.123V271.771L41.9043 271.123Z" fill="#BBC8E8"/>
<path d="M51.8555 256.849V277.134L52.8142 277.833V257.444L51.8555 256.849Z" fill="#BBC8E8"/>
<path d="M61.7148 262.885V283.014L62.6088 283.351L62.557 262.885H61.7148Z" fill="#BBC8E8"/>
<path d="M37.7207 260.67L64.6944 276.551V278.299L37.7207 262.25V260.67Z" fill="#BBC8E8"/>
<path d="M51.8553 268.999L42.6309 251.123L51.8553 256.848V268.999Z" fill="#314081"/>
<path d="M61.7131 274.789L52.8125 257.444L61.7131 262.95V274.789Z" fill="#314081"/>
<path d="M64.6943 276.55L62.5566 263.48L64.6943 264.802V276.55Z" fill="#314081"/>
<path d="M64.6945 284.478C64.6427 284.232 62.5957 277.043 62.5957 277.043L64.6945 278.286V284.465V284.478Z" fill="#314081"/>
<path d="M61.7131 282.73L52.8125 271.305L61.7131 276.525V282.73Z" fill="#314081"/>
<path d="M51.8553 276.952L42.6309 265.164L51.8553 270.643V276.952Z" fill="#314081"/>
<path d="M37.7207 248.079L64.6944 264.802V259.206L37.7207 242.107V248.079Z" fill="#22254C"/>
<path d="M37.7207 248.079L41.9054 263.144V250.683L37.7207 248.079Z" fill="#314081"/>
<path d="M41.9054 271.123L37.7207 262.25L41.9054 264.75V271.123Z" fill="#314081"/>
<path d="M64.6944 287.042L36.166 270.177L36.179 241.291L37.7207 242.107V248.079V268.674L64.6944 284.478V287.042Z" fill="#F1F1F1"/>
<path d="M64.694 255.281L36.1656 238.402L36.0879 242.534L64.694 259.426V255.281Z" fill="#BBC8E8"/>
<path d="M36.1777 273.015L36.2943 300.774L64.6932 316.201V290.929L36.1777 273.015Z" fill="#262E60"/>
<path d="M41.9043 302.846V282.107L42.6298 282.846V303.493L41.9043 302.846Z" fill="#BBC8E8"/>
<path d="M51.8555 288.571V308.856L52.8142 309.556V289.167L51.8555 288.571Z" fill="#BBC8E8"/>
<path d="M61.7148 294.607V314.737L62.6088 315.061L62.557 294.607H61.7148Z" fill="#BBC8E8"/>
<path d="M37.7207 292.393L64.6944 308.273V310.022L37.7207 293.973V292.393Z" fill="#BBC8E8"/>
<path d="M51.8553 300.721L42.6309 282.846L51.8553 288.571V300.721Z" fill="#314081"/>
<path d="M61.7131 306.512L52.8125 289.167L61.7131 294.672V306.512Z" fill="#314081"/>
<path d="M64.6943 308.273L62.5566 295.203L64.6943 296.524V308.273Z" fill="#314081"/>
<path d="M64.6945 316.201C64.6427 315.955 62.5957 308.766 62.5957 308.766L64.6945 310.009V316.188V316.201Z" fill="#314081"/>
<path d="M61.7131 314.452L52.8125 303.015L61.7131 308.235V314.452Z" fill="#314081"/>
<path d="M51.8553 308.675L42.6309 296.888L51.8553 302.367V308.675Z" fill="#314081"/>
<path d="M37.7207 279.802L64.6944 296.524V290.929L37.7207 273.83V279.802Z" fill="#22254C"/>
<path d="M37.7207 279.802L41.9054 294.866V282.405L37.7207 279.802Z" fill="#314081"/>
<path d="M41.9054 302.846L37.7207 293.973L41.9054 296.46V302.846Z" fill="#314081"/>
<path d="M64.6944 318.766L36.166 301.901L36.179 273.015L37.7207 273.831V279.802V300.385L64.6944 316.201V318.766Z" fill="#F1F1F1"/>
<path d="M64.694 287.004L36.1656 270.126L36.0879 274.258L64.694 291.149V287.004Z" fill="#BBC8E8"/>
<path d="M81.1738 336.11L109.689 353.014V368.934L81.2386 351.965L81.1738 336.11Z" fill="#22254C"/>
<path d="M85.8509 349.375L81.2386 351.965L81.1738 336.11L85.8509 338.882V349.375Z" fill="#313989"/>
<path d="M109.689 368.934L81.2383 351.965L85.8505 349.374L109.689 363.26V368.934Z" fill="#BBC8E8"/>
<path d="M97.0701 345.527V355.994L95.7227 355.359V344.737L97.0701 345.527Z" fill="#BBC8E8"/>
<path d="M85.8496 338.882L95.7218 355.125V344.737L85.8496 338.882Z" fill="#314081"/>
<path d="M97.0703 345.527L109.689 363.261V353.014L97.0703 345.527Z" fill="#314081"/>
<path d="M34.8828 308.015L63.3983 324.919V340.838L34.9476 323.87L34.8828 308.015Z" fill="#22254C"/>
<path d="M39.5728 321.279L34.9476 323.87L34.8828 308.015L39.5728 310.787V321.279Z" fill="#313989"/>
<path d="M63.398 340.838L34.9473 323.869L39.5725 321.278L63.398 335.177V340.838Z" fill="#BBC8E8"/>
<path d="M50.779 317.445V327.911L49.4316 327.263V316.642L50.779 317.445Z" fill="#BBC8E8"/>
<path d="M39.5723 310.786L49.4315 327.03V316.641L39.5723 310.786Z" fill="#314081"/>
<path d="M50.7793 317.444L63.3981 335.177V324.918L50.7793 317.444Z" fill="#314081"/>
<path d="M162.133 406.874V402.224L144.021 391.822L144.241 375.41L140.834 373.402L141.132 393.61L162.133 406.874Z" fill="#B5B3DA"/>
<path d="M169.958 391.175L129.809 367.703L130.418 366.576L170.606 390.074L169.958 391.175Z" fill="#314081"/>
<path d="M169.881 411.46L129.109 387.47L129.356 386.136L169.881 409.827V411.46Z" fill="#314081"/>
<path d="M84.6074 369.75L115.286 388.519V409.297L84.6074 391.538V369.75Z" fill="#262E60"/>
<path d="M115.286 391.266L87.3411 373.934V393.118L84.6074 393.144V369.75L115.286 388.519V391.266Z" fill="#22254C"/>
<path d="M105.828 405.476V382.73L104.299 381.797V404.582L105.828 405.476Z" fill="#BBC8E8"/>
<path d="M95.011 399.18V376.11L93.0547 374.905V398.001L95.011 399.18Z" fill="#BBC8E8"/>
<path d="M115.286 410.968L84.6074 393.144L87.3411 391.836L115.286 408.248V410.968Z" fill="#BBC8E8"/>
<path d="M93.0533 377.47L87.3398 391.835L93.0533 395.177V377.47Z" fill="#2C4698"/>
<path d="M104.299 384.374L95.0098 396.33L104.454 401.874L104.299 384.374Z" fill="#2C4698"/>
<path d="M115.287 391.266L105.842 402.729L115.287 408.248V391.266Z" fill="#2C4698"/>
<path d="M36.6582 340.476L67.3373 359.245V380.553L36.6582 362.937V340.476Z" fill="#262E60"/>
<path d="M67.3373 361.991L39.3918 344.659V363.261L36.6582 363.869V340.476L67.3373 359.245V361.991Z" fill="#22254C"/>
<path d="M57.8784 376.201V353.455L56.3496 352.522V375.32L57.8784 376.201Z" fill="#BBC8E8"/>
<path d="M47.061 369.918V346.836L45.0918 345.631V368.727L47.061 369.918Z" fill="#BBC8E8"/>
<path d="M67.3373 381.706L36.6582 363.869L39.3918 362.561L67.3373 378.972V381.706Z" fill="#BBC8E8"/>
<path d="M45.0912 348.195L39.3906 362.561L45.0912 365.903V348.195Z" fill="#2C4698"/>
<path d="M56.3498 355.1L47.0605 367.056L56.5053 372.613L56.3498 355.1Z" fill="#2C4698"/>
<path d="M67.3373 361.991L57.8926 373.455L67.3373 378.973V361.991Z" fill="#2C4698"/>
<path d="M29.144 356.589L11.291 345.216L11.576 324.31L29.9213 335.281L29.144 356.589Z" fill="#314081"/>
<path d="M29.4034 359.426V355.488L11.2913 345.216L11.5763 324.31L8.11719 322.25V347.664L29.4034 359.426Z" fill="#B5B3DA"/>
<path d="M29.92 335.281L19.3223 349.776L29.4018 355.489L29.92 335.281Z" fill="#575AA4"/>
<path d="M19.8547 329.258L11.291 345.216L19.3235 349.776L19.8547 329.258Z" fill="#575AA4"/>
<path d="M215.277 104.594L245.309 102.975L235.864 88.3506L215.277 104.594Z" fill="#F1F1F1"/>
<path d="M83.4414 79.1539L105.505 72.6124L87.95 62.2627L83.4414 79.1539Z" fill="#F1F1F1"/>
<path d="M30.5556 73.3773L98.4563 38.2996L102.563 40.2426L137 21.3048L125.987 15.3203L91.4084 29.8281L75.6802 36.8099L28.1588 59.3877L17.3926 66.5379L30.5556 73.3773Z" fill="#F1F1F1"/>
<path d="M55.7165 105.437L70.4082 97.4965L47.658 84.1934L28.7168 93.5846L55.7165 105.437Z" fill="#F1F1F1"/>
<path d="M110.906 90.1778L151.833 113.338L233.493 79.9058L186.257 54.6338L110.906 90.1778Z" fill="#F1F1F1"/>
<path d="M109.715 151.978L109.832 162.405L24.376 113.39L24.1816 102.69L109.715 151.978Z" fill="#BBC8E8"/>
<path d="M24.1816 102.69V97.3662L109.702 146.084L109.715 151.978L24.1816 102.69Z" fill="#F1F1F1"/>
<path d="M24.1816 94.1416V97.367L109.702 146.085V143.054L24.1816 94.1416Z" fill="#313989"/>
<path d="M293.257 93.1179L129.964 0.19043L95.5147 18.1827L90.5786 14.6852L1.97461 59.8925L43.9122 83.7267L24.1806 94.1412L109.701 143.066L130.417 132.639L170.671 156.317L207.296 137.328L220.135 144.335L269.315 119.983L256.191 112.328L293.257 93.1179ZM260.233 119.737L220.135 139.335L204.64 130.203L168.922 148.247L131.557 125.19L109.468 136.758L34.7136 93.1827L53.3698 83.7915L12.1837 60.5013L89.9826 20.6827L95.7738 24.1671L130.288 5.4754L280.405 90.1775L243.624 109.97L260.233 119.737Z" fill="#F1F1F1"/>
<path d="M109.701 143.053L130.417 132.639V152.354L109.831 162.406L109.701 143.053Z" fill="#262E60"/>
<path d="M169.946 155.89L130.418 132.639V135.45L169.946 158.584V155.89Z" fill="#313989"/>
<path d="M169.894 160.967L130.418 137.548V135.449L169.946 158.584L169.894 160.967Z" fill="#F1F1F1"/>
<path d="M130.418 152.354V137.548L169.894 160.968L169.946 174.53L130.418 152.354Z" fill="#313989"/>
<path d="M169.945 155.89L207.297 137.328V140.256L169.945 158.585V155.89Z" fill="#313989"/>
<path d="M169.895 160.967L207.298 142.224V140.255L169.946 158.584L169.895 160.967Z" fill="#F1F1F1"/>
<path d="M169.895 160.967L207.298 142.224L206.766 156.045L169.946 174.529L169.895 160.967Z" fill="#313989"/>
<path d="M207.297 137.328L220.136 144.336V162.743L206.766 156.046L207.297 137.328Z" fill="#313989"/>
<path d="M269.317 119.983L220.137 144.336V162.742L269.317 137.509V119.983Z" fill="#262E60"/>
<path d="M243.625 109.97V119.983L250.595 124.452L260.234 119.737L243.625 109.97Z" fill="#262E60"/>
<path d="M130.289 5.47559V18.1828L267.749 96.9911L280.407 90.1777L130.289 5.47559Z" fill="#262E60"/>
<path d="M130.289 5.47559V18.1828L95.7754 37.1466V24.1673L130.289 5.47559Z" fill="#22254C"/>
<path d="M256.191 112.328L293.258 93.1182V107.341L269.315 119.983L256.191 112.328Z" fill="#22254C"/>
<path d="M89.9824 20.6826L95.7736 24.1671V37.1463L89.9824 33.3122V20.6826Z" fill="#262E60"/>
<path d="M12.1836 60.5013L89.9825 20.6826V33.3122L24.3879 67.4443L12.1836 60.5013Z" fill="#22254C"/>
<path d="M53.371 83.791V97.3661L47.243 100.475L34.7148 93.1822L53.371 83.791Z" fill="#22254C"/>
<path d="M43.9122 83.7268L1.97461 59.8926V79.4651L25.0357 92.4703L43.9122 83.7268Z" fill="#262E60"/>
<path d="M110.919 48.5713L151.833 72.0039V113.338L110.906 90.1775L110.919 48.5713Z" fill="#BBC8E8"/>
<path d="M210.99 81.9649L151.834 113.338V72.0038L210.744 42.1074L210.99 81.9649Z" fill="#262E60"/>
<path d="M170.399 19.5947L110.92 48.5844L151.834 72.004L210.743 42.1077L170.399 19.5947ZM119.872 47.8072L169.894 23.131L202.607 41.5248L151.834 66.5377L119.872 47.8072Z" fill="#F1F1F1"/>
<path d="M202.608 41.5246L151.835 66.5376L119.873 47.807L169.895 23.1309L202.608 41.5246Z" fill="#BBC8E8"/>
<path d="M169.895 23.1309V26.9262L122.581 49.3873L119.873 47.807L169.895 23.1309Z" fill="#22254C"/>
<path d="M169.895 23.1309L202.608 41.5246L199.006 43.2993L169.895 26.9262V23.1309Z" fill="#262E60"/>
<path d="M140.965 35.7471L149.93 40.8896V49.931L140.965 44.8662V35.7471Z" fill="#D8E0F3"/>
<path d="M162.885 43.0665L149.93 49.9318V40.8903L162.834 34.3359L162.885 43.0665Z" fill="#262E60"/>
<path d="M153.998 29.4006L140.965 35.7478L149.93 40.8773L162.834 34.3229L153.998 29.3877V29.4006ZM142.921 35.5794L153.882 30.1778L161.046 34.2063L149.93 39.6856L142.934 35.5794H142.921Z" fill="#F1F1F1"/>
<path d="M161.045 34.2062L149.929 39.6855L142.92 35.5793L153.88 30.1777L161.045 34.2062Z" fill="#BBC8E8"/>
<path d="M153.88 30.1777V31.0068L143.516 35.929L142.92 35.5793L153.88 30.1777Z" fill="#22254C"/>
<path d="M153.881 30.1777L161.045 34.2062L160.255 34.5948L153.881 31.0068V30.1777Z" fill="#262E60"/>
<path d="M144.889 55.0346L175.736 39.6719L180.115 42.133L149.915 57.4957L144.889 55.0346Z" fill="#262E60"/>
<path d="M150.551 58.2084L181.398 42.8457L185.777 45.3068L155.578 60.6695L150.551 58.2084Z" fill="#262E60"/>
<path d="M240.568 91.9001C240.477 90.4623 239.946 89.154 239.298 87.8846C238.08 85.4493 236.461 83.2731 234.673 81.2265C234.284 80.7731 233.869 80.3327 233.494 79.9053C232.911 79.2447 231.913 78.2343 231.252 77.6773C230.048 76.6669 228.869 75.6177 227.638 74.6592C225.863 73.2991 223.958 72.1203 221.86 71.3172C220.94 70.9545 219.981 70.7084 218.97 70.7343C217.545 70.7731 216.561 71.5762 216.327 72.9493C216.25 73.4027 216.327 73.869 216.327 74.3353C216.327 74.4519 216.327 74.6073 216.263 74.698C215.589 75.7084 215.317 76.8353 215.291 78.04C215.239 79.8276 215.706 81.4985 216.379 83.1307C216.483 83.3768 216.69 83.6358 216.651 83.8561C216.613 84.0763 216.327 84.2447 216.146 84.439C215.485 85.1125 215.485 86.0581 216.146 86.7317C216.522 87.0944 216.885 87.4571 217.247 87.8198C217.493 88.0789 217.753 88.325 217.999 88.5711C219.566 87.1592 221.691 87.3923 222.922 88.584C224.127 89.7369 224.528 91.9001 223.013 93.6229C223.505 94.1022 223.984 94.5685 224.451 95.0348C224.541 95.1255 224.632 95.2032 224.723 95.2939C225.319 95.799 226.2 95.7861 226.783 95.255C226.951 95.1125 227.107 94.9571 227.249 94.8016C227.379 94.6333 227.508 94.6203 227.703 94.711C229.141 95.3716 230.631 95.8509 232.211 95.9934C233.779 96.1229 235.282 95.9286 236.629 95.0348C236.694 94.9959 236.785 94.983 236.862 94.983C237.031 94.9959 237.212 95.0089 237.393 95.0348C237.562 95.0607 238.197 95.0348 238.339 94.983C239.052 94.7369 239.959 94.141 240.464 93.2213C240.516 93.1177 240.555 93.0011 240.555 92.8845C240.593 92.5218 240.606 92.2239 240.581 91.9001H240.568ZM239.233 92.6255C238.935 93.4027 237.51 93.7395 237.38 93.7136C236.94 93.6359 236.487 93.584 236.059 93.4545C234.375 92.9364 232.859 92.0814 231.421 91.097C227.573 88.4934 224.282 85.3068 221.445 81.6281C220.085 79.8535 218.867 77.9882 218.064 75.8897C217.74 75.0348 217.468 74.154 217.584 73.2213C217.649 72.5737 218.025 72.1592 218.66 72.0685C218.983 72.0167 219.32 72.0167 219.644 72.0555C220.823 72.198 221.898 72.6643 222.935 73.1954C225.293 74.4001 227.392 75.9675 229.374 77.7032C229.763 78.0529 232.185 80.4364 232.561 80.7731C232.587 80.7991 232.613 80.8379 232.639 80.8768C233.623 82.0426 234.634 83.1695 235.567 84.3742C236.836 86.0063 237.938 87.755 238.715 89.6851C239.078 90.6177 239.389 91.5763 239.233 92.6255Z" fill="#1F1C3D"/>
<path d="M239.233 92.626C238.935 93.4032 237.51 93.74 237.38 93.7141C236.94 93.6363 236.487 93.5845 236.059 93.455C234.375 92.9368 232.859 92.0819 231.421 91.0975C227.573 88.4938 224.282 85.3073 221.445 81.6286C220.085 79.854 218.867 77.9887 218.063 75.8902C217.74 75.0353 217.468 74.1545 217.584 73.2218C217.649 72.5742 218.025 72.1596 218.659 72.069C218.983 72.0172 219.32 72.0172 219.644 72.056C220.823 72.1985 221.898 72.6648 222.935 73.1959C225.293 74.4006 227.392 75.9679 229.374 77.7037C229.762 78.0534 232.185 80.4368 232.561 80.7736C232.587 80.7995 232.613 80.8384 232.639 80.8773C233.623 82.0431 234.634 83.17 235.567 84.3747C236.836 86.0068 237.938 87.7555 238.715 89.6856C239.078 90.6182 239.389 91.5767 239.233 92.626Z" fill="#4B4A9A"/>
<path d="M215.277 104.594V103.39H216.897C216.897 103.247 216.897 103.131 216.897 103.027C216.897 101.395 216.897 99.7498 216.897 98.1176C216.897 97.8456 216.962 97.742 217.247 97.7679C217.506 97.7938 217.778 97.7679 218.037 97.7679C218.257 97.7809 218.322 97.6902 218.361 97.4829C218.633 96.2653 218.918 95.0477 219.216 93.8301C219.281 93.584 219.242 93.4415 219.009 93.286C218.102 92.6902 217.687 91.641 217.907 90.5788C218.128 89.5555 218.931 88.7524 219.928 88.571C221.03 88.3638 222.066 88.8042 222.649 89.7109C223.414 90.9026 223.077 92.5218 221.885 93.299C221.665 93.4415 221.626 93.584 221.69 93.8301C221.988 95.0607 222.273 96.2783 222.558 97.5088C222.597 97.7031 222.675 97.7809 222.882 97.7679C223.167 97.7549 223.452 97.7679 223.724 97.7679C223.958 97.7549 224.022 97.8197 224.022 98.0658C224.022 99.672 224.022 101.265 224.022 102.872C224.022 103.027 224.022 103.182 224.022 103.377H225.629V104.607H215.277V104.594Z" fill="#1F1C3D"/>
<path d="M239.452 85.579C239.323 85.3717 239.193 85.1515 239.051 84.9443C238.701 84.4261 238.338 83.908 237.988 83.3769C237.911 83.2603 237.846 83.1308 237.833 82.9883C237.639 80.7733 237.444 78.5453 237.25 76.3173C237.211 75.9287 237.12 75.7733 236.758 75.6826C236.68 75.6567 236.563 75.7474 236.485 75.8122C234.892 77.4054 233.298 78.9857 231.705 80.579C230.085 82.1982 228.453 83.8303 226.833 85.4495C226.782 85.5013 226.743 85.5401 226.678 85.592C226.354 85.2422 226.043 84.9054 225.719 84.5686C228.997 81.2914 232.327 77.9624 235.656 74.6464C235.566 74.465 235.501 74.3096 235.41 74.193C235.358 74.1282 235.255 74.0634 235.164 74.0505C233.557 73.908 231.964 73.7785 230.357 73.636C229.658 73.5712 228.945 73.5194 228.246 73.4546C228.168 73.4546 228.09 73.4287 228.038 73.3899C227.274 72.8717 226.497 72.3406 225.693 71.7837C226.212 71.8225 226.691 71.8743 227.17 71.9132C229.528 72.1205 231.899 72.3148 234.257 72.522C234.749 72.5609 235.255 72.6256 235.747 72.6515C235.902 72.6515 236.084 72.6127 236.213 72.522C236.654 72.2111 237.068 71.8873 237.496 71.5634C237.936 71.2267 238.416 71.2137 238.83 71.5764C239.141 71.8355 239.426 72.1334 239.685 72.4313C240.061 72.8588 240.048 73.3251 239.698 73.7914C239.375 74.2189 239.038 74.6463 238.727 75.0738C238.649 75.1904 238.597 75.3458 238.61 75.4754C238.856 78.4806 239.115 81.4728 239.375 84.478C239.4 84.8277 239.439 85.1774 239.465 85.5272C239.452 85.5272 239.439 85.5272 239.426 85.5401L239.452 85.579Z" fill="#1F1C3D"/>
<path d="M239.571 64.2832C239.674 64.3091 239.856 64.348 240.037 64.4127C243.47 65.6174 245.777 67.949 246.943 71.3816C246.968 71.4723 246.994 71.563 247.02 71.6537C247.111 72.0552 246.904 72.4309 246.541 72.5215C246.139 72.6252 245.789 72.4309 245.66 72.0293C245.388 71.1485 245.025 70.3195 244.52 69.5552C243.25 67.6511 241.527 66.3557 239.338 65.6951C238.936 65.5785 238.742 65.2806 238.793 64.892C238.845 64.5423 239.143 64.2961 239.584 64.2961L239.571 64.2832Z" fill="#1F1C3D"/>
<path d="M242.743 73.3124C242.419 73.3124 242.186 73.1439 242.044 72.7683C241.759 71.9781 241.331 71.2787 240.748 70.6699C240.113 70.0092 239.349 69.5429 238.481 69.245C238.196 69.1413 238.028 68.9341 238.002 68.6362C237.976 68.3512 238.092 68.118 238.338 67.9626C238.559 67.8201 238.792 67.8331 239.038 67.9237C240.722 68.5326 242.018 69.6206 242.886 71.188C243.093 71.5766 243.275 71.9781 243.417 72.4056C243.573 72.859 243.223 73.3123 242.743 73.3253V73.3124Z" fill="#1F1C3D"/>
<path d="M238.948 85.6308C238.819 85.4235 238.689 85.2033 238.547 84.996C238.197 84.4779 237.834 83.9598 237.484 83.4287C237.407 83.3121 237.342 83.1826 237.329 83.0401C237.135 80.8251 236.94 78.5971 236.746 76.3691C236.707 75.9805 236.616 75.8251 236.254 75.7344C236.176 75.7085 236.059 75.7991 235.982 75.8639C234.388 77.4572 232.794 79.0375 231.201 80.6307C229.581 82.2499 227.949 83.882 226.33 85.5012C226.278 85.553 226.239 85.5919 226.174 85.6437C225.85 85.294 225.539 84.9572 225.215 84.6204C228.493 81.3432 231.823 78.0142 235.152 74.6981C235.062 74.5168 234.997 74.3613 234.906 74.2447C234.854 74.18 234.751 74.1152 234.66 74.1022C233.054 73.9598 231.46 73.8302 229.854 73.6877C229.154 73.623 228.441 73.5712 227.742 73.5064C227.664 73.5064 227.586 73.4805 227.534 73.4416C226.77 72.9235 225.993 72.3924 225.189 71.8354C225.708 71.8743 226.187 71.9261 226.666 71.9649C229.024 72.1722 231.395 72.3665 233.753 72.5738C234.246 72.6126 234.751 72.6774 235.243 72.7033C235.399 72.7033 235.58 72.6644 235.709 72.5738C236.15 72.2629 236.565 71.939 236.992 71.6152C237.433 71.2784 237.912 71.2655 238.327 71.6282C238.637 71.8872 238.923 72.1851 239.182 72.4831C239.557 72.9105 239.544 73.3769 239.195 73.8432C238.871 74.2706 238.534 74.6981 238.223 75.1256C238.145 75.2421 238.093 75.3976 238.106 75.5271C238.352 78.5323 238.612 81.5245 238.871 84.5297C238.897 84.8794 238.935 85.2292 238.961 85.5789C238.948 85.5789 238.935 85.5789 238.922 85.5919L238.948 85.6308Z" fill="#8A8BC4"/>
<path d="M239.065 64.3359C239.169 64.3618 239.35 64.4007 239.531 64.4655C242.965 65.6701 245.271 68.0017 246.437 71.4344C246.463 71.5251 246.488 71.6157 246.514 71.7064C246.605 72.108 246.398 72.4836 246.035 72.5743C245.633 72.6779 245.284 72.4836 245.154 72.082C244.882 71.2012 244.519 70.3722 244.014 69.608C242.744 67.7038 241.021 66.4085 238.832 65.7478C238.43 65.6313 238.236 65.3333 238.288 64.9447C238.339 64.595 238.637 64.3489 239.078 64.3489L239.065 64.3359Z" fill="#8A8BC4"/>
<path d="M242.251 73.3768C241.927 73.3768 241.694 73.2084 241.552 72.8327C241.267 72.0426 240.839 71.3431 240.256 70.7343C239.621 70.0737 238.857 69.6074 237.989 69.3094C237.704 69.2058 237.535 68.9985 237.509 68.7006C237.483 68.4156 237.6 68.1825 237.846 68.0271C238.067 67.8846 238.3 67.8975 238.546 67.9882C240.23 68.597 241.526 69.6851 242.394 71.2524C242.601 71.641 242.782 72.0426 242.925 72.4701C243.08 72.9234 242.731 73.3768 242.251 73.3898V73.3768Z" fill="#8A8BC4"/>
<path d="M74.4746 64.9697L83.4399 70.0992V79.1537L74.4746 74.0759V64.9697Z" fill="#D8E0F3"/>
<path d="M96.3971 72.2755L83.4414 79.1537V70.0993L96.3453 63.5449L96.3971 72.2755Z" fill="#262E60"/>
<path d="M87.4963 58.6233L74.4629 64.9705L83.4282 70.1L96.3321 63.5456L87.4963 58.6104V58.6233ZM76.4322 64.8021L87.3927 59.4005L94.5572 63.429L83.4412 68.9083L76.4451 64.8021H76.4322Z" fill="#F1F1F1"/>
<path d="M94.5566 63.4162L83.4406 68.8955L76.4316 64.8022L87.3921 59.3877L94.5566 63.4162Z" fill="#BBC8E8"/>
<path d="M87.3921 59.3877V60.2167L77.0276 65.139L76.4316 64.8022L87.3921 59.3877Z" fill="#22254C"/>
<path d="M87.3926 59.3877L94.5571 63.4162L93.7668 63.8048L87.3926 60.2167V59.3877Z" fill="#262E60"/>
<path d="M130.418 152.354V387.807L122.178 390.462V155.76L130.418 152.354Z" fill="#22254C"/>
<path d="M206.766 156.045V391.874L214.967 396.446L214.539 159.931L206.766 156.045Z" fill="#313989"/>
<path d="M266.063 139.18L264.962 368.856L253.393 375.048L253.613 145.566L266.063 139.18Z" fill="#22254C"/>
<path d="M30.5547 117.211V334.594L35.5167 337.638V120.359L30.5547 117.211Z" fill="#22254C"/>
</g>
<defs>
<clipPath id="clip0_3927_30350">
<rect width="293" height="469" fill="white" transform="translate(0.5 -0.00390625)"/>
</clipPath>
</defs>
</svg>
