<svg width="18" height="24" viewBox="0 0 18 24" fill="none" xmlns="http://www.w3.org/2000/svg">
<path d="M15 22.4961C15.7969 22.4961 16.5 21.8398 16.5 20.9961V8.99609H11.25C9.98438 8.99609 9 8.01172 9 6.74609V1.49609H3C2.15625 1.49609 1.5 2.19922 1.5 2.99609V20.9961C1.5 21.8398 2.15625 22.4961 3 22.4961H15ZM11.25 7.49609H16.4531C16.4062 7.40234 16.3594 7.26172 16.2656 7.16797L10.8281 1.73047C10.7344 1.63672 10.5938 1.58984 10.5 1.54297V6.74609C10.5 7.16797 10.8281 7.49609 11.25 7.49609ZM3 -0.00390625H10.3125C10.875 -0.00390625 11.4844 0.277344 11.9062 0.699219L17.2969 6.08984C17.7188 6.51172 18 7.12109 18 7.68359V20.9961C18 22.6836 16.6406 23.9961 15 23.9961H3C1.3125 23.9961 0 22.6836 0 20.9961V2.99609C0 1.35547 1.3125 -0.00390625 3 -0.00390625ZM3 3.74609C3 3.37109 3.32812 2.99609 3.75 2.99609H6.75C7.125 2.99609 7.5 3.37109 7.5 3.74609C7.5 4.16797 7.125 4.49609 6.75 4.49609H3.75C3.32812 4.49609 3 4.16797 3 3.74609ZM3 6.74609C3 6.37109 3.32812 5.99609 3.75 5.99609H6.75C7.125 5.99609 7.5 6.37109 7.5 6.74609C7.5 7.16797 7.125 7.49609 6.75 7.49609H3.75C3.32812 7.49609 3 7.16797 3 6.74609ZM10.5 20.2461C10.5 19.8711 10.8281 19.4961 11.25 19.4961H14.25C14.625 19.4961 15 19.8711 15 20.2461C15 20.668 14.625 20.9961 14.25 20.9961H11.25C10.8281 20.9961 10.5 20.668 10.5 20.2461ZM13.5 15.7461V12.7461H4.5V15.7461H13.5ZM4.5 11.2461H13.5C14.2969 11.2461 15 11.9492 15 12.7461V15.7461C15 16.5898 14.2969 17.2461 13.5 17.2461H4.5C3.65625 17.2461 3 16.5898 3 15.7461V12.7461C3 11.9492 3.65625 11.2461 4.5 11.2461Z" fill="#314081"/>
</svg>
