<svg width="18" height="24" viewBox="0 0 18 24" fill="none" xmlns="http://www.w3.org/2000/svg">
<path d="M12.8438 0.324219C13.0781 0.136719 13.3594 -0.00390625 13.6406 -0.00390625C14.4375 -0.00390625 15 0.839844 14.7188 1.58984L11.5312 10.4961H16.7344C17.3906 10.4961 18 11.1055 18 11.7617C18 12.1367 17.8125 12.5117 17.5312 12.7461L5.10938 23.7148C4.875 23.9023 4.59375 23.9961 4.3125 23.9961C3.51562 23.9961 2.95312 23.1992 3.23438 22.4492L6.42188 13.4961H1.17188C0.515625 13.4961 0 12.9805 0 12.3242C0 11.9492 0.140625 11.6211 0.375 11.3867L12.8438 0.324219ZM12.8906 2.29297L1.96875 11.9961H7.5C7.73438 11.9961 7.96875 12.1367 8.10938 12.3242C8.25 12.5586 8.25 12.793 8.20312 13.0273L5.0625 21.7461L16.0781 11.9961H10.5C10.2188 11.9961 9.98438 11.9023 9.84375 11.7148C9.70312 11.4805 9.70312 11.2461 9.75 11.0117L12.8906 2.29297Z" fill="#314081"/>
</svg>
