<svg width="22" height="22" viewBox="0 0 22 22" fill="none" xmlns="http://www.w3.org/2000/svg">
<path d="M3.5 1.99609C2.65625 1.99609 2 2.69922 2 3.49609V18.4961C2 19.3398 2.65625 19.9961 3.5 19.9961H18.5C19.2969 19.9961 20 19.3398 20 18.4961V3.49609C20 2.69922 19.2969 1.99609 18.5 1.99609H3.5ZM0.5 3.49609C0.5 1.85547 1.8125 0.496094 3.5 0.496094H18.5C20.1406 0.496094 21.5 1.85547 21.5 3.49609V18.4961C21.5 20.1836 20.1406 21.4961 18.5 21.4961H3.5C1.8125 21.4961 0.5 20.1836 0.5 18.4961V3.49609ZM5 10.9961C5 13.3398 6.125 14.7461 6.82812 15.4023C6.875 15.4492 7.01562 15.4961 7.34375 15.4961H14.6094C14.9375 15.4961 15.0781 15.4492 15.125 15.4023C15.8281 14.7461 17 13.3398 17 10.9961C17 8.69922 15.8281 7.29297 15.125 6.63672C15.0781 6.58984 14.9375 6.49609 14.6094 6.49609H7.34375C7.01562 6.49609 6.875 6.58984 6.82812 6.63672C6.125 7.29297 5 8.69922 5 10.9961ZM3.5 10.9961C3.5 8.13672 4.90625 6.35547 5.79688 5.55859C6.21875 5.18359 6.78125 4.99609 7.34375 4.99609H14.6094C15.1719 4.99609 15.7344 5.18359 16.1562 5.55859C17.0469 6.35547 18.5 8.13672 18.5 10.9961C18.5 13.9023 17.0469 15.6367 16.1562 16.4805C15.7344 16.8555 15.1719 16.9961 14.6094 16.9961H7.34375C6.78125 16.9961 6.21875 16.8555 5.79688 16.4805C4.90625 15.6367 3.5 13.9023 3.5 10.9961ZM8.75 7.99609C9.125 7.99609 9.5 8.37109 9.5 8.74609V10.9961C9.5 11.418 9.125 11.7461 8.75 11.7461C8.32812 11.7461 8 11.418 8 10.9961V8.74609C8 8.37109 8.32812 7.99609 8.75 7.99609ZM13.25 7.99609C13.625 7.99609 14 8.37109 14 8.74609V10.9961C14 11.418 13.625 11.7461 13.25 11.7461C12.8281 11.7461 12.5 11.418 12.5 10.9961V8.74609C12.5 8.37109 12.8281 7.99609 13.25 7.99609ZM11 12.4961C11.6094 12.4961 12.125 13.0117 12.125 13.6211V14.3711C12.125 14.6055 11.9375 14.7461 11.75 14.7461H10.25C10.0156 14.7461 9.875 14.6055 9.875 14.3711V13.6211C9.875 13.0117 10.3438 12.4961 11 12.4961Z" fill="#314081"/>
</svg>
