<svg width="18" height="24" viewBox="0 0 18 24" fill="none" xmlns="http://www.w3.org/2000/svg">
<path d="M14.5312 12.1367C15.2812 11.0117 15.75 9.69922 15.75 8.24609C15.75 4.54297 12.7031 1.49609 9 1.49609C5.25 1.49609 2.25 4.54297 2.25 8.24609C2.25 9.69922 2.67188 11.0117 3.42188 12.1367C3.60938 12.3711 3.84375 12.6992 4.07812 13.0273C4.6875 13.8242 5.34375 14.7617 5.85938 15.6992C6.28125 16.4492 6.51562 17.2461 6.60938 18.043H5.10938C4.96875 17.4805 4.82812 16.918 4.54688 16.4023C4.07812 15.5586 3.51562 14.7617 2.90625 13.9648C2.67188 13.6367 2.4375 13.3086 2.20312 12.9805C1.26562 11.6211 0.75 10.0273 0.75 8.24609C0.75 3.69922 4.40625 -0.00390625 9 -0.00390625C13.5469 -0.00390625 17.25 3.69922 17.25 8.24609C17.25 10.0273 16.6875 11.6211 15.75 12.9805C15.5156 13.3086 15.2812 13.6367 15.0469 13.9648C14.4375 14.7617 13.875 15.5586 13.4062 16.4023C13.125 16.918 12.9844 17.4336 12.8438 17.9961H11.3438C11.4844 17.2461 11.6719 16.4492 12.0938 15.6992C12.6094 14.7617 13.3125 13.8242 13.875 12.9805C14.1094 12.6992 14.3438 12.3711 14.5312 12.0898V12.1367ZM9 4.49609C6.89062 4.49609 5.25 6.18359 5.25 8.24609C5.25 8.66797 4.875 8.99609 4.5 8.99609C4.07812 8.99609 3.75 8.66797 3.75 8.24609C3.75 5.38672 6.09375 2.99609 9 2.99609C9.375 2.99609 9.75 3.37109 9.75 3.74609C9.75 4.16797 9.375 4.49609 9 4.49609ZM6.84375 20.9961C7.17188 21.8867 8.01562 22.4961 9 22.4961C9.9375 22.4961 10.7812 21.8867 11.1094 20.9961H6.84375ZM5.25 20.2461V20.0117C5.25 19.7305 5.4375 19.4961 5.71875 19.4961H12.2344C12.5156 19.4961 12.75 19.7305 12.75 20.0117V20.2461C12.75 22.3555 11.0625 23.9961 9 23.9961C6.89062 23.9961 5.25 22.3555 5.25 20.2461Z" fill="#314081"/>
</svg>
