<svg width="28" height="24" viewBox="0 0 28 24" fill="none" xmlns="http://www.w3.org/2000/svg">
<path d="M24.5 1.49609H3.5C2.65625 1.49609 2 2.19922 2 2.99609V16.4961C2 17.3398 2.65625 17.9961 3.5 17.9961H11.3281H11.375H16.5781H16.625H24.5C25.2969 17.9961 26 17.3398 26 16.4961V2.99609C26 2.19922 25.2969 1.49609 24.5 1.49609ZM3.5 19.4961C1.8125 19.4961 0.5 18.1836 0.5 16.4961V2.99609C0.5 1.35547 1.8125 -0.00390625 3.5 -0.00390625H24.5C26.1406 -0.00390625 27.5 1.35547 27.5 2.99609V16.4961C27.5 18.1836 26.1406 19.4961 24.5 19.4961H17.4688L17.9844 22.4961H20.75C21.125 22.4961 21.5 22.8711 21.5 23.2461C21.5 23.668 21.125 23.9961 20.75 23.9961H17.375H10.625H7.25C6.82812 23.9961 6.5 23.668 6.5 23.2461C6.5 22.8711 6.82812 22.4961 7.25 22.4961H9.96875L10.4844 19.4961H3.5ZM11.4688 22.4961H16.4844L15.9688 19.4961H11.9844L11.4688 22.4961ZM12.2656 7.30859L9.78125 9.74609L12.2656 12.2305C12.5469 12.5117 12.5469 13.0273 12.2656 13.3086C11.9844 13.5898 11.4688 13.5898 11.1875 13.3086L8.1875 10.3086C7.90625 10.0273 7.90625 9.51172 8.1875 9.23047L11.1875 6.23047C11.4688 5.94922 11.9844 5.94922 12.2656 6.23047C12.5469 6.51172 12.5469 7.02734 12.2656 7.30859ZM16.7656 6.23047L19.7656 9.23047C20.0469 9.51172 20.0469 10.0273 19.7656 10.3086L16.7656 13.3086C16.4844 13.5898 15.9688 13.5898 15.6875 13.3086C15.4062 13.0273 15.4062 12.5117 15.6875 12.2305L18.1719 9.74609L15.6875 7.30859C15.4062 7.02734 15.4062 6.51172 15.6875 6.23047C15.9688 5.94922 16.4844 5.94922 16.7656 6.23047Z" fill="#314081"/>
</svg>
