<svg width="26" height="26" viewBox="0 0 26 26" fill="none" xmlns="http://www.w3.org/2000/svg">
<path d="M4 2.63672L2.59375 4.04297L6.01562 8.49609H8.5V6.05859L4 2.63672ZM10 8.96484L14.7344 13.7461C16.1406 12.8086 18.0625 12.9961 19.2812 14.2148L24.5312 19.4648C25.1406 20.0273 25.1406 21.0117 24.5312 21.5742L21.5312 24.5742C20.9688 25.1836 19.9844 25.1836 19.4219 24.5742L14.1719 19.3242C12.9531 18.1055 12.7656 16.1836 13.7031 14.7773L8.92188 9.99609C8.875 9.99609 8.875 9.99609 8.82812 9.99609H5.82812C5.5 9.99609 5.17188 9.85547 4.9375 9.57422L1.1875 4.69922C0.859375 4.23047 0.90625 3.62109 1.32812 3.19922L3.20312 1.32422C3.57812 0.949219 4.23438 0.902344 4.65625 1.23047L9.53125 4.98047C9.8125 5.21484 10 5.54297 10 5.87109V8.87109C10 8.91797 10 8.91797 10 8.96484ZM15.25 15.2461C14.4062 16.0898 14.4062 17.4492 15.25 18.2461L20.5 23.4961L23.5 20.4961L18.25 15.2461C17.4062 14.4492 16.0469 14.4492 15.25 15.2461ZM5.875 20.8711C5.875 21.293 5.5 21.6211 5.125 21.6211C4.70312 21.6211 4.375 21.293 4.375 20.8711C4.375 20.4961 4.70312 20.1211 5.125 20.1211C5.5 20.1211 5.875 20.4961 5.875 20.8711ZM2.07812 18.668L8.78125 11.9648L9.85938 13.043L3.15625 19.7461C2.73438 20.168 2.5 20.7305 2.5 21.293C2.5 22.5117 3.48438 23.4961 4.70312 23.4961C5.26562 23.4961 5.82812 23.2617 6.25 22.8398L11.6406 17.4492C11.7344 18.0117 11.875 18.5742 12.1562 19.0898L7.32812 23.918C6.625 24.6211 5.6875 24.9961 4.70312 24.9961C2.64062 24.9961 1 23.3555 1 21.293C1 20.3086 1.375 19.3711 2.07812 18.668ZM23.4531 8.49609C23.4531 8.02734 23.4062 7.55859 23.2656 7.13672L21.0156 9.38672C20.5938 9.80859 20.0312 10.043 19.4219 10.043H18.25C16.9844 10.043 15.9531 9.01172 15.9531 7.74609V6.57422C15.9531 5.96484 16.1875 5.40234 16.6094 4.98047L18.8594 2.73047C18.4375 2.58984 17.9688 2.54297 17.5 2.54297C15.3438 2.54297 13.4688 3.66797 12.4375 5.35547L11.2188 4.41797C12.5312 2.35547 14.875 0.996094 17.5 0.996094C18.625 0.996094 19.75 1.27734 20.7344 1.74609C21.1562 1.98047 21.2031 2.54297 20.875 2.87109L17.6875 6.05859C17.5469 6.19922 17.5 6.38672 17.5 6.57422V7.74609C17.5 8.16797 17.8281 8.49609 18.25 8.49609H19.4219C19.6094 8.49609 19.7969 8.44922 19.9375 8.30859L23.125 5.12109C23.4531 4.79297 24.0625 4.83984 24.25 5.26172C24.7188 6.24609 25 7.37109 25 8.49609C25 11.0273 23.7344 13.2773 21.8125 14.6367L20.7344 13.5117C22.375 12.4805 23.4531 10.6055 23.4531 8.49609Z" fill="#314081"/>
</svg>
