<svg width="25" height="25" viewBox="0 0 25 25" fill="none" xmlns="http://www.w3.org/2000/svg">
<path d="M12.3438 6.32422L12.8125 1.73047C10.2344 2.43359 8.45312 4.73047 8.45312 7.49609C8.45312 8.90234 8.64062 9.93359 8.875 10.7305C9.01562 11.1992 8.875 11.7148 8.59375 12.1367C8.26562 12.5117 7.75 12.6992 7.28125 12.6523L2.6875 12.1836C3.39062 14.7617 5.6875 16.543 8.45312 16.4961C9.85938 16.4961 10.8906 16.3555 11.6875 16.1211C12.1562 15.9805 12.6719 16.1211 13.0938 16.4023C13.4688 16.7305 13.6562 17.2461 13.6094 17.7148L13.1406 22.3086C15.7188 21.6055 17.5 19.3086 17.5 16.543V16.4961C17.5 15.1367 17.3125 14.1055 17.0781 13.3086C16.9375 12.793 17.0781 12.2773 17.4062 11.9023C17.6875 11.5273 18.2031 11.3398 18.6719 11.3867L23.2656 11.8555C22.5625 9.27734 20.2656 7.49609 17.5 7.49609C16.0938 7.49609 15.0625 7.68359 14.2656 7.91797C13.7969 8.05859 13.2812 7.91797 12.8594 7.58984C12.4844 7.30859 12.2969 6.79297 12.3438 6.32422ZM13.8438 6.46484C14.3125 6.32422 14.7812 6.23047 15.3906 6.13672C16 6.04297 16.7031 5.99609 17.5 5.99609C21.1094 5.99609 24.0625 8.43359 24.8125 11.8555C25 12.7461 24.2031 13.4492 23.3125 13.3555L20.125 13.0273L18.5312 12.8867C18.6719 13.3086 18.7656 13.8242 18.8594 14.4336C18.9531 15.043 19 15.7461 19 16.4961C19 20.1523 16.5625 23.1055 13.1406 23.8555C12.25 24.043 11.5469 23.2461 11.6406 22.3555L11.9688 19.168L12.1094 17.5742C11.6875 17.7148 11.1719 17.8086 10.5625 17.9023C9.95312 17.9492 9.25 17.9961 8.5 17.9961C4.84375 18.043 1.89062 15.6055 1.14062 12.1836C0.953125 11.293 1.75 10.5898 2.64062 10.6836L5.82812 11.0117L7.42188 11.1523C7.28125 10.6836 7.1875 10.2148 7.09375 9.60547C7.04688 8.99609 7 8.29297 7 7.49609C6.95312 3.88672 9.39062 0.933594 12.8125 0.183594C13.7031 -0.00390625 14.4062 0.792969 14.3125 1.68359L13.9844 4.87109L13.8438 6.46484ZM13 13.1211C12.3438 13.1211 11.875 12.6523 11.875 11.9961C11.875 11.3867 12.3438 10.8711 13 10.8711C13.6094 10.8711 14.125 11.3867 14.125 11.9961C14.125 12.6523 13.6094 13.1211 13 13.1211Z" fill="#314081"/>
</svg>
