<svg width="22" height="24" viewBox="0 0 22 24" fill="none" xmlns="http://www.w3.org/2000/svg">
<path d="M11.75 0.746094V4.21484L13.4375 2.48047C13.7188 2.19922 14.2344 2.19922 14.5156 2.48047C14.7969 2.76172 14.7969 3.27734 14.5156 3.55859L11.75 6.32422V10.7305L15.5469 8.52734L16.5312 4.73047C16.6719 4.30859 17.0469 4.07422 17.4688 4.21484C17.8438 4.30859 18.125 4.73047 17.9844 5.10547L17.375 7.44922L20.3281 5.76172C20.7031 5.52734 21.1719 5.66797 21.3594 5.99609C21.5938 6.37109 21.4531 6.83984 21.0781 7.02734L18.125 8.76172L20.4688 9.37109C20.8438 9.51172 21.125 9.93359 20.9844 10.3086C20.8906 10.7305 20.4688 10.9648 20.0938 10.8242L16.2969 9.83984L12.5 11.9961L16.2969 14.1992L20.0938 13.2148C20.4688 13.0742 20.8906 13.3086 20.9844 13.7305C21.125 14.1055 20.8438 14.5273 20.4688 14.6211L18.125 15.2773L21.0781 16.9648C21.4531 17.1992 21.5938 17.668 21.3594 17.9961C21.1719 18.3711 20.7031 18.5117 20.3281 18.2773L17.375 16.5898L17.9844 18.9336C18.125 19.3086 17.8438 19.7305 17.4688 19.8242C17.0469 19.9648 16.6719 19.6836 16.5312 19.3086L15.5469 15.5117L11.75 13.3086V17.7148L14.5156 20.4805C14.7969 20.7617 14.7969 21.2773 14.5156 21.5586C14.2344 21.8398 13.7188 21.8398 13.4375 21.5586L11.75 19.8242V23.2461C11.75 23.668 11.375 23.9961 11 23.9961C10.5781 23.9961 10.25 23.668 10.25 23.2461V19.8242L8.51562 21.5586C8.23438 21.8398 7.71875 21.8398 7.4375 21.5586C7.15625 21.2773 7.15625 20.7617 7.4375 20.4805L10.25 17.7148V13.3086L6.40625 15.5117L5.42188 19.3086C5.28125 19.7305 4.90625 19.9648 4.48438 19.8242C4.10938 19.7305 3.875 19.3086 3.96875 18.9336L4.57812 16.5898L1.625 18.2773C1.25 18.5117 0.78125 18.3711 0.59375 17.9961C0.359375 17.668 0.5 17.1992 0.875 17.0117L3.82812 15.2773L1.48438 14.6211C1.10938 14.5273 0.875 14.1055 0.96875 13.7305C1.0625 13.3086 1.48438 13.0742 1.85938 13.2148L5.65625 14.1992L9.5 11.9961L5.65625 9.83984L1.85938 10.8242C1.48438 10.9648 1.0625 10.7305 0.96875 10.3086C0.875 9.88672 1.10938 9.51172 1.48438 9.37109L3.82812 8.76172L0.875 7.02734C0.5 6.83984 0.359375 6.37109 0.59375 5.99609C0.78125 5.66797 1.25 5.52734 1.625 5.76172L4.57812 7.44922L3.96875 5.10547C3.875 4.73047 4.10938 4.30859 4.48438 4.21484C4.90625 4.07422 5.28125 4.30859 5.42188 4.73047L6.40625 8.52734L10.25 10.7305V6.32422L7.4375 3.55859C7.15625 3.27734 7.15625 2.76172 7.4375 2.48047C7.71875 2.19922 8.23438 2.19922 8.51562 2.48047L10.25 4.21484V0.746094C10.25 0.371094 10.5781 -0.00390625 11 -0.00390625C11.375 -0.00390625 11.75 0.371094 11.75 0.746094Z" fill="#314081"/>
</svg>
