<svg width="48" height="48" viewBox="0 0 48 48" fill="none" xmlns="http://www.w3.org/2000/svg">
<path d="M16.5 1.5V6H22.5V1.5C22.5 0.75 23.1562 0 24 0C24.75 0 25.5 0.75 25.5 1.5V6H31.5V1.5C31.5 0.75 32.1562 0 33 0C33.75 0 34.5 0.75 34.5 1.5V6H36C39.2812 6 42 8.71875 42 12V13.5H46.5C47.25 13.5 48 14.25 48 15C48 15.8438 47.25 16.5 46.5 16.5H42V22.5H46.5C47.25 22.5 48 23.25 48 24C48 24.8438 47.25 25.5 46.5 25.5H42V31.5H46.5C47.25 31.5 48 32.25 48 33C48 33.8438 47.25 34.5 46.5 34.5H42V36C42 39.375 39.2812 42 36 42H34.5V46.5C34.5 47.3438 33.75 48 33 48C32.1562 48 31.5 47.3438 31.5 46.5V42H25.5V46.5C25.5 47.3438 24.75 48 24 48C23.1562 48 22.5 47.3438 22.5 46.5V42H16.5V46.5C16.5 47.3438 15.75 48 15 48C14.1562 48 13.5 47.3438 13.5 46.5V42H12C8.625 42 6 39.375 6 36V34.5H1.5C0.65625 34.5 0 33.8438 0 33C0 32.25 0.65625 31.5 1.5 31.5H6V25.5H1.5C0.65625 25.5 0 24.8438 0 24C0 23.25 0.65625 22.5 1.5 22.5H6V16.5H1.5C0.65625 16.5 0 15.8438 0 15C0 14.25 0.65625 13.5 1.5 13.5H6V12C6 8.71875 8.625 6 12 6H13.5V1.5C13.5 0.75 14.1562 0 15 0C15.75 0 16.5 0.75 16.5 1.5ZM39 12C39 10.4062 37.5938 9 36 9H12C10.3125 9 9 10.4062 9 12V36C9 37.6875 10.3125 39 12 39H36C37.5938 39 39 37.6875 39 36V12ZM15 12H33C34.5938 12 36 13.4062 36 15V33C36 34.6875 34.5938 36 33 36H15C13.3125 36 12 34.6875 12 33V15C12 13.4062 13.3125 12 15 12ZM33 15H15V33H33V15Z" fill="white"/>
</svg>
