<svg width="54" height="36" viewBox="0 0 54 36" fill="none" xmlns="http://www.w3.org/2000/svg">
<path d="M3 6C4.78125 7.40625 6 9.5625 6 12C6 14.5312 4.78125 16.6875 3 18V21H51V18C49.125 16.6875 48 14.5312 48 12C48 9.5625 49.125 7.40625 51 6C51 4.40625 49.5938 3 48 3H6C4.3125 3 3 4.40625 3 6ZM0 17.3438C0 16.6875 0.375 16.125 0.9375 15.8438C2.15625 15 3 13.5938 3 12C3 10.5 2.15625 9.09375 0.9375 8.25C0.375 7.875 0 7.40625 0 6.75V6C0 2.71875 2.625 0 6 0H48C51.2812 0 54 2.71875 54 6V6.75C54 7.40625 53.5312 7.875 52.9688 8.25C51.75 9.09375 51 10.5 51 12C51 13.5938 51.75 15 52.9688 15.8438C53.5312 16.125 54 16.6875 54 17.3438V22.5V33C54 34.6875 52.5938 36 51 36H3C1.3125 36 0 34.6875 0 33V22.5V17.3438ZM51 33V24H3V33H9V31.5C9 30.75 9.65625 30 10.5 30C11.25 30 12 30.75 12 31.5V33H17.25V31.5C17.25 30.75 17.9062 30 18.75 30C19.5 30 20.25 30.75 20.25 31.5V33H25.5V31.5C25.5 30.75 26.1562 30 27 30C27.75 30 28.5 30.75 28.5 31.5V33H33.75V31.5C33.75 30.75 34.4062 30 35.25 30C36 30 36.75 30.75 36.75 31.5V33H42V31.5C42 30.75 42.6562 30 43.5 30C44.25 30 45 30.75 45 31.5V33H51ZM16.5 7.5V16.5C16.5 17.3438 15.75 18 15 18C14.1562 18 13.5 17.3438 13.5 16.5V7.5C13.5 6.75 14.1562 6 15 6C15.75 6 16.5 6.75 16.5 7.5ZM28.5 7.5V16.5C28.5 17.3438 27.75 18 27 18C26.1562 18 25.5 17.3438 25.5 16.5V7.5C25.5 6.75 26.1562 6 27 6C27.75 6 28.5 6.75 28.5 7.5ZM40.5 7.5V16.5C40.5 17.3438 39.75 18 39 18C38.1562 18 37.5 17.3438 37.5 16.5V7.5C37.5 6.75 38.1562 6 39 6C39.75 6 40.5 6.75 40.5 7.5Z" fill="white"/>
</svg>
