<svg width="54" height="38" viewBox="0 0 54 38" fill="none" xmlns="http://www.w3.org/2000/svg">
<path d="M8.4375 1.46875C9.09375 2.03125 9.09375 2.96875 8.625 3.53125C5.0625 7.75 3 13.1875 3 19C3 24.9062 5.0625 30.3438 8.625 34.4688C9.09375 35.125 9.09375 36.0625 8.4375 36.625C7.78125 37.1875 6.84375 37.0938 6.28125 36.4375C2.34375 31.75 0 25.6562 0 19C0 12.4375 2.34375 6.34375 6.28125 1.65625C6.84375 1 7.78125 0.90625 8.4375 1.46875ZM45.4688 1.46875C46.125 0.90625 47.0625 1 47.625 1.65625C51.5625 6.34375 54 12.4375 54 19C54 25.6562 51.5625 31.75 47.625 36.4375C47.0625 37.0938 46.125 37.1875 45.4688 36.625C44.9062 36.0625 44.8125 35.125 45.2812 34.4688C48.8438 30.3438 51 24.9062 51 19C51 13.1875 48.8438 7.75 45.2812 3.53125C44.8125 2.96875 44.9062 2.03125 45.4688 1.46875ZM21 19C21 16.9375 22.125 14.9688 24 13.8438C25.7812 12.8125 28.125 12.8125 30 13.8438C31.7812 14.9688 33 16.9375 33 19C33 21.1562 31.7812 23.125 30 24.25C28.125 25.2812 25.7812 25.2812 24 24.25C22.125 23.125 21 21.1562 21 19ZM27 22C28.5938 22 30 20.6875 30 19C30 17.4062 28.5938 16 27 16C25.3125 16 24 17.4062 24 19C24 20.6875 25.3125 22 27 22ZM15.375 9.53125C13.2188 12.0625 12 15.4375 12 19C12 22.6562 13.2188 26.0312 15.375 28.5625C15.9375 29.2188 15.8438 30.1562 15.1875 30.7188C14.5312 31.1875 13.5938 31.0938 13.125 30.5312C10.5 27.3438 9 23.4062 9 19C9 14.6875 10.5 10.6562 13.0312 7.5625C13.5938 6.90625 14.5312 6.8125 15.1875 7.375C15.8438 7.9375 15.9375 8.875 15.375 9.53125ZM40.875 7.5625C43.4062 10.6562 45 14.6875 45 19C45 23.4062 43.4062 27.3438 40.875 30.5312C40.3125 31.0938 39.375 31.1875 38.7188 30.7188C38.0625 30.1562 37.9688 29.2188 38.5312 28.5625C40.6875 26.0312 42 22.6562 42 19C42 15.4375 40.6875 12.0625 38.5312 9.53125C37.9688 8.875 38.0625 7.9375 38.7188 7.375C39.375 6.90625 40.3125 6.90625 40.875 7.5625Z" fill="white"/>
</svg>
