<svg width="56" height="56" viewBox="0 0 56 56" fill="none" xmlns="http://www.w3.org/2000/svg">
<path d="M35.127 7.07374C35.7978 7.32511 36.2171 8.07923 35.9655 8.74956L22.5488 48.9693C22.2973 49.7235 21.5426 50.0586 20.8717 49.891C20.1171 49.6397 19.7816 48.8856 19.9493 48.1314L33.366 7.91165C33.6176 7.24132 34.3723 6.82236 35.127 7.07374ZM15.5889 16.8773H15.5051C16.0082 17.3801 16.0082 18.3018 15.4212 18.7207L4.52018 28.4405L15.4212 38.2441C16.0082 38.663 16.0082 39.5847 15.5889 40.0875C15.0858 40.674 14.2473 40.674 13.6603 40.1713L1.58529 29.446C1.33372 29.1946 1.16602 28.8595 1.16602 28.4405C1.16602 28.1053 1.33372 27.7702 1.58529 27.5188L13.6603 16.7935C14.2473 16.2908 15.0858 16.2908 15.5889 16.8773ZM40.4098 16.8773C40.9129 16.2908 41.7514 16.207 42.2546 16.7097L54.3296 27.435C54.665 27.6864 54.8327 28.1053 54.8327 28.4405C54.8327 28.8595 54.665 29.1946 54.3296 29.446L42.2546 40.1713C41.7514 40.674 40.9129 40.674 40.4098 40.0875C39.9066 39.5009 39.9066 38.663 40.4936 38.1603L51.3947 28.4405L40.4936 18.7207C39.9066 18.3018 39.9066 17.3801 40.4098 16.8773Z" fill="#314081"/>
</svg>
