<svg width="56" height="56" viewBox="0 0 56 56" fill="none" xmlns="http://www.w3.org/2000/svg">
<rect x="1.25" y="15.25" width="53.5" height="25.5" rx="4.75" stroke="#314081" stroke-width="2.5"/>
<path d="M41.9492 35.0003V21.0996H45.0074V35.0003H41.9492Z" fill="#314081"/>
<path d="M28.5469 35.0003V21.0996H34.2263C37.5426 21.0996 39.5483 23.0656 39.5483 25.945C39.5483 29.162 37.0462 30.8301 33.9284 30.8301H31.605V35.0003H28.5469ZM31.605 28.1095H34.0277C35.5568 28.1095 36.4504 27.1961 36.4504 25.9649C36.4504 24.5946 35.4972 23.8599 33.9682 23.8599H31.605V28.1095Z" fill="#314081"/>
<path d="M11.666 35L17.6235 21H20.4433L26.4008 35H23.2036L21.9327 31.8823H16.0547L14.7837 35H11.666ZM17.1469 29.1816H20.8405L18.9937 24.6738L17.1469 29.1816Z" fill="#314081"/>
</svg>
