<svg width="56" height="56" viewBox="0 0 56 56" fill="none" xmlns="http://www.w3.org/2000/svg">
<path fill-rule="evenodd" clip-rule="evenodd" d="M15.3333 22.7502L22.3153 22.7502L14.3864 31.3335H20.4167V33.8335H15.3333V39.5002H43.0833V35.7079L39.8991 33.7974V35.0002H37.3991V32.2974L37.25 32.2079V31.5002V24.5002V23.7924L37.3991 23.703V19.8335H39.8991V22.203L43.0833 20.2924V16.5002H15.3333V22.7502ZM39.8991 25.1184L44.9765 22.072L45.5833 21.7079V21.0002V16.5002H46.4C48.1214 16.5002 49.2621 16.5021 50.1372 16.5736C50.9831 16.6427 51.3584 16.7642 51.589 16.8816C52.2475 17.2172 52.783 17.7526 53.1185 18.4112C53.236 18.6418 53.3574 19.017 53.4266 19.863C53.4981 20.738 53.5 21.8788 53.5 23.6002V32.4002C53.5 34.1216 53.4981 35.2623 53.4266 36.1374C53.3574 36.9833 53.236 37.3586 53.1185 37.5891C52.783 38.2477 52.2475 38.7831 51.589 39.1187C51.3584 39.2362 50.9831 39.3576 50.1372 39.4267C49.2621 39.4982 48.1214 39.5002 46.4 39.5002H45.5833V35.0002V34.2924L44.9765 33.9283L39.8991 30.8819V25.1184ZM43.0833 46.6668V42.0002H15.3333V46.6668H12.8333V42.0002H9.6C6.23968 42.0002 4.55953 42.0002 3.27606 41.3462C2.14708 40.771 1.2292 39.8531 0.653961 38.7241C0 37.4406 0 35.7605 0 32.4002V23.6002C0 20.2398 0 18.5597 0.653961 17.2762C1.2292 16.1472 2.14708 15.2294 3.27606 14.6541C4.55953 14.0002 6.23969 14.0002 9.6 14.0002H12.8333V9.3335H15.3333V14.0002H43.0833V9.3335H45.5833V14.0002H46.4C49.7603 14.0002 51.4405 14.0002 52.7239 14.6541C53.8529 15.2294 54.7708 16.1472 55.346 17.2762C56 18.5597 56 20.2398 56 23.6002V32.4002C56 35.7605 56 37.4406 55.346 38.7241C54.7708 39.8531 53.8529 40.771 52.7239 41.3462C51.4405 42.0002 49.7603 42.0002 46.4 42.0002H45.5833V46.6668H43.0833ZM12.8333 33.8335H8.16667V31.3335H14.0785L6.14952 22.7502L12.8333 22.7502V16.5002H9.6C7.87859 16.5002 6.73789 16.5021 5.86279 16.5736C5.01688 16.6427 4.6416 16.7642 4.41103 16.8816C3.75247 17.2172 3.21703 17.7526 2.88148 18.4112C2.764 18.6418 2.64256 19.017 2.57344 19.863C2.50194 20.7381 2.5 21.8788 2.5 23.6002V32.4002C2.5 34.1216 2.50194 35.2623 2.57344 36.1374C2.64256 36.9833 2.764 37.3586 2.88148 37.5891C3.21703 38.2477 3.75247 38.7831 4.41103 39.1187C4.6416 39.2362 5.01688 39.3576 5.86279 39.4267C6.73789 39.4982 7.87859 39.5002 9.6 39.5002H12.8333V33.8335ZM35 28.0002L30.625 32.0416V23.9587L35 28.0002ZM23.625 32.0416L28 28.0002L23.625 23.9587V32.0416Z" fill="#314081"/>
</svg>
