<svg width="56" height="56" viewBox="0 0 56 56" fill="none" xmlns="http://www.w3.org/2000/svg">
<path d="M22.1673 9.04183V20.7085C22.1673 21.5288 21.4382 22.1668 20.709 22.1668H9.04232C8.22201 22.1668 7.58398 21.5288 7.58398 20.7085C7.58398 19.9793 8.22201 19.2502 9.04232 19.2502H19.2507V9.04183C19.2507 8.31266 19.8887 7.5835 20.709 7.5835C21.4382 7.5835 22.1673 8.31266 22.1673 9.04183ZM9.04232 33.8335H20.709C21.4382 33.8335 22.1673 34.5627 22.1673 35.2918V46.9585C22.1673 47.7788 21.4382 48.4168 20.709 48.4168C19.8887 48.4168 19.2507 47.7788 19.2507 46.9585V36.7502H9.04232C8.22201 36.7502 7.58398 36.1121 7.58398 35.2918C7.58398 34.5627 8.22201 33.8335 9.04232 33.8335ZM36.7507 9.04183V19.2502H46.959C47.6882 19.2502 48.4173 19.9793 48.4173 20.7085C48.4173 21.5288 47.6882 22.1668 46.959 22.1668H35.2923C34.472 22.1668 33.834 21.5288 33.834 20.7085V9.04183C33.834 8.31266 34.472 7.5835 35.2923 7.5835C36.0215 7.5835 36.7507 8.31266 36.7507 9.04183ZM35.2923 33.8335H46.959C47.6882 33.8335 48.4173 34.5627 48.4173 35.2918C48.4173 36.1121 47.6882 36.7502 46.959 36.7502H36.7507V46.9585C36.7507 47.7788 36.0215 48.4168 35.2923 48.4168C34.472 48.4168 33.834 47.7788 33.834 46.9585V35.2918C33.834 34.5627 34.472 33.8335 35.2923 33.8335Z" fill="#314081"/>
</svg>
