<svg width="56" height="56" viewBox="0 0 56 56" fill="none" xmlns="http://www.w3.org/2000/svg">
<path d="M9.55143 10.8671C10.2036 11.4261 10.2036 12.3578 9.73777 12.9168C6.19727 17.1095 4.1475 22.5135 4.1475 28.2901C4.1475 34.1599 6.19727 39.5638 9.73777 43.6634C10.2036 44.3156 10.2036 45.2473 9.55143 45.8063C8.89923 46.3653 7.96752 46.2722 7.40849 45.62C3.4953 40.9614 1.16602 34.9053 1.16602 28.2901C1.16602 21.7681 3.4953 15.712 7.40849 11.0534C7.96752 10.4012 8.89923 10.308 9.55143 10.8671ZM46.3541 10.8671C47.0063 10.308 47.938 10.4012 48.497 11.0534C52.4102 15.712 54.8327 21.7681 54.8327 28.2901C54.8327 34.9053 52.4102 40.9614 48.497 45.62C47.938 46.2722 47.0063 46.3653 46.3541 45.8063C45.7951 45.2473 45.7019 44.3156 46.1677 43.6634C49.7083 39.5638 51.8512 34.1599 51.8512 28.2901C51.8512 22.5135 49.7083 17.1095 46.1677 12.9168C45.7019 12.3578 45.7951 11.4261 46.3541 10.8671ZM22.0364 28.2901C22.0364 26.2403 23.1544 24.2837 25.0179 23.1657C26.7881 22.1408 29.1174 22.1408 30.9808 23.1657C32.7511 24.2837 33.9623 26.2403 33.9623 28.2901C33.9623 30.433 32.7511 32.3896 30.9808 33.5077C29.1174 34.5326 26.7881 34.5326 25.0179 33.5077C23.1544 32.3896 22.0364 30.433 22.0364 28.2901ZM27.9993 31.2716C29.5833 31.2716 30.9808 29.9672 30.9808 28.2901C30.9808 26.7062 29.5833 25.3086 27.9993 25.3086C26.3223 25.3086 25.0179 26.7062 25.0179 28.2901C25.0179 29.9672 26.3223 31.2716 27.9993 31.2716ZM16.4461 18.8798C14.3032 21.3954 13.0919 24.7496 13.0919 28.2901C13.0919 31.9238 14.3032 35.2779 16.4461 37.7936C17.0051 38.4458 16.912 39.3775 16.2598 39.9365C15.6076 40.4024 14.6759 40.3092 14.21 39.7502C11.6012 36.5823 10.1105 32.6691 10.1105 28.2901C10.1105 24.0042 11.6012 19.9979 14.1168 16.9232C14.6759 16.271 15.6076 16.1778 16.2598 16.7369C16.912 17.2959 17.0051 18.2276 16.4461 18.8798ZM41.7887 16.9232C44.3043 19.9979 45.8882 24.0042 45.8882 28.2901C45.8882 32.6691 44.3043 36.5823 41.7887 39.7502C41.2297 40.3092 40.298 40.4024 39.6458 39.9365C38.9936 39.3775 38.9004 38.4458 39.4594 37.7936C41.6024 35.2779 42.9068 31.9238 42.9068 28.2901C42.9068 24.7496 41.6024 21.3954 39.4594 18.8798C38.9004 18.2276 38.9936 17.2959 39.6458 16.7369C40.298 16.271 41.2297 16.271 41.7887 16.9232Z" fill="#314081"/>
</svg>
