<svg width="30" height="24" viewBox="0 0 30 24" fill="none" xmlns="http://www.w3.org/2000/svg">
<path d="M27.75 1.5H14.25C13.8281 1.5 13.5 1.875 13.5 2.25V6H12V2.25C12 1.03125 12.9844 0 14.25 0H27.75C28.9688 0 30 1.03125 30 2.25V21.75C30 23.0156 28.9688 24 27.75 24H17.8594C17.9531 23.7656 18 23.5312 18 23.25V22.5H27.75C28.125 22.5 28.5 22.1719 28.5 21.75V2.25C28.5 1.875 28.125 1.5 27.75 1.5ZM26.0156 14.8594C26.2969 15.1406 26.2969 15.6562 26.0156 15.9375C25.7344 16.2188 25.2188 16.2188 24.9375 15.9375L23.25 14.2031V20.25C23.25 20.6719 22.875 21 22.5 21C22.0781 21 21.75 20.6719 21.75 20.25V14.2031L20.0156 15.9375C19.7344 16.2188 19.2188 16.2188 18.9375 15.9375C18.6562 15.6562 18.6562 15.1406 18.9375 14.8594L21.9375 11.8594C22.2188 11.5781 22.7344 11.5781 23.0156 11.8594L26.0156 14.8594ZM16.5 9H1.5V12H3H15H16.5V9ZM0 12V9C0 8.20312 0.65625 7.5 1.5 7.5H16.5C17.2969 7.5 18 8.20312 18 9V12C18 12.8438 17.2969 13.5 16.5 13.5V22.5C16.5 23.3438 15.7969 24 15 24H3C2.15625 24 1.5 23.3438 1.5 22.5V13.5C0.65625 13.5 0 12.8438 0 12ZM3 13.5V22.5H15V13.5H3ZM6.75 15H11.25C11.625 15 12 15.375 12 15.75C12 16.1719 11.625 16.5 11.25 16.5H6.75C6.32812 16.5 6 16.1719 6 15.75C6 15.375 6.32812 15 6.75 15Z" fill="#314081"/>
</svg>
