<svg width="28" height="19" viewBox="0 0 28 19" fill="none" xmlns="http://www.w3.org/2000/svg">
<path d="M6.73438 2.01562C7.53125 2.53125 8.51562 3 9.5 3C10.4375 3 11.4219 2.57812 12.2188 2.01562C12.6875 1.73438 13.0625 1.35938 13.4375 0.984375C13.7188 0.703125 14.2344 0.703125 14.5156 0.984375C14.8906 1.35938 15.3125 1.73438 15.7344 2.01562C16.5312 2.53125 17.5156 3 18.5 3C19.4375 3 20.4219 2.57812 21.2188 2.01562C21.6875 1.73438 22.0625 1.35938 22.4375 0.984375C22.7188 0.703125 23.2344 0.703125 23.5156 0.984375C23.8906 1.35938 24.3125 1.73438 24.7344 2.01562C25.3438 2.4375 26.0469 2.8125 26.7969 2.95312C27.1719 3.04688 27.5 3.32812 27.5 3.70312C27.5 4.17188 27.125 4.54688 26.6562 4.45312C25.5781 4.26562 24.5938 3.75 23.8906 3.28125C23.5156 3 23.2344 2.76562 23 2.53125C22.7188 2.76562 22.4375 3 22.0625 3.28125C21.1719 3.84375 19.9062 4.5 18.5 4.5C17.0469 4.5 15.7812 3.84375 14.8906 3.28125C14.5156 3 14.2344 2.76562 14 2.53125C13.7188 2.76562 13.4375 3 13.0625 3.28125C12.1719 3.84375 10.9062 4.5 9.5 4.5C8.04688 4.5 6.78125 3.84375 5.89062 3.28125C5.51562 3 5.23438 2.76562 5 2.53125C4.71875 2.76562 4.4375 3 4.0625 3.28125C3.35938 3.75 2.375 4.26562 1.29688 4.45312C0.875 4.54688 0.5 4.125 0.5 3.70312C0.5 3.32812 0.78125 3.04688 1.15625 2.95312C1.90625 2.8125 2.60938 2.4375 3.21875 2.01562C3.64062 1.6875 4.0625 1.35938 4.4375 0.984375C4.71875 0.703125 5.23438 0.703125 5.51562 0.984375C5.89062 1.35938 6.3125 1.6875 6.73438 2.01562ZM6.73438 15.5156C7.53125 16.0312 8.51562 16.5 9.5 16.5C10.4375 16.5 11.4219 16.0781 12.2188 15.5156C12.6875 15.2344 13.0625 14.8594 13.4375 14.4844C13.7188 14.2031 14.2344 14.2031 14.5156 14.4844C14.8906 14.8594 15.3125 15.2344 15.7344 15.5156C16.5312 16.0312 17.5156 16.5 18.5 16.5C19.4375 16.5 20.4219 16.0781 21.2188 15.5156C21.6875 15.2344 22.0625 14.8594 22.4375 14.4844C22.7188 14.2031 23.2344 14.2031 23.5156 14.4844C23.8906 14.8594 24.3125 15.2344 24.7344 15.5156C25.3438 15.9375 26.0469 16.3125 26.7969 16.4531C27.1719 16.5469 27.5 16.8281 27.5 17.2031C27.5 17.6719 27.125 18.0469 26.6562 17.9531C25.5781 17.7656 24.5938 17.25 23.8906 16.7812C23.5156 16.5 23.2344 16.2656 23 16.0312C22.7188 16.2656 22.4375 16.5 22.0625 16.7812C21.1719 17.3438 19.9062 18 18.5 18C17.0469 18 15.7812 17.3438 14.8906 16.7812C14.5156 16.5 14.2344 16.2656 14 16.0312C13.7188 16.2656 13.4375 16.5 13.0625 16.7812C12.1719 17.3438 10.9062 18 9.5 18C8.04688 18 6.78125 17.3438 5.89062 16.7812C5.51562 16.5 5.23438 16.2656 5 16.0312C4.71875 16.2656 4.4375 16.5 4.0625 16.7812C3.35938 17.25 2.375 17.7656 1.29688 17.9531C0.875 18.0469 0.5 17.625 0.5 17.2031C0.5 16.8281 0.78125 16.5469 1.15625 16.4531C1.90625 16.3125 2.60938 15.9375 3.21875 15.5156C3.64062 15.1875 4.0625 14.8594 4.4375 14.4844C4.71875 14.2031 5.23438 14.2031 5.51562 14.4844C5.89062 14.8594 6.3125 15.1875 6.73438 15.5156ZM9.5 9.75C10.4375 9.75 11.4219 9.32812 12.2188 8.76562C12.6875 8.48438 13.0625 8.10938 13.4375 7.73438C13.7188 7.45312 14.2344 7.45312 14.5156 7.73438C14.8906 8.10938 15.3125 8.48438 15.7344 8.76562C16.5312 9.28125 17.5156 9.75 18.5 9.75C19.4375 9.75 20.4219 9.32812 21.2188 8.76562C21.6875 8.48438 22.0625 8.10938 22.4375 7.73438C22.7188 7.45312 23.2344 7.45312 23.5156 7.73438C23.8906 8.10938 24.3125 8.48438 24.7344 8.76562C25.3438 9.1875 26.0469 9.5625 26.7969 9.70312C27.1719 9.79688 27.5 10.0781 27.5 10.4531C27.5 10.9219 27.125 11.2969 26.6562 11.2031C25.5781 11.0156 24.5938 10.5 23.8906 10.0312C23.5156 9.75 23.2344 9.51562 23 9.28125C22.7188 9.51562 22.4375 9.75 22.0625 10.0312C21.1719 10.5938 19.9062 11.25 18.5 11.25C17.0469 11.25 15.7812 10.5938 14.8906 10.0312C14.5156 9.75 14.2344 9.51562 14 9.28125C13.7188 9.51562 13.4375 9.75 13.0625 10.0312C12.1719 10.5938 10.9062 11.25 9.5 11.25C8.04688 11.25 6.78125 10.5938 5.89062 10.0312C5.51562 9.75 5.23438 9.51562 5 9.28125C4.71875 9.51562 4.4375 9.75 4.0625 10.0312C3.35938 10.5 2.375 11.0156 1.29688 11.2031C0.875 11.2969 0.5 10.875 0.5 10.4531C0.5 10.0781 0.78125 9.79688 1.15625 9.70312C1.90625 9.5625 2.60938 9.1875 3.21875 8.76562C3.64062 8.4375 4.0625 8.10938 4.4375 7.73438C4.71875 7.45312 5.23438 7.45312 5.51562 7.73438C5.89062 8.10938 6.3125 8.4375 6.73438 8.76562C7.53125 9.28125 8.51562 9.75 9.5 9.75Z" fill="#314081"/>
</svg>
