<svg width="18" height="24" viewBox="0 0 18 24" fill="none" xmlns="http://www.w3.org/2000/svg">
<path d="M14.5312 12.1406C15.2812 11.0156 15.75 9.70312 15.75 8.25C15.75 4.54688 12.7031 1.5 9 1.5C5.25 1.5 2.25 4.54688 2.25 8.25C2.25 9.70312 2.67188 11.0156 3.42188 12.1406C3.60938 12.375 3.84375 12.7031 4.07812 13.0312C4.6875 13.8281 5.34375 14.7656 5.85938 15.7031C6.28125 16.4531 6.51562 17.25 6.60938 18.0469H5.10938C4.96875 17.4844 4.82812 16.9219 4.54688 16.4062C4.07812 15.5625 3.51562 14.7656 2.90625 13.9688C2.67188 13.6406 2.4375 13.3125 2.20312 12.9844C1.26562 11.625 0.75 10.0312 0.75 8.25C0.75 3.70312 4.40625 0 9 0C13.5469 0 17.25 3.70312 17.25 8.25C17.25 10.0312 16.6875 11.625 15.75 12.9844C15.5156 13.3125 15.2812 13.6406 15.0469 13.9688C14.4375 14.7656 13.875 15.5625 13.4062 16.4062C13.125 16.9219 12.9844 17.4375 12.8438 18H11.3438C11.4844 17.25 11.6719 16.4531 12.0938 15.7031C12.6094 14.7656 13.3125 13.8281 13.875 12.9844C14.1094 12.7031 14.3438 12.375 14.5312 12.0938V12.1406ZM9 4.5C6.89062 4.5 5.25 6.1875 5.25 8.25C5.25 8.67188 4.875 9 4.5 9C4.07812 9 3.75 8.67188 3.75 8.25C3.75 5.39062 6.09375 3 9 3C9.375 3 9.75 3.375 9.75 3.75C9.75 4.17188 9.375 4.5 9 4.5ZM6.84375 21C7.17188 21.8906 8.01562 22.5 9 22.5C9.9375 22.5 10.7812 21.8906 11.1094 21H6.84375ZM5.25 20.25V20.0156C5.25 19.7344 5.4375 19.5 5.71875 19.5H12.2344C12.5156 19.5 12.75 19.7344 12.75 20.0156V20.25C12.75 22.3594 11.0625 24 9 24C6.89062 24 5.25 22.3594 5.25 20.25Z" fill="#314081"/>
</svg>
