<svg width="30" height="24" viewBox="0 0 30 24" fill="none" xmlns="http://www.w3.org/2000/svg">
<path d="M3.5625 0H5.25H12.75H14.25C14.625 0 15 0.375 15 0.75C15 1.17188 14.625 1.5 14.25 1.5H13.5V9.75H15V11.25H12.75C12.3281 11.25 12 10.9219 12 10.5V1.5H6V10.5C6 10.9219 5.625 11.25 5.25 11.25H1.5V17.25H15V18.75H1.5V19.5C1.5 19.9219 1.125 20.25 0.75 20.25C0.328125 20.25 0 19.9219 0 19.5V18V10.5V9C0 8.625 0.328125 8.25 0.75 8.25C1.125 8.25 1.5 8.625 1.5 9V9.75H4.5V1.5H3.5625C3.1875 1.5 2.8125 1.17188 2.8125 0.75C2.8125 0.375 3.1875 0 3.5625 0ZM21.0469 6.28125L18.6562 7.875C18.2344 8.15625 18 8.625 18 9.14062V19.4062C18 19.9219 18.2344 20.3906 18.6562 20.6719L21.0469 22.2656C21.2812 22.4531 21.6094 22.5 21.8906 22.5H27C27.7969 22.5 28.5 21.8438 28.5 21V7.5C28.5 6.70312 27.7969 6 27 6H21.8906C21.6094 6 21.2812 6.09375 21.0469 6.28125ZM20.2031 23.5312L17.8125 21.8906C16.9688 21.375 16.5 20.4375 16.5 19.4062V9.14062C16.5 8.10938 16.9688 7.17188 17.8125 6.60938L20.2031 5.01562C20.7188 4.6875 21.2812 4.5 21.8906 4.5H27C28.6406 4.5 30 5.85938 30 7.5V21C30 22.6875 28.6406 24 27 24H21.8906C21.2812 24 20.7188 23.8594 20.2031 23.5312ZM21 10.5C21 10.125 21.3281 9.75 21.75 9.75H25.5C25.875 9.75 26.25 10.125 26.25 10.5C26.25 10.9219 25.875 11.25 25.5 11.25H21.75C21.3281 11.25 21 10.9219 21 10.5ZM21 14.25C21 13.875 21.3281 13.5 21.75 13.5H25.5C25.875 13.5 26.25 13.875 26.25 14.25C26.25 14.6719 25.875 15 25.5 15H21.75C21.3281 15 21 14.6719 21 14.25ZM21 18C21 17.625 21.3281 17.25 21.75 17.25H25.5C25.875 17.25 26.25 17.625 26.25 18C26.25 18.4219 25.875 18.75 25.5 18.75H21.75C21.3281 18.75 21 18.4219 21 18Z" fill="#314081"/>
</svg>
