<svg width="18" height="24" viewBox="0 0 18 24" fill="none" xmlns="http://www.w3.org/2000/svg">
<path d="M6 0.75V1.5H7.5C7.875 1.5 8.25 1.875 8.25 2.25C8.25 2.67188 7.875 3 7.5 3H3C2.57812 3 2.25 2.67188 2.25 2.25C2.25 1.875 2.57812 1.5 3 1.5H4.5V0.75C4.5 0.375 4.82812 0 5.25 0C5.625 0 6 0.375 6 0.75ZM13.5 0.75V1.5H15C15.375 1.5 15.75 1.875 15.75 2.25C15.75 2.67188 15.375 3 15 3H10.5C10.0781 3 9.75 2.67188 9.75 2.25C9.75 1.875 10.0781 1.5 10.5 1.5H12V0.75C12 0.375 12.3281 0 12.75 0C13.125 0 13.5 0.375 13.5 0.75ZM2.25 5.25C2.25 4.875 2.57812 4.5 3 4.5H7.5C7.875 4.5 8.25 4.875 8.25 5.25C8.25 5.67188 7.875 6 7.5 6H3C2.57812 6 2.25 5.67188 2.25 5.25ZM9.75 5.25C9.75 4.875 10.0781 4.5 10.5 4.5H15C15.375 4.5 15.75 4.875 15.75 5.25C15.75 5.67188 15.375 6 15 6H10.5C10.0781 6 9.75 5.67188 9.75 5.25ZM0.75 7.5H2.25H15.75H17.25C17.625 7.5 18 7.875 18 8.25C18 8.67188 17.625 9 17.25 9H16.5V22.5H17.25C17.625 22.5 18 22.875 18 23.25C18 23.6719 17.625 24 17.25 24H15.75H2.25H0.75C0.328125 24 0 23.6719 0 23.25C0 22.875 0.328125 22.5 0.75 22.5H1.5V9H0.75C0.328125 9 0 8.67188 0 8.25C0 7.875 0.328125 7.5 0.75 7.5ZM3 22.5H15V9H3V22.5ZM6.65625 15.75H7.875C8.0625 15.75 8.25 15.8438 8.39062 16.0312C8.57812 16.1719 8.625 16.4062 8.625 16.5938L8.39062 18.6562L11.2969 15.75H10.125C9.89062 15.75 9.70312 15.6562 9.5625 15.5156C9.42188 15.375 9.32812 15.1406 9.375 14.9531L9.5625 12.8906L6.65625 15.75ZM10.2188 10.5C10.7812 10.5 11.25 11.0156 11.2031 11.625L10.9219 14.25H12.4688C13.0312 14.25 13.5 14.7188 13.5 15.2812C13.5 15.5625 13.3594 15.7969 13.1719 15.9844L8.4375 20.7188C8.25 20.9062 8.01562 21 7.73438 21C7.17188 21 6.70312 20.5312 6.75 19.9219L7.03125 17.25H5.48438C4.92188 17.25 4.5 16.8281 4.5 16.2656C4.5 15.9844 4.59375 15.75 4.78125 15.5156L9.51562 10.8281C9.70312 10.6406 9.9375 10.5 10.2188 10.5Z" fill="#314081"/>
</svg>
