<svg width="22" height="24" viewBox="0 0 22 24" fill="none" xmlns="http://www.w3.org/2000/svg">
<path d="M3.5 1.5C2.65625 1.5 2 2.20312 2 3V21C2 21.8438 2.65625 22.5 3.5 22.5H18.5C19.2969 22.5 20 21.8438 20 21V3C20 2.20312 19.2969 1.5 18.5 1.5H3.5ZM0.5 3C0.5 1.35938 1.8125 0 3.5 0H18.5C20.1406 0 21.5 1.35938 21.5 3V21C21.5 22.6875 20.1406 24 18.5 24H3.5C1.8125 24 0.5 22.6875 0.5 21V3ZM5.375 3.375C5.98438 3.375 6.5 3.89062 6.5 4.5C6.5 5.15625 5.98438 5.625 5.375 5.625C4.71875 5.625 4.25 5.15625 4.25 4.5C4.25 3.89062 4.71875 3.375 5.375 3.375ZM8 4.5C8 3.89062 8.46875 3.375 9.125 3.375C9.73438 3.375 10.25 3.89062 10.25 4.5C10.25 5.15625 9.73438 5.625 9.125 5.625C8.46875 5.625 8 5.15625 8 4.5ZM16.25 14.25C16.25 12.375 15.2188 10.6875 13.625 9.75C11.9844 8.76562 9.96875 8.76562 8.375 9.75C6.73438 10.6875 5.75 12.375 5.75 14.25C5.75 16.1719 6.73438 17.8594 8.375 18.7969C9.96875 19.7812 11.9844 19.7812 13.625 18.7969C15.2188 17.8594 16.25 16.1719 16.25 14.25ZM4.25 14.25C4.25 11.8594 5.51562 9.65625 7.625 8.4375C9.6875 7.21875 12.2656 7.21875 14.375 8.4375C16.4375 9.65625 17.75 11.8594 17.75 14.25C17.75 16.6875 16.4375 18.8906 14.375 20.1094C12.2656 21.3281 9.6875 21.3281 7.625 20.1094C5.51562 18.8906 4.25 16.6875 4.25 14.25ZM9.64062 10.7344L9.875 10.9688C10.3438 11.4375 10.625 12.0938 10.625 12.75C10.625 13.4531 10.3438 14.1094 9.875 14.5781L9.40625 15C9.21875 15.2344 9.125 15.4688 9.125 15.75C9.125 16.0312 9.21875 16.3125 9.40625 16.5L9.64062 16.7344C9.92188 17.0156 9.92188 17.5312 9.64062 17.8125C9.35938 18.0938 8.84375 18.0938 8.5625 17.8125L8.375 17.5781C7.85938 17.1094 7.625 16.4531 7.625 15.75C7.625 15.0938 7.85938 14.4375 8.375 13.9688L8.79688 13.5C8.98438 13.3125 9.125 13.0312 9.125 12.75C9.125 12.4688 8.98438 12.2344 8.79688 12L8.5625 11.8125C8.28125 11.5312 8.28125 11.0156 8.5625 10.7344C8.84375 10.4531 9.35938 10.4531 9.64062 10.7344ZM13.3906 10.7344L13.625 10.9688C14.0938 11.4375 14.375 12.0938 14.375 12.75C14.375 13.4531 14.0938 14.1094 13.625 14.5781L13.1562 15C12.9688 15.2344 12.875 15.4688 12.875 15.75C12.875 16.0312 12.9688 16.3125 13.1562 16.5L13.3906 16.7344C13.6719 17.0156 13.6719 17.5312 13.3906 17.8125C13.1094 18.0938 12.5938 18.0938 12.3125 17.8125L12.125 17.5781C11.6094 17.1094 11.375 16.4531 11.375 15.75C11.375 15.0938 11.6094 14.4375 12.125 13.9688L12.5469 13.5C12.7344 13.3125 12.875 13.0312 12.875 12.75C12.875 12.4688 12.7344 12.2344 12.5469 12L12.3125 11.8125C12.0312 11.5312 12.0312 11.0156 12.3125 10.7344C12.5938 10.4531 13.1094 10.4531 13.3906 10.7344Z" fill="#314081"/>
</svg>
