<svg width="22" height="25" viewBox="0 0 22 25" fill="none" xmlns="http://www.w3.org/2000/svg">
<path d="M11.7031 6.15625C10.7188 4.9375 9.6875 3.8125 8.60938 2.73438C6.6875 4.5625 5.04688 6.625 3.875 8.59375C2.65625 10.6562 2 12.5781 2 13.9844C2 19.2344 6.03125 23.5 11 23.5C15.875 23.5 20 19.2344 20 13.9844C20 12.9531 19.4844 11.2656 18.5469 9.39062C17.7031 7.75 16.5781 6.01562 15.2656 4.65625C14.8906 5.125 14.4688 5.59375 14.0938 6.10938C13.8125 6.48438 13.3438 6.71875 12.9219 6.71875C12.4531 6.71875 11.9844 6.53125 11.7031 6.15625ZM12.875 5.21875C13.2031 4.84375 13.4844 4.42188 13.8594 4C14.0938 3.71875 14.375 3.4375 14.6094 3.20312C14.9844 2.875 15.5469 2.875 15.9219 3.20312C17.5625 4.75 18.9219 6.8125 19.9062 8.73438C20.8438 10.6562 21.5 12.625 21.5 13.9844C21.5 19.9844 16.8125 25 11 25C5.09375 25 0.5 19.9844 0.5 13.9844C0.5 12.2031 1.29688 10 2.60938 7.79688C3.92188 5.59375 5.75 3.29688 7.95312 1.28125C8.32812 0.953125 8.89062 0.953125 9.26562 1.28125C10.1562 2.125 11.0469 3.0625 11.8906 4.04688C12.2188 4.42188 12.5469 4.79688 12.875 5.21875ZM6.5 15.3906H6.45312C6.45312 16.7969 6.96875 17.875 7.76562 18.625C8.60938 19.3281 9.73438 19.75 11.0469 19.75C12.0781 19.75 13.0156 19.4688 13.8594 18.9062C15.4531 17.7812 15.875 15.5312 15.0312 13.75L13.9531 15.0156C13.3438 15.7188 12.2188 15.7188 11.6094 14.9688C10.8594 13.9844 9.45312 12.2031 8.70312 11.2188C7.10938 13.2344 6.5 14.3125 6.5 15.3906ZM9.875 10.2812C10.625 11.2656 12.0312 13.0469 12.7812 14.0312L13.9531 12.6719C14.5625 11.9688 15.7812 11.9219 16.2969 12.9062C17.4688 15.25 17.0938 18.4844 14.7031 20.1719C13.5781 20.875 12.4062 21.25 11.0469 21.25C9.40625 21.25 7.90625 20.7344 6.78125 19.7031C5.65625 18.6719 5 17.2188 5 15.3906C5 13.7031 5.9375 12.25 7.53125 10.2812C8.14062 9.53125 9.26562 9.53125 9.875 10.2812Z" fill="#314081"/>
</svg>
