<svg width="374" height="579" viewBox="0 0 374 579" fill="none" xmlns="http://www.w3.org/2000/svg">
<g opacity="0.5" clip-path="url(#clip0_3927_34868)">
<path d="M65.3374 482.128L65.3374 661.146L39.5364 686.933L39.5364 856.156L37.752 856.156L37.7519 686.197L63.5693 660.41L63.5693 482.128L65.3374 482.128Z" fill="#DEDDEC"/>
<path d="M53.4851 457.682L53.4851 638.793L51.7006 638.793L51.7006 458.418L14.0469 420.793L14.0469 294.035L15.8149 294.035L15.815 420.057L53.4851 457.682Z" fill="#DEDDEC"/>
<path d="M81.3813 431.209L81.3813 556.593L79.6132 556.593L79.6132 431.945L37.0644 389.447L37.0644 255.658L63.9132 228.824L63.9132 172.01L65.6977 172.01L65.6977 229.56L38.8325 256.393L38.8325 388.711L81.3813 431.209Z" fill="#314081"/>
<path d="M358.644 362.303L358.644 543.071L320.63 581.039L320.63 663.206L350.622 693.162L350.622 746.093L348.838 746.093L348.838 693.898L318.846 663.942L318.846 580.303L356.86 542.335L356.86 362.303L358.644 362.303Z" fill="#DEDDEC"/>
<path d="M371.544 307.214L371.544 394.957L369.759 394.957L369.759 307.95L321.645 259.876L321.645 112.891L323.413 112.891L323.413 259.14L371.544 307.214Z" fill="#314081"/>
<path d="M354.469 311.057L326.9 338.593L326.9 551.77L299.004 579.649L299.004 709.22L250.185 757.997L250.185 875.679L282.551 908.007L281.29 909.266L248.4 876.415L248.4 757.261L297.219 708.484L297.219 578.913L325.132 551.034L325.132 337.857L351.965 311.057L310.48 269.622L310.48 115.687L312.264 115.687L312.264 268.886L354.469 311.057Z" fill="#DEDDEC"/>
<path d="M103.351 414.138L103.351 640.608L51.7329 692.149L51.7329 860.015L69.8722 878.132L69.8722 1059.24L68.0878 1059.24L68.0877 878.868L49.9648 860.75L49.9648 691.413L101.583 639.872L101.583 414.874L59.4437 372.801L60.7043 371.542L103.351 414.138Z" fill="#DEDDEC"/>
<path d="M147.652 694.552L147.652 885.49L105.808 927.285L105.808 1049.14L104.023 1049.14L104.023 926.549L145.868 884.755L145.868 695.288L112.913 662.372L112.913 397.459L56.6777 341.291L56.6777 266.515L58.4622 266.515L58.4622 340.555L114.697 396.723L114.697 661.636L147.652 694.552Z" fill="#DEDDEC"/>
<path d="M276.347 539.898L276.347 704.707L239.627 741.383L238.366 740.124L274.563 703.971L274.563 540.634L213.875 480.018L213.875 351.167L215.659 351.167L215.659 479.283L276.347 539.898Z" fill="#314081"/>
<path d="M257.502 546.161L257.502 693.212L230.195 720.486L180.607 670.941L180.607 721.206L207.914 748.48L206.653 749.739L178.822 721.941L178.822 666.657L230.195 717.968L255.734 692.476L255.734 546.897L195.455 486.707L196.716 485.448L257.502 546.161Z" fill="#DEDDEC"/>
<path d="M159.801 659.658L158.54 660.917L133.836 636.259L133.836 381.794L109.41 357.398L110.671 356.139L135.62 381.059L135.62 635.523L159.801 659.658Z" fill="#DEDDEC"/>
<path d="M203.626 544.085L203.626 675.65L160.93 633.005L162.19 631.762L201.841 671.349L201.841 544.82L171.244 514.243L171.244 398.195L173.028 398.195L173.028 513.507L203.626 544.085Z" fill="#DEDDEC"/>
<path d="M236.58 549.301L236.58 680.67L224.973 692.263L223.712 691.004L234.795 679.934L234.795 550.037L197.551 512.837L198.811 511.577L236.58 549.301Z" fill="#DEDDEC"/>
<path d="M182.704 555.579L182.704 631.762L153.612 602.705L154.873 601.446L180.919 627.461L180.919 556.315L155.544 530.97L155.544 361.943L81.1367 287.609L81.1367 235.169L82.9212 235.169L82.9212 286.873L157.328 361.207L157.328 530.234L182.704 555.579Z" fill="#DEDDEC"/>
<path d="M321.334 292.236L321.334 327.458L306.682 342.076L306.682 545.85L292.03 560.485L292.03 592.469L290.262 592.469L290.262 559.749L304.898 545.114L304.898 341.34L319.55 326.722L319.55 292.972L297.58 271.028L297.58 167.244L299.364 167.244L299.364 270.276L321.334 292.236Z" fill="#DEDDEC"/>
<path d="M293.078 445.206L293.078 517.333L255.211 479.495L255.211 344.889L256.995 344.889L256.995 478.759L291.309 513.033L291.309 445.206L293.078 445.206Z" fill="#DEDDEC"/>
<path d="M264.313 180.423L264.313 287.216L230.31 321.178L230.31 469.88L260.236 499.771L258.976 501.03L228.525 470.616L228.525 320.443L262.528 286.48L262.528 181.159L220.945 139.61L220.945 69.0033L222.73 69.0033L222.73 138.874L264.313 180.423Z" fill="#DEDDEC"/>
<path d="M192.641 332.984L192.641 455.573L190.856 455.573L190.856 333.72L136.979 279.907L136.979 219.488L138.763 219.488L138.763 279.171L192.641 332.984Z" fill="#DEDDEC"/>
<path d="M155.607 333.622L154.347 334.865L101.402 282L101.402 203.414L134.62 170.236L134.62 147.904L136.404 147.904L136.404 170.972L103.187 204.15L103.187 281.264L155.607 333.622Z" fill="#314081"/>
<path d="M288.904 149.061L288.904 315.962L277.395 327.458L277.395 448.264L275.61 448.264L275.61 326.722L287.119 315.227L287.119 149.797L259.91 122.637L259.91 29.3016L261.695 29.3016L261.695 121.901L288.904 149.061Z" fill="#314081"/>
<path d="M159.161 99.3191L159.161 178.527L123.046 214.598L123.046 284.191L121.262 284.191L121.262 213.863L157.377 177.791L157.377 99.3191L159.161 99.3191Z" fill="#DEDDEC"/>
<path d="M242.867 197.135L242.867 280.43L207.44 315.799L164.072 272.483L165.333 271.224L207.44 313.281L241.082 279.694L241.082 197.871L191.379 148.244L191.379 3.17163L193.164 3.17163L193.164 147.508L242.867 197.135Z" fill="#DEDDEC"/>
<path d="M204.263 266.221L203.002 267.463L176.219 240.712L176.219 104.012L177.987 104.012L177.987 239.976L204.263 266.221Z" fill="#DEDDEC"/>
<path d="M221.944 210.723L221.944 260.269L194.424 232.781L195.668 231.522L220.159 255.968L220.159 211.459L202.79 194.11L204.05 192.851L221.944 210.723Z" fill="#DEDDEC"/>
<path d="M67.7927 482.292C67.7927 480.444 66.2866 478.956 64.453 478.956C62.6194 478.956 61.1133 480.46 61.1133 482.292C61.1133 484.123 62.6194 485.627 64.453 485.627C66.2866 485.627 67.7927 484.123 67.7927 482.292Z" fill="#DEDDEC"/>
<path d="M18.2693 294.199C18.2693 292.351 16.7631 290.863 14.9296 290.863C13.096 290.863 11.5898 292.368 11.5898 294.199C11.5898 296.03 13.096 297.535 14.9296 297.535C16.7631 297.535 18.2693 296.03 18.2693 294.199Z" fill="#DEDDEC"/>
<path d="M83.8376 556.43C83.8376 558.278 82.3315 559.766 80.4979 559.766C78.6643 559.766 77.1582 558.262 77.1582 556.43C77.1582 554.599 78.6643 553.095 80.4979 553.095C82.3315 553.095 83.8376 554.599 83.8376 556.43Z" fill="#314081"/>
<path d="M68.1541 172.174C68.1541 170.326 66.6479 168.838 64.8143 168.838C62.9808 168.838 61.4746 170.343 61.4746 172.174C61.4746 174.005 62.9808 175.51 64.8143 175.51C66.6479 175.51 68.1541 174.005 68.1541 172.174Z" fill="#314081"/>
<path d="M361.099 362.467C361.099 360.619 359.593 359.131 357.76 359.131C355.926 359.131 354.42 360.636 354.42 362.467C354.42 364.298 355.926 365.803 357.76 365.803C359.593 365.803 361.099 364.298 361.099 362.467Z" fill="#DEDDEC"/>
<path d="M374 394.794C374 396.642 372.494 398.13 370.66 398.13C368.826 398.13 367.32 396.626 367.32 394.794C367.32 392.963 368.826 391.458 370.66 391.458C372.494 391.458 374 392.963 374 394.794Z" fill="#314081"/>
<path d="M325.869 113.055C325.869 111.213 324.374 109.72 322.529 109.72C320.685 109.72 319.189 111.213 319.189 113.055C319.189 114.898 320.685 116.391 322.529 116.391C324.374 116.391 325.869 114.898 325.869 113.055Z" fill="#314081"/>
<path d="M314.72 115.852C314.72 114.004 313.214 112.516 311.381 112.516C309.547 112.516 308.041 114.02 308.041 115.852C308.041 117.683 309.547 119.187 311.381 119.187C313.214 119.187 314.72 117.683 314.72 115.852Z" fill="#DEDDEC"/>
<path d="M62.5534 369.924C61.2437 368.616 59.1318 368.616 57.8221 369.924C56.5124 371.232 56.5124 373.341 57.8221 374.649C59.1318 375.957 61.2437 375.957 62.5534 374.649C63.8631 373.341 63.8631 371.232 62.5534 369.924Z" fill="#DEDDEC"/>
<path d="M60.9002 266.679C60.9002 264.837 59.4049 263.344 57.5604 263.344C55.7159 263.344 54.2207 264.837 54.2207 266.679C54.2207 268.522 55.716 270.015 57.5604 270.015C59.4049 270.015 60.9002 268.522 60.9002 266.679Z" fill="#DEDDEC"/>
<path d="M218.113 351.332C218.113 349.484 216.607 347.996 214.773 347.996C212.94 347.996 211.434 349.5 211.434 351.332C211.434 353.163 212.94 354.667 214.773 354.667C216.607 354.667 218.113 353.163 218.113 351.332Z" fill="#314081"/>
<path d="M198.583 483.829C197.273 482.521 195.161 482.521 193.851 483.829C192.542 485.137 192.542 487.246 193.851 488.555C195.161 489.863 197.273 489.863 198.583 488.555C199.892 487.246 199.892 485.137 198.583 483.829Z" fill="#DEDDEC"/>
<path d="M112.518 354.52C111.209 353.212 109.097 353.212 107.787 354.52C106.477 355.828 106.477 357.938 107.787 359.246C109.097 360.554 111.209 360.554 112.518 359.246C113.828 357.938 113.828 355.828 112.518 354.52Z" fill="#DEDDEC"/>
<path d="M175.484 398.359C175.484 396.511 173.978 395.023 172.144 395.023C170.311 395.023 168.805 396.528 168.805 398.359C168.805 400.19 170.311 401.695 172.144 401.695C173.978 401.695 175.484 400.19 175.484 398.359Z" fill="#DEDDEC"/>
<path d="M200.678 509.959C199.369 508.651 197.257 508.651 195.947 509.959C194.637 511.267 194.637 513.376 195.947 514.684C197.257 515.993 199.369 515.993 200.678 514.684C201.988 513.376 201.988 511.267 200.678 509.959Z" fill="#DEDDEC"/>
<path d="M85.3767 235.333C85.3767 233.485 83.8706 231.997 82.037 231.997C80.2034 231.997 78.6973 233.502 78.6973 235.333C78.6973 237.165 80.2034 238.669 82.037 238.669C83.8706 238.669 85.3767 237.165 85.3767 235.333Z" fill="#DEDDEC"/>
<path d="M301.82 167.408C301.82 165.561 300.314 164.073 298.48 164.073C296.647 164.073 295.141 165.577 295.141 167.408C295.141 169.24 296.647 170.744 298.48 170.744C300.314 170.744 301.82 169.24 301.82 167.408Z" fill="#DEDDEC"/>
<path d="M288.838 445.37C288.838 443.523 290.344 442.035 292.178 442.035C294.011 442.035 295.517 443.539 295.517 445.37C295.517 447.202 294.011 448.706 292.178 448.706C290.344 448.706 288.838 447.202 288.838 445.37Z" fill="#DEDDEC"/>
<path d="M259.451 345.053C259.451 343.205 257.945 341.717 256.111 341.717C254.278 341.717 252.771 343.222 252.771 345.053C252.771 346.884 254.278 348.389 256.111 348.389C257.945 348.389 259.451 346.884 259.451 345.053Z" fill="#DEDDEC"/>
<path d="M261.858 497.924C263.168 499.232 263.168 501.342 261.858 502.65C260.548 503.958 258.436 503.958 257.127 502.65C255.817 501.342 255.817 499.232 257.127 497.924C258.436 496.616 260.548 496.616 261.858 497.924Z" fill="#DEDDEC"/>
<path d="M225.185 69.1837C225.185 67.336 223.679 65.848 221.846 65.848C220.012 65.848 218.506 67.3523 218.506 69.1837C218.506 71.0151 220.012 72.5195 221.846 72.5195C223.679 72.5195 225.185 71.0151 225.185 69.1837Z" fill="#DEDDEC"/>
<path d="M195.095 455.41C195.095 457.258 193.589 458.746 191.756 458.746C189.922 458.746 188.416 457.241 188.416 455.41C188.416 453.578 189.922 452.074 191.756 452.074C193.589 452.074 195.095 453.578 195.095 455.41Z" fill="#DEDDEC"/>
<path d="M141.217 219.652C141.217 217.804 139.71 216.316 137.877 216.316C136.043 216.316 134.537 217.821 134.537 219.652C134.537 221.483 136.043 222.988 137.877 222.988C139.71 222.988 141.217 221.483 141.217 219.652Z" fill="#DEDDEC"/>
<path d="M157.229 331.759C158.539 333.067 158.539 335.176 157.229 336.484C155.919 337.792 153.808 337.792 152.498 336.484C151.188 335.176 151.188 333.067 152.498 331.759C153.808 330.451 155.919 330.451 157.229 331.759Z" fill="#314081"/>
<path d="M138.861 148.068C138.861 146.22 137.355 144.732 135.521 144.732C133.688 144.732 132.182 146.236 132.182 148.068C132.182 149.899 133.688 151.403 135.521 151.403C137.355 151.403 138.861 149.899 138.861 148.068Z" fill="#314081"/>
<path d="M279.849 448.101C279.849 449.949 278.343 451.437 276.51 451.437C274.676 451.437 273.17 449.932 273.17 448.101C273.17 446.269 274.676 444.765 276.51 444.765C278.343 444.765 279.849 446.269 279.849 448.101Z" fill="#314081"/>
<path d="M264.15 29.4661C264.15 27.6238 262.655 26.1303 260.81 26.1303C258.966 26.1303 257.471 27.6238 257.471 29.4661C257.471 31.3083 258.966 32.8018 260.81 32.8018C262.655 32.8018 264.15 31.3083 264.15 29.4661Z" fill="#314081"/>
<path d="M125.502 284.029C125.502 285.877 123.996 287.365 122.162 287.365C120.328 287.365 118.822 285.86 118.822 284.029C118.822 282.198 120.328 280.693 122.162 280.693C123.996 280.693 125.502 282.198 125.502 284.029Z" fill="#DEDDEC"/>
<path d="M161.617 99.4836C161.617 97.6359 160.111 96.1478 158.277 96.1478C156.444 96.1478 154.937 97.6523 154.937 99.4836C154.937 101.315 156.444 102.819 158.277 102.819C160.111 102.819 161.617 101.315 161.617 99.4836Z" fill="#DEDDEC"/>
<path d="M162.451 274.348C161.141 273.04 161.141 270.931 162.451 269.622C163.761 268.314 165.873 268.314 167.182 269.622C168.492 270.931 168.492 273.04 167.182 274.348C165.873 275.656 163.761 275.656 162.451 274.348Z" fill="#DEDDEC"/>
<path d="M195.619 3.33569C195.619 1.48795 194.113 -0.000115144 192.279 -0.000115064C190.446 -0.000114984 188.939 1.5043 188.939 3.33569C188.939 5.16707 190.446 6.67139 192.279 6.67139C194.113 6.67139 195.619 5.16707 195.619 3.33569Z" fill="#DEDDEC"/>
<path d="M205.883 264.357C207.193 265.665 207.193 267.775 205.883 269.083C204.574 270.391 202.462 270.391 201.152 269.083C199.842 267.775 199.842 265.665 201.152 264.357C202.462 263.049 204.574 263.049 205.883 264.357Z" fill="#DEDDEC"/>
<path d="M180.443 104.177C180.443 102.334 178.948 100.841 177.103 100.841C175.259 100.841 173.764 102.334 173.764 104.177C173.764 106.019 175.259 107.512 177.103 107.512C178.948 107.512 180.443 106.019 180.443 104.177Z" fill="#DEDDEC"/>
<path d="M192.803 234.63C191.493 233.322 191.493 231.212 192.803 229.904C194.112 228.596 196.224 228.596 197.534 229.904C198.844 231.212 198.844 233.322 197.534 234.63C196.224 235.938 194.112 235.938 192.803 234.63Z" fill="#DEDDEC"/>
<path d="M205.901 191.233C204.591 189.925 202.479 189.925 201.17 191.233C199.86 192.541 199.86 194.65 201.17 195.958C202.479 197.266 204.591 197.266 205.901 195.958C207.211 194.65 207.211 192.541 205.901 191.233Z" fill="#DEDDEC"/>
</g>
<defs>
<clipPath id="clip0_3927_34868">
<rect width="579" height="374" fill="white" transform="translate(0 579) rotate(-90)"/>
</clipPath>
</defs>
</svg>
