<svg width="48" height="48" fill="none" xmlns="http://www.w3.org/2000/svg"><path d="M24 43.75C25.375 43.75 27.4375 42.5469 29.2422 38.8516C30.1016 37.1328 30.875 35.0703 31.3906 32.75H16.6094C17.0391 35.0703 17.8125 37.1328 18.6719 38.8516C20.4766 42.5469 22.5391 43.75 24 43.75ZM16.0938 30H31.8203C32.0781 28.2812 32.25 26.4766 32.25 24.5C32.25 22.6094 32.0781 20.8047 31.8203 19H16.0938C15.8359 20.8047 15.75 22.6094 15.75 24.5C15.75 26.4766 15.8359 28.2812 16.0938 30ZM16.6094 16.25H31.3906C30.875 13.9297 30.1016 11.9531 29.2422 10.2344C27.4375 6.53906 25.375 5.25 24 5.25C22.5391 5.25 20.4766 6.53906 18.6719 10.2344C17.8125 11.9531 17.0391 13.9297 16.6094 16.25ZM34.6562 19C34.8281 20.8047 35 22.6094 35 24.5C35 26.4766 34.8281 28.2812 34.6562 30H42.3906C42.9062 28.2812 43.25 26.4766 43.25 24.5C43.25 22.6094 42.9062 20.8047 42.3906 19H34.6562ZM41.3594 16.25C39.125 11.6094 35.0859 8 30.1016 6.28125C31.9062 8.6875 33.3672 12.2109 34.1406 16.25H41.3594ZM13.7734 16.25C14.6328 12.2109 16.0078 8.6875 17.8125 6.28125C12.8281 8 8.78906 11.6094 6.55469 16.25H13.7734ZM5.52344 19C5.00781 20.8047 4.75 22.6094 4.75 24.5C4.75 26.4766 5.00781 28.2812 5.52344 30H13.3438C13.0859 28.2812 13 26.4766 13 24.5C13 22.6094 13.0859 20.8047 13.3438 19H5.52344ZM30.1016 42.8047C35.0859 41.0859 39.125 37.4766 41.3594 32.75H34.1406C33.3672 36.875 31.9062 40.3125 30.1016 42.8047ZM17.8125 42.8047C16.0078 40.3125 14.6328 36.875 13.7734 32.75H6.55469C8.78906 37.4766 12.8281 41.0859 17.8125 42.8047ZM24 46.5C16.0938 46.5 8.875 42.375 4.92188 35.5C0.96875 28.7109 0.96875 20.375 4.92188 13.5C8.875 6.71094 16.0938 2.5 24 2.5C31.8203 2.5 39.0391 6.71094 42.9922 13.5C46.9453 20.375 46.9453 28.7109 42.9922 35.5C39.0391 42.375 31.8203 46.5 24 46.5Z" fill="#314081"/></svg>