<svg width="48" height="48" fill="none" xmlns="http://www.w3.org/2000/svg"><path d="M22.3983 4.16699L6.49596 10.9053C5.50768 11.2646 4.78893 12.2529 4.87877 13.3311C4.87877 21.7764 8.38268 36.6904 22.3983 43.4287C23.1171 43.7881 23.9256 43.7881 24.6444 43.4287C38.66 36.6904 42.1639 21.7764 42.2538 13.3311C42.2538 12.2529 41.535 11.3545 40.5467 10.9053L24.6444 4.16699C23.9256 3.80762 23.1171 3.80762 22.3983 4.16699ZM25.8124 1.47168L41.6249 8.20996C43.6014 9.1084 45.1288 10.9951 45.1288 13.3311C45.0389 22.3154 41.3553 38.5771 25.9022 46.0342C24.3749 46.7529 22.6678 46.7529 21.1405 46.0342C5.68736 38.5771 2.00377 22.3154 2.00377 13.3311C1.91393 10.9951 3.44127 9.1084 5.41783 8.20996L21.3202 1.47168C22.7577 0.842773 24.3749 0.842773 25.8124 1.47168ZM33.1796 19.0811L21.6796 30.5811C21.1405 31.1201 20.1522 31.1201 19.6131 30.5811L13.8631 24.8311C13.3241 24.292 13.3241 23.3037 13.8631 22.7646C14.4022 22.2256 15.3905 22.2256 15.9296 22.7646L20.6913 27.5264L31.1131 17.0146C31.6522 16.4756 32.6405 16.4756 33.1796 17.0146C33.7186 17.5537 33.7186 18.542 33.1796 19.0811Z" fill="#314081"/></svg>