<svg width="14" height="11" fill="none" xmlns="http://www.w3.org/2000/svg"><path d="M3.5 1.375C3.5 0.910156 3.88281 0.5 4.375 0.5H9.625C10.0898 0.5 10.5 0.910156 10.5 1.375V2.25H11.375C11.8398 2.25 12.25 2.66016 12.25 3.125V4H13.125C13.5898 4 14 4.41016 14 4.875V10.125C14 10.6172 13.5898 11 13.125 11H10.9375H8.3125H5.6875H3.0625H0.875C0.382812 11 0 10.6172 0 10.125V4.875C0 4.41016 0.382812 4 0.875 4H1.75V3.125C1.75 2.66016 2.13281 2.25 2.625 2.25H3.5V1.375ZM4.8125 1.8125V2.90625C4.8125 3.28906 4.51172 3.5625 4.15625 3.5625H3.0625V4.65625C3.0625 5.03906 2.76172 5.3125 2.40625 5.3125H1.3125V9.6875H2.40625V8.15625C2.40625 7.80078 2.67969 7.5 3.0625 7.5C3.41797 7.5 3.71875 7.80078 3.71875 8.15625V9.6875H5.03125V8.15625C5.03125 7.80078 5.30469 7.5 5.6875 7.5C6.04297 7.5 6.34375 7.80078 6.34375 8.15625V9.6875H7.65625V8.15625C7.65625 7.80078 7.92969 7.5 8.3125 7.5C8.66797 7.5 8.96875 7.80078 8.96875 8.15625V9.6875H10.2812V8.15625C10.2812 7.80078 10.5547 7.5 10.9375 7.5C11.293 7.5 11.5938 7.80078 11.5938 8.15625V9.6875H12.6875V5.3125H11.5938C11.2109 5.3125 10.9375 5.03906 10.9375 4.65625V3.5625H9.84375C9.46094 3.5625 9.1875 3.28906 9.1875 2.90625V1.8125H4.8125Z" fill="#314081"/></svg>