<svg width="12" height="15" fill="none" xmlns="http://www.w3.org/2000/svg"><path d="M5.45703 0.996094C5.92188 0.695312 6.55078 0.695312 7.01562 0.996094L7.45312 1.24219C7.48047 1.26953 7.53516 1.26953 7.5625 1.26953H8.05469C8.62891 1.24219 9.17578 1.54297 9.42188 2.0625L9.66797 2.5C9.69531 2.52734 9.72266 2.55469 9.75 2.58203L10.1875 2.80078C10.707 3.07422 11.0078 3.62109 10.9805 4.16797V4.6875C10.9805 4.71484 10.9805 4.76953 11.0078 4.79688L11.2539 5.20703C11.5547 5.69922 11.5547 6.30078 11.2539 6.79297L11.0078 7.23047C10.9805 7.25781 10.9805 7.3125 10.9805 7.33984V7.83203C11.0078 8.40625 10.707 8.92578 10.1875 9.19922L9.75 9.44531C9.72266 9.47266 9.69531 9.5 9.66797 9.52734L9.44922 9.96484C9.17578 10.457 8.62891 10.7852 8.08203 10.7578H7.5625C7.53516 10.7578 7.48047 10.7578 7.45312 10.7852L7.04297 11.0312C6.55078 11.332 5.94922 11.332 5.45703 11.0312L5.01953 10.7852C4.99219 10.7578 4.9375 10.7578 4.91016 10.7578H4.41797C3.84375 10.7852 3.32422 10.457 3.05078 9.96484L2.80469 9.52734C2.77734 9.5 2.75 9.47266 2.72266 9.44531L2.28516 9.19922C1.79297 8.92578 1.46484 8.40625 1.49219 7.83203V7.33984C1.49219 7.3125 1.49219 7.25781 1.46484 7.23047L1.21875 6.79297C0.917969 6.32812 0.917969 5.69922 1.21875 5.23438L1.46484 4.79688C1.49219 4.76953 1.49219 4.71484 1.49219 4.6875V4.19531C1.46484 3.62109 1.79297 3.07422 2.28516 2.80078L2.72266 2.58203C2.75 2.55469 2.77734 2.52734 2.80469 2.5L3.05078 2.0625C3.32422 1.54297 3.84375 1.24219 4.41797 1.26953H4.91016C4.9375 1.26953 4.99219 1.26953 5.01953 1.24219L5.45703 0.996094ZM6.33203 2.11719C6.27734 2.0625 6.19531 2.0625 6.14062 2.11719L5.70312 2.36328C5.45703 2.52734 5.15625 2.58203 4.88281 2.58203H4.39062C4.30859 2.58203 4.22656 2.60938 4.19922 2.69141L3.95312 3.12891C3.81641 3.375 3.59766 3.59375 3.35156 3.73047L2.91406 3.97656C2.83203 4.00391 2.80469 4.08594 2.80469 4.14062V4.66016C2.83203 4.93359 2.75 5.23438 2.58594 5.48047L2.33984 5.91797L1.76562 5.5625L2.33984 5.91797C2.28516 5.97266 2.28516 6.05469 2.33984 6.10938L2.58594 6.54688C2.75 6.79297 2.80469 7.09375 2.80469 7.36719V7.85938C2.80469 7.94141 2.83203 8.02344 2.91406 8.05078L3.35156 8.29688C3.59766 8.43359 3.81641 8.65234 3.95312 8.89844L4.19922 9.33594C4.22656 9.41797 4.30859 9.44531 4.39062 9.44531H4.88281C5.15625 9.41797 5.45703 9.5 5.70312 9.66406L6.14062 9.91016C6.19531 9.96484 6.27734 9.96484 6.33203 9.91016L6.76953 9.66406C7.01562 9.5 7.31641 9.44531 7.58984 9.44531H8.10938C8.16406 9.44531 8.24609 9.41797 8.27344 9.33594L8.51953 8.89844C8.65625 8.65234 8.875 8.43359 9.12109 8.29688L9.55859 8.05078C9.64062 8.02344 9.66797 7.94141 9.66797 7.85938V7.36719C9.66797 7.09375 9.72266 6.79297 9.88672 6.54688L10.1328 6.10938C10.1875 6.05469 10.1875 5.97266 10.1328 5.91797L9.88672 5.48047C9.72266 5.23438 9.66797 4.93359 9.66797 4.66016V4.14062C9.66797 4.08594 9.64062 4.00391 9.55859 3.97656L9.12109 3.73047C8.875 3.59375 8.65625 3.375 8.51953 3.12891L8.27344 2.69141C8.24609 2.60938 8.16406 2.58203 8.10938 2.58203H7.58984C7.31641 2.58203 7.01562 2.52734 6.76953 2.36328L6.33203 2.11719ZM4.5 6C4.5 5.39844 4.82812 4.82422 5.375 4.49609C5.89453 4.19531 6.57812 4.19531 7.125 4.49609C7.64453 4.82422 8 5.39844 8 6C8 6.62891 7.64453 7.20312 7.125 7.53125C6.57812 7.83203 5.89453 7.83203 5.375 7.53125C4.82812 7.20312 4.5 6.62891 4.5 6ZM1.02734 12.8359L2.14844 10.1562L2.28516 10.4023C2.69531 11.168 3.54297 11.6602 4.41797 11.6328H4.74609L4.99219 11.7969C5.21094 11.9062 5.45703 12.0156 5.70312 12.0703L4.66406 14.5039C4.60938 14.6406 4.47266 14.75 4.30859 14.75C4.14453 14.7773 3.98047 14.6953 3.89844 14.5586L3.02344 13.2188L1.49219 13.4375C1.32812 13.4648 1.16406 13.4102 1.08203 13.2734C0.972656 13.1641 0.972656 13 1.02734 12.8359ZM7.80859 14.5039L6.79688 12.0703C7.01562 12.0156 7.26172 11.9336 7.48047 11.7969L7.75391 11.6328H8.05469C8.92969 11.6602 9.77734 11.168 10.2148 10.4023L10.3242 10.1562L11.4453 12.8359C11.5 13 11.5 13.1641 11.3906 13.2734C11.3086 13.4102 11.1445 13.4648 10.9805 13.4375L9.44922 13.2188L8.57422 14.5586C8.49219 14.6953 8.32812 14.7773 8.16406 14.75C8 14.75 7.86328 14.6406 7.80859 14.5039Z" fill="#314081"/></svg>