<svg width="13" height="15" fill="none" xmlns="http://www.w3.org/2000/svg"><path d="M3.5 0.75C3.85547 0.75 4.15625 1.05078 4.15625 1.40625V2.5H8.09375V1.40625C8.09375 1.05078 8.36719 0.75 8.75 0.75C9.10547 0.75 9.40625 1.05078 9.40625 1.40625V2.5H10.5C11.457 2.5 12.25 3.29297 12.25 4.25V4.6875V6V13C12.25 13.9844 11.457 14.75 10.5 14.75H1.75C0.765625 14.75 0 13.9844 0 13V6V4.6875V4.25C0 3.29297 0.765625 2.5 1.75 2.5H2.84375V1.40625C2.84375 1.05078 3.11719 0.75 3.5 0.75ZM10.9375 6H1.3125V13C1.3125 13.2461 1.50391 13.4375 1.75 13.4375H10.5C10.7188 13.4375 10.9375 13.2461 10.9375 13V6ZM8.99609 8.87109L5.93359 11.9336C5.66016 12.207 5.25 12.207 5.00391 11.9336L3.25391 10.1836C2.98047 9.9375 2.98047 9.52734 3.25391 9.28125C3.5 9.00781 3.91016 9.00781 4.18359 9.28125L5.46875 10.5664L8.06641 7.96875C8.3125 7.69531 8.72266 7.69531 8.96875 7.96875C9.24219 8.21484 9.24219 8.625 8.96875 8.87109H8.99609Z" fill="#314081"/></svg>