<svg width="48" height="48" fill="none" xmlns="http://www.w3.org/2000/svg"><path d="M33.375 13.5312C33.9219 13.8438 34.5469 14 35.25 14C35.4062 14 35.6406 14 35.7969 14C37.5938 13.6875 39 12.125 39 10.25C39 8.21875 37.2812 6.5 35.25 6.5C33.1406 6.5 31.5 8.21875 31.5 10.25C31.5 10.3281 31.5 10.4062 31.5 10.4062C31.5 11.3438 31.8125 12.125 32.3594 12.75C32.6719 13.0625 32.9844 13.375 33.375 13.5312ZM32.9062 16.1094C31.7344 15.6406 30.7188 14.7812 30.0156 13.6875L16.3438 19.1562C16.4219 19.5469 16.5 19.9375 16.5 20.25C16.5 21.4219 16.1875 22.4375 15.6406 23.375L26.4219 32.8281C27.4375 32.0469 28.6875 31.5781 30.0938 31.5781L32.9062 16.1094ZM32.5156 31.9688C34.8594 32.9062 36.5 35.1719 36.5 37.75C36.5 41.2656 33.6875 44 30.25 44C26.7344 44 24 41.2656 24 37.75C24 36.6562 24.2344 35.6406 24.7812 34.7031L14 25.25C12.9844 26.0312 11.6562 26.5 10.25 26.5C6.73438 26.5 4 23.7656 4 20.25C4 16.8125 6.73438 14 10.25 14C12.3594 14 14.3125 15.1719 15.4062 16.8125L29.0781 11.4219C29 11.0312 29 10.6406 29 10.25C29 6.8125 31.7344 4 35.25 4C38.6875 4 41.5 6.8125 41.5 10.25C41.5 13.6875 38.7656 16.5 35.3281 16.5L32.5156 31.9688ZM13.2969 22.3594C13.375 22.2812 13.4531 22.2031 13.4531 22.125C13.7656 21.5781 14 20.9531 14 20.25C14 18.2188 12.2812 16.5 10.25 16.5C8.14062 16.5 6.5 18.2188 6.5 20.25C6.5 22.3594 8.14062 24 10.25 24C10.875 24 11.5 23.8438 12.0469 23.5312C12.5938 23.2188 12.9844 22.8281 13.2969 22.3594ZM26.7344 36.4219C26.5781 36.8125 26.5 37.2812 26.5 37.75C26.5 39.8594 28.1406 41.5 30.25 41.5C32.2812 41.5 34 39.8594 34 37.75C34 35.7188 32.2812 34 30.25 34C29.1562 34 28.1406 34.4688 27.4375 35.25C27.2812 35.4844 27.0469 35.7188 26.8906 36.0312C26.8125 36.1094 26.8125 36.2656 26.7344 36.4219Z" fill="#314081"/></svg>