<svg width="48" height="48" fill="none" xmlns="http://www.w3.org/2000/svg"><path d="M41.5 9H6.5C5.09375 9 4 10.1719 4 11.5V36.5C4 37.9062 5.09375 39 6.5 39H41.5C42.8281 39 44 37.9062 44 36.5V11.5C44 10.1719 42.8281 9 41.5 9ZM6.5 6.5H41.5C44.2344 6.5 46.5 8.76562 46.5 11.5V36.5C46.5 39.3125 44.2344 41.5 41.5 41.5H6.5C3.6875 41.5 1.5 39.3125 1.5 36.5V11.5C1.5 8.76562 3.6875 6.5 6.5 6.5ZM25.25 17.75C25.25 17.125 25.7969 16.5 26.5 16.5H31.5C35.6406 16.5 39 19.8594 39 24C39 28.1406 35.6406 31.5 31.5 31.5H26.5C25.7969 31.5 25.25 30.9531 25.25 30.25V17.75ZM27.75 19V29H31.5C34.2344 29 36.5 26.8125 36.5 24C36.5 21.2656 34.2344 19 31.5 19H27.75ZM13.9219 19.2344C13.2969 19.4688 12.9062 19.8594 12.75 20.4844C12.75 20.875 12.8281 21.1094 12.9062 21.2656C12.9844 21.4219 13.1406 21.5781 13.4531 21.8125C14.1562 22.2031 15.25 22.5156 16.5781 22.8281H16.7344C17.9062 23.1406 19.3906 23.4531 20.4062 24.0781C21.0312 24.4688 21.5781 24.9375 21.9688 25.6406C22.3594 26.3438 22.4375 27.125 22.2812 27.9844C22.2031 28.7656 21.8906 29.4688 21.3438 30.0938C20.7969 30.6406 20.1719 30.9531 19.4688 31.1875C18.1406 31.5781 16.5 31.5781 14.9375 31.3438C14 31.2656 12.5938 30.7969 11.6562 30.5625C11.4219 30.4844 11.2656 30.4062 11.1094 30.4062C10.4844 30.1719 10.0938 29.5469 10.25 28.8438C10.4844 28.2188 11.1875 27.8281 11.8125 27.9844C11.9688 28.0625 12.2031 28.0625 12.4375 28.1406C13.375 28.4531 14.5469 28.7656 15.25 28.8438C16.7344 29.0781 17.9062 29.0781 18.7656 28.7656C19.0781 28.6875 19.3906 28.5312 19.5469 28.375C19.7031 28.2188 19.7812 27.9844 19.8594 27.5938C19.9375 27.2031 19.8594 26.9688 19.7812 26.8125C19.625 26.5781 19.4688 26.4219 19.1562 26.1875C18.4531 25.7969 17.3594 25.5625 16.0312 25.25L15.9531 25.1719C14.7031 24.9375 13.2969 24.5469 12.2031 23.9219C11.5781 23.6094 11.0312 23.0625 10.6406 22.4375C10.3281 21.7344 10.1719 20.9531 10.3281 20.0156C10.6406 18.2969 11.7344 17.2812 13.1406 16.8125C14.4688 16.4219 16.1094 16.4219 17.6719 16.6562C18.2188 16.7344 19.7031 16.9688 20.1719 17.125C20.875 17.2812 21.2656 17.9062 21.1094 18.6094C20.9531 19.2344 20.3281 19.7031 19.625 19.5469C19.2344 19.4688 17.8281 19.2344 17.3594 19.1562C15.875 18.9219 14.7031 19 13.9219 19.2344Z" fill="#314081"/></svg>