<svg width="48" height="48" fill="none" xmlns="http://www.w3.org/2000/svg"><path fill-rule="evenodd" clip-rule="evenodd" d="M38.4 14.5H9.6C7.87859 14.5 6.73789 14.5019 5.86279 14.5734C5.01688 14.6426 4.6416 14.764 4.41103 14.8815C3.75247 15.217 3.21703 15.7525 2.88148 16.411C2.764 16.6416 2.64256 17.0169 2.57344 17.8628C2.50194 18.7379 2.5 19.8786 2.5 21.6V26.4C2.5 28.1214 2.50194 29.2621 2.57344 30.1372C2.64256 30.9831 2.764 31.3584 2.88148 31.589C3.21703 32.2475 3.75247 32.783 4.41103 33.1185C4.6416 33.236 5.01688 33.3574 5.86279 33.4266C6.73789 33.4981 7.87859 33.5 9.6 33.5H38.4C40.1214 33.5 41.2621 33.4981 42.1372 33.4266C42.9831 33.3574 43.3584 33.236 43.589 33.1185C44.2475 32.783 44.783 32.2475 45.1185 31.589C45.236 31.3584 45.3574 30.9831 45.4266 30.1372C45.4981 29.2621 45.5 28.1214 45.5 26.4V21.6C45.5 19.8786 45.4981 18.7379 45.4266 17.8628C45.3574 17.0169 45.236 16.6416 45.1185 16.411C44.783 15.7525 44.2475 15.217 43.589 14.8815C43.3584 14.764 42.9831 14.6426 42.1372 14.5734C41.2621 14.5019 40.1214 14.5 38.4 14.5ZM0.653961 15.2761C0 16.5595 0 18.2397 0 21.6V26.4C0 29.7603 0 31.4405 0.653961 32.7239C1.2292 33.8529 2.14708 34.7708 3.27606 35.346C4.55953 36 6.23968 36 9.6 36H38.4C41.7603 36 43.4405 36 44.7239 35.346C45.8529 34.7708 46.7708 33.8529 47.346 32.7239C48 31.4405 48 29.7603 48 26.4V21.6C48 18.2397 48 16.5595 47.346 15.2761C46.7708 14.1471 45.8529 13.2292 44.7239 12.654C43.4405 12 41.7603 12 38.4 12H9.6C6.23969 12 4.55953 12 3.27606 12.654C2.14708 13.2292 1.2292 14.1471 0.653961 15.2761ZM6 24C6 23.3096 6.55964 22.75 7.25 22.75H10.75C11.4404 22.75 12 23.3096 12 24C12 24.6904 11.4404 25.25 10.75 25.25H7.25C6.55964 25.25 6 24.6904 6 24ZM17.25 22.75C16.5596 22.75 16 23.3096 16 24C16 24.6904 16.5596 25.25 17.25 25.25H20.75C21.4404 25.25 22 24.6904 22 24C22 23.3096 21.4404 22.75 20.75 22.75H17.25ZM26 24C26 23.3096 26.5596 22.75 27.25 22.75H30.75C31.4404 22.75 32 23.3096 32 24C32 24.6904 31.4404 25.25 30.75 25.25H27.25C26.5596 25.25 26 24.6904 26 24ZM37.25 22.75C36.5596 22.75 36 23.3096 36 24C36 24.6904 36.5596 25.25 37.25 25.25H40.75C41.4404 25.25 42 24.6904 42 24C42 23.3096 41.4404 22.75 40.75 22.75H37.25Z" fill="#314081"/></svg>