<svg width="24" height="25" fill="none" xmlns="http://www.w3.org/2000/svg"><path d="M15 5.49609L22.5 6.99609V2.49609L15 3.99609V4.74609V5.49609ZM13.5 3.99609V4.04297C13.5 3.29297 13.9688 2.68359 14.6719 2.54297L22.1719 1.04297C22.6406 0.949219 23.0625 1.08984 23.4375 1.37109C23.7656 1.65234 24 2.07422 24 2.49609V7.04297C24 7.46484 23.7656 7.88672 23.4375 8.16797C23.0625 8.44922 22.6406 8.58984 22.1719 8.49609L14.6719 6.99609C13.9688 6.85547 13.5 6.24609 13.5 5.49609H9V7.08984C11.5312 7.41797 13.5 9.62109 13.5 12.2461V21.9961C13.5 23.6836 12.1406 24.9961 10.5 24.9961H6C4.3125 24.9961 3 23.6836 3 21.9961V12.2461C3 9.62109 4.92188 7.41797 7.5 7.08984V5.49609C5.39062 5.49609 3.5625 6.57422 2.48438 8.16797C2.20312 8.58984 2.01562 9.05859 1.82812 9.52734C1.6875 9.90234 1.26562 10.0898 0.890625 9.99609C0.46875 9.85547 0.28125 9.38672 0.421875 9.01172C0.609375 8.40234 0.890625 7.88672 1.26562 7.37109C2.57812 5.35547 4.875 3.99609 7.5 3.99609V1.74609C7.5 1.37109 7.82812 0.996094 8.25 0.996094C8.625 0.996094 9 1.37109 9 1.74609V3.99609H13.5ZM8.25 8.49609C6.14062 8.49609 4.5 10.1836 4.5 12.2461V18.9961H12V12.2461C12 10.1836 10.3125 8.49609 8.25 8.49609ZM12 21.9961V20.4961H4.5V21.9961C4.5 22.8398 5.15625 23.4961 6 23.4961H10.5C11.2969 23.4961 12 22.8398 12 21.9961Z" fill="#314081"/></svg>