<svg width="18" height="24" fill="none" xmlns="http://www.w3.org/2000/svg"><path d="M9 22.4961C13.125 22.4961 16.5 19.168 16.5 14.9961C16.5 14.2461 16.1719 13.168 15.6094 11.8555C15.0469 10.543 14.2969 9.13672 13.4531 7.77734C11.7656 5.05859 9.84375 2.57422 9 1.49609H8.95312C8.10938 2.57422 6.1875 5.05859 4.5 7.77734C3.65625 9.13672 2.90625 10.543 2.34375 11.8555C1.78125 13.168 1.5 14.2461 1.5 14.9961C1.5 19.168 4.82812 22.4961 9 22.4961ZM0 14.9961C0 10.7305 6.09375 2.71484 7.78125 0.558594C8.0625 0.230469 8.48438 -0.00390625 8.95312 -0.00390625H9C9.46875 -0.00390625 9.89062 0.230469 10.1719 0.558594C11.8594 2.71484 18 10.7305 18 14.9961C18 19.9648 13.9688 23.9961 9 23.9961C4.03125 23.9961 0 19.9648 0 14.9961ZM5.25 14.9961C5.25 17.1055 6.89062 18.7461 9 18.7461C9.375 18.7461 9.75 19.1211 9.75 19.4961C9.75 19.918 9.375 20.2461 9 20.2461C6.09375 20.2461 3.75 17.9023 3.75 14.9961C3.75 14.6211 4.07812 14.2461 4.5 14.2461C4.875 14.2461 5.25 14.6211 5.25 14.9961Z" fill="#314081"/></svg>