<svg width="31" height="25" fill="none" xmlns="http://www.w3.org/2000/svg"><path d="M7.84375 1.91797L7.51562 3.08984C7.42188 3.32422 7.23438 3.55859 7 3.60547C6.34375 3.83984 5.6875 4.21484 5.17188 4.68359C4.98438 4.82422 4.75 4.91797 4.46875 4.82422L3.29688 4.54297C3.20312 4.68359 3.10938 4.82422 3.01562 4.96484L2.92188 5.19922C2.82812 5.33984 2.73438 5.48047 2.6875 5.66797L3.53125 6.51172C3.71875 6.69922 3.76562 6.98047 3.71875 7.21484C3.625 7.54297 3.625 7.91797 3.625 8.24609C3.625 8.62109 3.625 8.99609 3.71875 9.32422C3.76562 9.55859 3.71875 9.83984 3.53125 10.0273L2.64062 10.8711C2.73438 11.0586 2.82812 11.1992 2.875 11.3398L3.01562 11.5742C3.10938 11.7148 3.20312 11.8555 3.29688 11.9961L4.46875 11.668C4.75 11.6211 4.98438 11.668 5.17188 11.8555C5.6875 12.3242 6.34375 12.6992 7 12.9336C7.28125 12.9805 7.46875 13.168 7.51562 13.4492L7.84375 14.6211C8.03125 14.6211 8.26562 14.6211 8.5 14.6211C8.6875 14.6211 8.92188 14.6211 9.10938 14.6211L9.4375 13.4492C9.53125 13.168 9.71875 12.9805 9.95312 12.9336C10.6562 12.6992 11.2656 12.3242 11.7812 11.8555C11.9688 11.668 12.25 11.6211 12.4844 11.668L13.6562 11.9961C13.75 11.8555 13.8438 11.7148 13.9375 11.5742L14.0781 11.3398C14.1719 11.1992 14.2188 11.0586 14.3125 10.8711L13.4219 10.0273C13.2812 9.83984 13.1875 9.55859 13.2344 9.32422C13.3281 8.99609 13.375 8.62109 13.375 8.24609C13.375 7.91797 13.3281 7.54297 13.2344 7.21484C13.1875 6.98047 13.2812 6.69922 13.4219 6.51172L14.3125 5.66797C14.2188 5.48047 14.1719 5.33984 14.0781 5.19922L13.9375 4.96484C13.8438 4.82422 13.75 4.68359 13.6562 4.54297L12.4844 4.82422C12.2031 4.91797 11.9688 4.82422 11.7812 4.68359C11.2656 4.21484 10.6094 3.83984 9.95312 3.60547C9.71875 3.55859 9.53125 3.32422 9.4375 3.08984L9.10938 1.91797C8.92188 1.91797 8.6875 1.87109 8.45312 1.87109C8.26562 1.87109 8.03125 1.91797 7.84375 1.91797ZM7.09375 0.511719C7.5625 0.417969 8.03125 0.371094 8.5 0.371094C8.92188 0.371094 9.39062 0.417969 9.85938 0.511719C10.1406 0.558594 10.375 0.792969 10.4219 1.02734L10.7969 2.33984C11.4062 2.57422 11.9688 2.90234 12.4844 3.27734L13.75 2.94922C14.0312 2.90234 14.3125 2.99609 14.5 3.18359C14.7812 3.51172 15.0156 3.83984 15.25 4.21484L15.3906 4.44922C15.5781 4.82422 15.7656 5.19922 15.9062 5.57422C16 5.85547 15.9062 6.13672 15.7188 6.37109L14.7812 7.30859C14.8281 7.63672 14.875 7.96484 14.875 8.29297C14.875 8.62109 14.8281 8.90234 14.7812 9.23047L15.7188 10.168C15.9062 10.4023 16 10.6836 15.9062 10.9648C15.7656 11.3398 15.5781 11.7148 15.3906 12.0898L15.25 12.3242H15.2031C15.0156 12.6992 14.7812 13.0273 14.5 13.3555C14.3125 13.543 14.0312 13.6367 13.75 13.5898L12.4844 13.2617C11.9688 13.6367 11.4062 13.9648 10.7969 14.1992L10.4219 15.4648C10.375 15.7461 10.1406 15.9805 9.85938 16.0273C9.39062 16.1211 8.92188 16.1211 8.5 16.1211C8.03125 16.1211 7.5625 16.1211 7.09375 16.0273C6.8125 15.9805 6.57812 15.7461 6.53125 15.4648L6.15625 14.1992C5.54688 13.9648 4.98438 13.6367 4.46875 13.2617L3.20312 13.5898C2.92188 13.6367 2.64062 13.543 2.45312 13.3086C2.17188 13.0273 1.9375 12.6523 1.70312 12.3242L1.60938 12.0898C1.375 11.7148 1.23438 11.3398 1.09375 10.9648C1 10.6836 1.04688 10.4023 1.23438 10.168L2.17188 9.23047C2.125 8.90234 2.125 8.57422 2.125 8.24609C2.125 7.91797 2.125 7.63672 2.17188 7.30859L1.23438 6.37109C1.04688 6.13672 0.953125 5.85547 1.09375 5.57422C1.23438 5.19922 1.375 4.82422 1.60938 4.44922L1.70312 4.21484C1.9375 3.83984 2.17188 3.51172 2.45312 3.18359C2.64062 2.99609 2.92188 2.90234 3.20312 2.94922L4.46875 3.27734C4.98438 2.90234 5.54688 2.57422 6.15625 2.33984L6.53125 1.02734C6.57812 0.746094 6.8125 0.558594 7.09375 0.511719ZM5.875 8.24609C5.875 7.30859 6.34375 6.46484 7.1875 5.99609C7.98438 5.52734 8.96875 5.52734 9.8125 5.99609C10.6094 6.46484 11.125 7.30859 11.125 8.24609C11.125 9.23047 10.6094 10.0742 9.8125 10.543C8.96875 11.0117 7.98438 11.0117 7.1875 10.543C6.34375 10.0742 5.875 9.23047 5.875 8.24609ZM8.5 9.37109C9.10938 9.37109 9.625 8.90234 9.625 8.24609C9.625 7.63672 9.10938 7.12109 8.5 7.12109C7.84375 7.12109 7.375 7.63672 7.375 8.24609C7.375 8.90234 7.84375 9.37109 8.5 9.37109ZM16.375 17.1523L17.5469 17.4805C17.8281 17.5742 18.0156 17.7617 18.0625 17.9961C18.2969 18.6523 18.6719 19.3086 19.1406 19.8242C19.3281 20.0117 19.375 20.2461 19.3281 20.5273L19 21.6992C19.1406 21.793 19.2812 21.8867 19.4688 21.9805L19.6562 22.1211C19.7969 22.168 19.9375 22.2617 20.125 22.3555L20.9688 21.4648C21.1562 21.2773 21.4375 21.2305 21.6719 21.2773C22 21.3711 22.375 21.3711 22.7031 21.3711C23.0781 21.3711 23.4531 21.3711 23.7812 21.2773C24.0156 21.2305 24.2969 21.2773 24.4844 21.4648L25.3281 22.3555C25.5156 22.2617 25.6562 22.168 25.7969 22.1211L25.9844 21.9805C26.1719 21.8867 26.3125 21.793 26.4531 21.6992L26.1719 20.5273C26.0781 20.2461 26.1719 20.0117 26.3125 19.8242C26.7812 19.3086 27.1562 18.6523 27.3906 17.9961C27.4375 17.7148 27.6719 17.5273 27.9062 17.4805L29.0781 17.1523C29.0781 16.9648 29.125 16.7305 29.125 16.4961C29.125 16.3086 29.0781 16.0742 29.0781 15.8867L27.9062 15.5586C27.6719 15.4648 27.4375 15.2773 27.3906 15.043C27.1562 14.3398 26.7812 13.7305 26.3125 13.2148C26.1719 13.0273 26.0781 12.7461 26.1719 12.5117L26.4531 11.3398C26.3125 11.2461 26.1719 11.1523 26.0312 11.0586L25.7969 10.918C25.6562 10.8242 25.5156 10.7773 25.3281 10.6836L24.4844 11.5742C24.2969 11.7148 24.0156 11.8086 23.7812 11.7617C23.4531 11.668 23.0781 11.6211 22.75 11.6211C22.375 11.6211 22 11.668 21.6719 11.7617C21.4375 11.8086 21.1562 11.7148 20.9688 11.5742L20.125 10.6836C19.9375 10.7773 19.7969 10.8242 19.6562 10.918L19.4219 11.0586C19.2812 11.1523 19.1406 11.2461 19 11.3398L19.3281 12.5117C19.375 12.7461 19.3281 13.0273 19.1406 13.2148C18.6719 13.7305 18.2969 14.3398 18.0625 15.043C18.0156 15.2773 17.8281 15.4648 17.5469 15.5586L16.375 15.8867C16.375 16.0742 16.375 16.3086 16.375 16.4961C16.375 16.7305 16.375 16.9648 16.375 17.1523ZM14.9688 17.9023C14.875 17.4336 14.875 16.9648 14.875 16.4961C14.875 16.0273 14.875 15.6055 14.9688 15.1367C15.0156 14.8555 15.25 14.6211 15.5312 14.5742L16.7969 14.1992C17.0312 13.5898 17.3594 13.0273 17.7344 12.5117L17.4062 11.2461C17.3594 10.9648 17.4531 10.6836 17.6875 10.4961C17.9688 10.2148 18.2969 9.98047 18.6719 9.74609L18.9062 9.60547H18.9531C19.2812 9.41797 19.6562 9.23047 20.0312 9.08984C20.3125 8.99609 20.5938 9.08984 20.8281 9.27734L21.7656 10.2148C22.0938 10.168 22.4219 10.1211 22.75 10.1211C23.0781 10.1211 23.4062 10.168 23.6875 10.2148L24.625 9.27734C24.8594 9.08984 25.1406 8.99609 25.4219 9.08984C25.7969 9.23047 26.1719 9.41797 26.5469 9.60547L26.7812 9.74609V9.79297C27.1562 9.98047 27.4844 10.2148 27.8125 10.4961C28 10.6836 28.0938 10.9648 28.0469 11.2461L27.7188 12.5117C28.0938 13.0273 28.4219 13.5898 28.7031 14.1992L29.9688 14.5742C30.25 14.6211 30.4375 14.8555 30.4844 15.1367C30.5781 15.6055 30.625 16.0742 30.625 16.4961C30.625 16.9648 30.5781 17.4336 30.4844 17.9023C30.4375 18.1836 30.25 18.418 29.9688 18.4648L28.7031 18.8398C28.4219 19.4492 28.0938 20.0117 27.7188 20.5273L28.0469 21.793C28.1406 22.0742 28 22.3555 27.8125 22.543C27.4844 22.8242 27.1562 23.0586 26.7812 23.293L26.5469 23.3867C26.2188 23.6211 25.8438 23.7617 25.4219 23.9023C25.1875 23.9961 24.8594 23.9492 24.6719 23.7617L23.7344 22.8242C23.4062 22.8711 23.0781 22.918 22.75 22.918C22.4219 22.918 22.0938 22.8711 21.7656 22.8242L20.8281 23.7617C20.6406 23.9492 20.3125 24.043 20.0312 23.9023C19.6562 23.7617 19.2812 23.6211 18.9062 23.3867L18.7188 23.293C18.3438 23.0586 18.0156 22.8242 17.6875 22.543C17.4531 22.3555 17.3594 22.0742 17.4531 21.793L17.7812 20.5273C17.3594 20.0117 17.0312 19.4492 16.7969 18.8398L15.5312 18.4648C15.25 18.418 15.0156 18.1836 14.9688 17.9023ZM22.75 19.1211C21.7656 19.1211 20.9219 18.6523 20.4531 17.8086C19.9844 17.0117 19.9844 16.0273 20.4531 15.1836C20.9219 14.3867 21.7656 13.8711 22.75 13.8711C23.6875 13.8711 24.5312 14.3867 25 15.1836C25.4688 16.0273 25.4688 17.0117 25 17.8086C24.5312 18.6523 23.6875 19.1211 22.75 19.1211ZM23.875 16.4961C23.875 15.8867 23.3594 15.3711 22.75 15.3711C22.0938 15.3711 21.625 15.8867 21.625 16.4961C21.625 17.1523 22.0938 17.6211 22.75 17.6211C23.3594 17.6211 23.875 17.1523 23.875 16.4961Z" fill="#314081"/></svg>