<svg width="134" height="48" fill="none" xmlns="http://www.w3.org/2000/svg"><path fill-rule="evenodd" clip-rule="evenodd" d="M43.612 7.99765H37.3236V33.8434H32.3312V7.99765H26.0723V3.25558H43.612V7.99765Z" fill="white"/><path fill-rule="evenodd" clip-rule="evenodd" d="M67.4836 33.8434H62.7858V17.0253C62.7858 15.096 62.8299 13.4466 62.933 12.077H62.8447C62.6238 12.6661 62.2556 13.5055 61.7401 14.61L52.6389 33.8287H47.6465V3.25558H52.3444V20.1768C52.3444 22.268 52.3002 23.6671 52.2266 24.374H52.2855C52.3296 24.1973 52.7125 23.3726 53.4194 21.8704L62.1672 3.24085H67.4836V33.8434Z" fill="white"/><path fill-rule="evenodd" clip-rule="evenodd" d="M89.1032 7.99765H82.8148V33.8434H77.8371V7.99765H71.5781V3.25558H89.1032V7.99765Z" fill="white"/><path fill-rule="evenodd" clip-rule="evenodd" d="M102.563 21.7526L100.192 11.4732C100.015 10.7074 99.8975 9.79433 99.8239 8.71927H99.706C99.6619 9.61761 99.5293 10.5012 99.3231 11.3848L96.9227 21.7526H102.563ZM110.678 33.8434H105.258L103.682 27.0396H95.8329L94.2865 33.8434H88.8965L96.9227 3.24085H102.813L110.663 33.8434H110.678Z" fill="white"/><path fill-rule="evenodd" clip-rule="evenodd" d="M133.594 33.8434H128.601V21.3844H119.471V33.8434H114.508V3.25558H119.471V15.4642H128.601V3.25558H133.594V33.8434Z" fill="white"/><path fill-rule="evenodd" clip-rule="evenodd" d="M34.3341 46.8326H32.6994L28.8262 42.7385C28.6789 42.5912 28.5906 42.4734 28.5611 42.4292H28.5317V46.8473H27.3535V37.8933H28.5317V42.1052H28.5611C28.62 42.0168 28.7084 41.9138 28.8262 41.7959L32.5816 37.8933H34.0395L29.7393 42.1936L34.3488 46.862L34.3341 46.8326Z" fill="white"/><path fill-rule="evenodd" clip-rule="evenodd" d="M43.8624 38.6738C42.8021 38.6738 41.9479 39.0125 41.2999 39.69C40.6372 40.3674 40.3132 41.2658 40.3132 42.3703C40.3132 43.4748 40.6372 44.3584 41.2705 45.0359C41.9185 45.7133 42.7432 46.052 43.7741 46.052C44.8786 46.052 45.7475 45.728 46.3807 45.0948C47.014 44.4468 47.338 43.5484 47.338 42.3997C47.338 41.251 47.0287 40.3085 46.4102 39.6605C45.7916 39.0125 44.9522 38.6886 43.8624 38.6886V38.6738ZM43.7741 46.9798C42.3455 46.9798 41.2116 46.5675 40.3574 45.728C39.5033 44.8886 39.0762 43.7988 39.0762 42.4586C39.0762 41.0154 39.518 39.8667 40.3869 39.0125C41.2558 38.1584 42.4486 37.7313 43.9508 37.7313C45.3351 37.7313 46.4544 38.1437 47.2938 38.9831C48.1332 39.8225 48.5603 40.9123 48.5603 42.2525C48.5603 43.7104 48.1332 44.8739 47.2643 45.7133C46.3955 46.5675 45.232 46.9945 43.7741 46.9945V46.9798Z" fill="white"/><path fill-rule="evenodd" clip-rule="evenodd" d="M60.8566 46.8325H59.6784V42.7385H54.4946V46.8325H53.3164V37.8638H54.4946V41.7959H59.6784V37.8638H60.8566V46.8325Z" fill="white"/><path fill-rule="evenodd" clip-rule="evenodd" d="M72.5654 38.8211H69.6642V46.8325H68.4861V38.8211H65.5996V37.8638H72.5654V38.8211Z" fill="white"/><path fill-rule="evenodd" clip-rule="evenodd" d="M78.4848 38.8211V42.4881H79.7219C80.5318 42.4881 81.1504 42.3261 81.5774 41.9874C82.0045 41.6487 82.2107 41.1921 82.2107 40.5883C82.2107 39.4102 81.4302 38.8211 79.8544 38.8211H78.4701H78.4848ZM78.4848 43.4454V46.8325H77.3066V37.8786H80.0606C81.1356 37.8786 81.9603 38.1142 82.5494 38.5855C83.1385 39.0567 83.433 39.7047 83.433 40.5589C83.433 41.413 83.109 42.1052 82.4463 42.6501C81.7983 43.195 80.9 43.4601 79.7955 43.4601H78.4701L78.4848 43.4454Z" fill="white"/><path fill-rule="evenodd" clip-rule="evenodd" d="M92.9766 38.6738C91.9163 38.6738 91.0621 39.0125 90.4141 39.69C89.7514 40.3674 89.4274 41.2658 89.4274 42.3703C89.4274 43.4748 89.7514 44.3584 90.3847 45.0359C91.0326 45.7133 91.8574 46.052 92.8882 46.052C93.9928 46.052 94.8616 45.728 95.4949 45.0948C96.1282 44.4468 96.4522 43.5484 96.4522 42.3997C96.4522 41.251 96.1429 40.3085 95.5244 39.6605C94.9058 39.0125 94.0664 38.6886 92.9766 38.6886V38.6738ZM92.903 46.9798C91.4745 46.9798 90.3405 46.5675 89.4863 45.728C88.6322 44.8886 88.2051 43.7988 88.2051 42.4586C88.2051 41.0154 88.6469 39.8667 89.5158 39.0125C90.3847 38.1584 91.5775 37.7313 93.0797 37.7313C94.464 37.7313 95.5833 38.1437 96.4227 38.9831C97.2621 39.8225 97.6892 40.9123 97.6892 42.2525C97.6892 43.7104 97.2621 44.8739 96.3932 45.7133C95.5244 46.5675 94.3609 46.9945 92.903 46.9945V46.9798Z" fill="white"/><path fill-rule="evenodd" clip-rule="evenodd" d="M110.635 46.8325H109.456V38.8211H106.673C106.349 41.0743 106.099 42.6795 105.907 43.6073C105.716 44.5351 105.539 45.2273 105.348 45.6691C105.156 46.1109 104.891 46.4349 104.567 46.6558C104.243 46.8767 103.845 46.9798 103.389 46.9798C103.021 46.9798 102.697 46.9356 102.432 46.8473V45.8606C102.667 45.9784 102.932 46.0373 103.227 46.0373C103.521 46.0373 103.787 45.89 104.037 45.5808C104.287 45.2715 104.552 44.4762 104.817 43.1803C105.082 41.8843 105.377 40.1171 105.701 37.8786H110.635V46.8325Z" fill="white"/><path fill-rule="evenodd" clip-rule="evenodd" d="M114.949 39.204H121.237L123.697 42.8268H131.031C131.252 43.1508 131.62 43.357 132.047 43.357C132.724 43.357 133.269 42.8121 133.269 42.1347C133.269 41.4572 132.724 40.9123 132.047 40.9123C131.62 40.9123 131.237 41.1332 131.016 41.472H124.404L121.944 37.8491H114.949C114.581 37.8491 114.271 38.1437 114.271 38.5266C114.271 38.9095 114.566 39.204 114.949 39.204Z" fill="white"/><path fill-rule="evenodd" clip-rule="evenodd" d="M132.047 44.9769C131.649 44.9769 131.296 45.1684 131.075 45.4629H114.949C114.581 45.4629 114.271 45.7575 114.271 46.1404C114.271 46.5233 114.566 46.8178 114.949 46.8178H130.987C131.193 47.186 131.59 47.4216 132.047 47.4216C132.724 47.4216 133.269 46.8767 133.269 46.1993C133.269 45.5218 132.724 44.9769 132.047 44.9769Z" fill="white"/><path fill-rule="evenodd" clip-rule="evenodd" d="M114.949 42.871H118.955C119.176 43.1655 119.529 43.357 119.927 43.357C120.604 43.357 121.149 42.8121 121.149 42.1347C121.149 41.4572 120.604 40.9123 119.927 40.9123C119.47 40.9123 119.087 41.1627 118.866 41.5161H114.949C114.581 41.5161 114.271 41.8107 114.271 42.1936C114.271 42.5765 114.566 42.871 114.949 42.871Z" fill="white"/><path fill-rule="evenodd" clip-rule="evenodd" d="M125.891 39.2334H131.031C131.252 39.528 131.605 39.7194 132.003 39.7194C132.68 39.7194 133.225 39.1745 133.225 38.4971C133.225 37.8197 132.68 37.2748 132.003 37.2748C131.547 37.2748 131.164 37.5251 130.943 37.8786H125.877C125.508 37.8786 125.199 38.1731 125.199 38.556C125.199 38.9389 125.494 39.2334 125.877 39.2334H125.891Z" fill="white"/><path fill-rule="evenodd" clip-rule="evenodd" d="M6.82421 22.2828C6.36768 26.5241 7.42802 30.4268 9.87268 33.917C12.3468 37.4368 15.7045 39.7195 19.887 40.7503C21.2419 41.0891 22.5967 41.2511 23.9222 41.2658V39.8815C22.6851 39.8815 21.448 39.7047 20.2257 39.4102C18.3112 38.9242 16.5587 38.1584 15.0271 37.1128C13.4955 36.0672 12.1406 34.727 11.0067 33.1071C8.72398 29.8671 7.78146 26.259 8.19382 22.4006C8.47363 19.8528 9.20997 17.5554 10.4029 15.5968C11.6105 13.6233 13.3041 11.915 15.4395 10.5454C17.2951 9.35254 19.2537 8.55729 21.286 8.15966C22.1697 7.99766 23.0533 7.9093 23.9074 7.9093V6.52497C20.9621 6.52497 17.7221 7.43804 14.6884 9.38199C10.02 12.3863 7.39856 16.7307 6.80948 22.2533L6.82421 22.2828Z" fill="white"/><path fill-rule="evenodd" clip-rule="evenodd" d="M23.9069 42.9741C22.8318 42.9741 21.7715 42.871 20.6964 42.6943C20.019 42.5765 19.695 42.7532 19.4299 43.3864C19.047 44.3142 18.6494 45.2273 18.2812 46.1551C18.1781 46.4202 18.0603 46.4791 17.8099 46.3613C16.6465 45.8753 15.4831 45.404 14.3196 44.9328C13.7895 44.7119 13.2593 44.4762 12.7144 44.2848C12.4199 44.167 12.2873 44.0197 12.4199 43.7988C12.8322 42.8268 13.2004 41.9432 13.5686 41.0743C13.8778 40.3527 13.7895 40.014 13.1415 39.5574C11.3006 38.2615 9.72484 36.7004 8.4436 34.8596C8.04597 34.2852 7.70726 34.1821 7.05927 34.4619C6.11675 34.8448 5.18895 35.2277 4.26116 35.6254C4.0108 35.7284 3.90771 35.699 3.80462 35.4486C3.09773 33.7109 2.37611 31.9878 1.63976 30.25C1.53668 29.9997 1.59558 29.8966 1.83121 29.8082C2.77374 29.4253 3.70153 29.0277 4.62933 28.6448C5.26259 28.3797 5.43931 28.0557 5.32149 27.3636C4.92387 25.1103 4.90914 22.8571 5.32149 20.6039C5.42458 20.0295 5.21841 19.6466 4.65878 19.411C3.71626 19.0134 2.75901 18.6158 1.81649 18.2476C1.5514 18.1445 1.52195 18.012 1.62504 17.7616C2.33193 16.068 3.02409 14.3744 3.71626 12.6661C3.8488 12.3421 4.0108 12.3274 4.29061 12.4452C5.1595 12.8134 6.02839 13.1668 6.89727 13.5497C7.60417 13.8442 7.98707 13.7559 8.42887 13.1226C9.68066 11.3112 11.2123 9.79433 12.9942 8.51309C13.7453 7.98292 13.8189 7.70311 13.4508 6.83422C13.0826 5.96533 12.7291 5.08172 12.361 4.21283C12.2579 3.96247 12.3021 3.85938 12.5377 3.7563C14.2755 3.0494 16.0132 2.32779 17.7363 1.59144C18.0161 1.47362 18.0897 1.59144 18.1781 1.79762C18.561 2.72541 18.9439 3.63848 19.3268 4.56628C19.6066 5.22899 19.9011 5.40571 20.6228 5.2879C21.7126 5.09645 22.8171 4.99336 23.9069 4.99336V3.60903C22.9054 3.60903 21.904 3.69739 20.9026 3.85939C20.608 3.90357 20.4902 3.8152 20.3871 3.56485C20.0042 2.6076 19.6066 1.66507 19.209 0.722551C18.9144 0.0303856 18.4432 -0.161064 17.7363 0.133474C15.6451 1.00236 13.5391 1.87125 11.4479 2.75487C10.7705 3.03468 10.579 3.50594 10.8588 4.18338C11.2564 5.15535 11.6541 6.12733 12.0812 7.09931C12.1695 7.30548 12.1548 7.43803 11.9633 7.57057C10.2697 8.80763 8.81177 10.2656 7.57471 11.9592C7.42744 12.1654 7.28018 12.239 7.04454 12.1212C6.92673 12.0623 6.79419 12.0181 6.67637 11.9592C5.7633 11.5763 4.85023 11.2081 4.0108 10.8547C3.40699 10.6927 2.96519 10.9136 2.74428 11.4585C1.8754 13.5644 1.00651 15.6704 0.137618 17.7911C-0.171647 18.5716 0.03453 19.0134 0.815057 19.3227C1.74285 19.6908 2.65592 20.0885 3.59844 20.4566C3.8488 20.5597 3.93716 20.6923 3.89298 20.9721C3.56899 23.0191 3.56899 25.0662 3.89298 27.0985C3.93716 27.393 3.8488 27.5108 3.59844 27.6139C2.65592 27.9968 1.72813 28.3797 0.785603 28.7773C0.0492568 29.0866 -0.15692 29.5579 0.152345 30.2942C1.00651 32.3707 1.8754 34.4325 2.74428 36.4942C3.05355 37.2306 3.49536 37.422 4.2317 37.1128C5.17422 36.7299 6.10202 36.347 7.02982 35.9346C7.32436 35.8021 7.47162 35.861 7.66307 36.1113C8.85596 37.746 10.2845 39.1598 11.9192 40.3527C12.2431 40.5883 12.2284 40.7798 12.0959 41.089C11.6983 42.0021 11.3154 42.9299 10.9472 43.8577C10.6674 44.5351 10.8735 45.0064 11.551 45.2862C13.598 46.1256 15.6451 46.9651 17.6921 47.8192C18.5904 48.1874 19.0028 48.0107 19.371 47.1271C19.7391 46.2287 20.1073 45.3304 20.4608 44.4173C20.5639 44.167 20.6817 44.0786 20.9762 44.1228C21.9482 44.2701 22.9202 44.3437 23.9069 44.3584V42.9888V42.9741Z" fill="white"/><path fill-rule="evenodd" clip-rule="evenodd" d="M20.4305 9.88271C20.5042 9.97107 20.4894 10.0594 20.4894 10.1478C20.4894 11.1787 20.4894 12.2243 20.4894 13.2552C20.4894 13.4466 20.4305 13.535 20.2538 13.6233C19.6647 13.8884 19.3555 14.3891 19.3555 15.0224C19.3555 15.6409 19.65 16.1417 20.2391 16.4362C20.8429 16.7455 21.6529 16.5982 22.0947 16.068C22.3745 15.7293 22.5512 15.3169 22.4923 14.8751C22.4039 14.3155 22.1241 13.8737 21.6087 13.6233C21.4467 13.5497 21.4172 13.4614 21.4172 13.3141C21.4172 12.6808 21.4172 12.0476 21.4172 11.3996C21.4172 10.9283 21.4172 10.4571 21.4172 9.9858C21.4172 9.89744 21.4172 9.80908 21.4467 9.70599C21.5792 9.6029 21.7265 9.58817 21.8885 9.55872C22.2861 9.48508 22.6838 9.52926 23.0814 9.42618C23.3317 9.36727 23.6263 9.42618 23.8766 9.42618C23.965 9.49981 23.9503 9.58817 23.9503 9.66181C23.9503 12.3127 23.9503 14.9488 23.9503 17.5996C23.9503 17.6733 23.9503 17.7469 23.9208 17.8058C23.8619 17.8647 23.7883 17.8647 23.7146 17.8647C21.6087 17.8647 19.5027 17.8647 17.3968 17.8647C17.2495 17.8647 17.1612 17.8352 17.1023 17.688C16.955 17.3787 16.7488 17.1284 16.4395 16.9664C16.3217 16.8927 16.1892 16.8485 16.0566 16.8338C16.0419 16.8338 16.0125 16.8338 15.9977 16.8338C15.7179 16.6571 15.4528 16.7896 15.1878 16.8633C14.8049 16.9664 14.5103 17.2167 14.3041 17.5702C14.098 17.9531 14.0538 18.3654 14.1863 18.7778C14.422 19.5583 15.1583 20.0001 15.9536 19.8676C16.4985 19.7792 16.8814 19.4552 17.1023 18.9398C17.1759 18.7778 17.279 18.7336 17.441 18.7336C19.5175 18.7336 21.6087 18.7336 23.6852 18.7336C23.7588 18.7336 23.8325 18.7336 23.9061 18.763C23.9061 18.763 23.9061 18.763 23.9208 18.7778C23.9208 18.7778 23.9208 18.7778 23.9208 18.8072C23.9208 18.8514 23.9355 18.8956 23.9355 18.9398C23.9355 25.4491 23.9355 31.9584 23.9355 38.4529C23.9355 38.4824 23.9355 38.5118 23.9061 38.5413C23.6999 38.6149 23.479 38.5707 23.2728 38.5707C23.1697 38.4677 23.1992 38.3498 23.1992 38.2468C23.1992 37.2895 23.2287 36.3175 23.1992 35.3603C23.1256 33.6372 23.1992 31.9289 23.155 30.2059C23.155 29.4548 22.7279 28.9688 22.1094 28.6154C21.8443 28.4681 21.5498 28.4239 21.2405 28.4239C21.0638 28.4239 20.9018 28.4239 20.7251 28.4239C20.298 28.4239 19.9298 28.0852 19.8709 27.6728C19.8415 27.4667 19.8267 27.2605 19.8267 27.0543C19.8267 25.9056 19.8267 24.7422 19.8267 23.5935C19.8267 23.5051 19.8267 23.4315 19.8267 23.3431C19.8267 23.2253 19.8856 23.1222 20.0182 23.078C20.1949 23.0191 20.3275 22.8866 20.46 22.7688C20.9902 22.2828 21.0343 21.3697 20.6662 20.8101C20.4453 20.4861 20.1507 20.2799 19.812 20.1768C19.488 20.0737 19.1493 20.0885 18.8106 20.221C18.4277 20.3683 18.1479 20.6334 17.9711 20.9721C17.8239 21.2519 17.7355 21.5612 17.8091 21.8999C17.9417 22.5184 18.2951 22.9308 18.8695 23.1517C18.9284 23.2695 18.9137 23.3726 18.9137 23.4904C18.9137 24.8011 18.9137 26.1118 18.9137 27.4225C18.9137 27.8496 19.0462 28.2472 19.3113 28.6006C19.6942 29.1161 20.2096 29.3222 20.8282 29.337C20.9902 29.337 21.1522 29.3517 21.3142 29.337C21.8001 29.2781 22.2861 29.823 22.2861 30.2942C22.2861 32.9156 22.2861 35.5517 22.2861 38.1731C22.2861 38.2468 22.3009 38.3351 22.2567 38.4088C21.9621 38.4971 21.1669 38.3351 19.8267 37.9375C19.7531 37.8491 19.7826 37.7313 19.7826 37.6282C19.7826 36.3912 19.7826 35.1541 19.7826 33.917C19.7826 33.2102 19.4733 32.6653 18.8842 32.2824C18.5897 32.0909 18.2362 32.0173 17.8681 32.0173C15.983 32.0173 14.1127 32.0173 12.2276 32.0173C11.9626 32.0173 11.8006 31.9584 11.6533 31.708C11.3882 31.222 11.0937 30.7655 10.858 30.2648C10.6666 29.8524 10.4751 29.4253 10.3131 28.9982C10.2542 28.8068 10.1511 28.6301 10.1659 28.4092C10.1659 28.3944 10.1659 28.365 10.1659 28.365C10.0186 28.2766 10.0628 28.1294 10.0333 27.9968C10.0333 27.9379 9.9597 27.9085 9.98915 27.8348C10.1659 27.7465 10.3573 27.8496 10.534 27.8054C10.7255 27.7612 10.9169 27.8496 11.0937 27.8054C11.2851 27.7612 11.4618 27.8643 11.668 27.8348C11.8153 28.0705 11.9331 28.3355 12.154 28.5417C12.5516 28.8952 13.0376 29.0572 13.5383 28.9393C14.1274 28.7921 14.5692 28.4386 14.7018 27.7906C14.7312 27.6286 14.8343 27.4667 14.7901 27.2899C14.7018 26.9954 14.6429 26.7009 14.4367 26.4505C14.0096 25.9056 13.45 25.7878 12.8167 25.8909C12.5075 25.9351 12.2424 26.1265 12.0509 26.3769C11.9478 26.5094 11.7564 26.583 11.7711 26.8187C11.7711 26.8923 11.668 26.9659 11.5649 26.9659H9.76825C9.62098 26.5978 9.5768 26.2296 9.56207 25.8614C9.56207 25.7141 9.56207 25.5669 9.48844 25.4343C9.45898 25.3902 9.45898 25.3312 9.45898 25.2723C9.45898 24.5949 9.45898 23.9322 9.45898 23.2548C9.45898 23.2253 9.45898 23.1811 9.47371 23.1517C9.56207 23.0633 9.67989 23.0928 9.78298 23.0928C11.4618 23.0928 13.1407 23.0928 14.8196 23.0928H15.2025C15.5854 23.0928 15.8652 23.2842 16.0566 23.5935C16.145 23.7407 16.2186 23.9322 16.2186 24.1384C16.2186 25.3607 16.2186 26.5683 16.2186 27.7906C16.2186 27.9821 16.1597 28.0999 15.983 28.1735C15.6148 28.3355 15.3939 28.6154 15.2319 28.9835C15.0994 29.2781 15.0847 29.5726 15.1436 29.8671C15.2614 30.3973 15.5559 30.8097 16.1008 31.0158C16.3806 31.1189 16.6457 31.1484 16.9255 31.1042C17.2937 31.0453 17.6324 30.8833 17.8681 30.574C18.1626 30.1911 18.3099 29.7493 18.2068 29.2781C18.089 28.7773 17.8386 28.3503 17.3232 28.1588C17.117 28.0705 17.0728 28.0852 17.0728 27.7906C17.0728 26.5389 17.0875 25.3018 17.0728 24.05C17.0728 23.2989 16.6899 22.7393 16.0125 22.3859C15.7768 22.268 15.5412 22.2239 15.2761 22.2239C13.4942 22.2239 11.7122 22.2239 9.93025 22.2239C9.82716 22.2239 9.70934 22.2239 9.62098 22.2091C9.56207 22.165 9.54735 22.1061 9.56207 22.0471C9.62098 21.8115 9.59153 21.5612 9.69461 21.3255C9.7388 21.2224 9.70934 21.0899 9.7388 20.9721C9.85661 20.5155 9.9597 20.059 10.0922 19.6172C10.2984 18.9839 10.5488 18.3654 10.8286 17.7616C11.0053 17.364 11.2262 16.9958 11.4324 16.6129C11.6091 16.2742 11.83 15.9649 12.0509 15.6557C12.5516 14.9193 13.126 14.2566 13.7592 13.6233C14.525 12.8723 15.3498 12.2096 16.2628 11.6352C16.7635 11.3112 17.3084 11.0609 17.8239 10.7811C18.2657 10.5454 18.7369 10.3834 19.1935 10.2067C19.4438 10.1036 19.6942 10.0153 19.974 9.97107C20.1213 9.94162 20.2538 9.8238 20.4305 9.86798V9.88271Z" fill="white"/><path fill-rule="evenodd" clip-rule="evenodd" d="M18.8557 37.5546C18.7673 37.6135 18.6937 37.584 18.6201 37.5546C18.1046 37.3337 17.5892 37.1275 17.1032 36.8477C16.5878 36.5532 16.0723 36.2586 15.6011 35.9052C15.2771 35.6695 14.9531 35.4486 14.6585 35.1836C14.2167 34.8154 13.7749 34.4325 13.392 34.0054C13.1122 33.6814 12.7882 33.3869 12.582 33.0187C12.6115 32.9303 12.6704 32.9451 12.7293 32.9451C13.0975 32.9451 13.4509 32.9745 13.8191 32.9156C13.9958 32.8862 14.1725 32.9598 14.364 32.9598C15.5274 32.9598 16.7056 32.9598 17.869 32.9598C18.517 32.9598 18.8999 33.4458 18.8999 33.9759C18.8999 35.1099 18.8999 36.2439 18.8999 37.3779C18.8999 37.4368 18.8999 37.5104 18.8704 37.584L18.8557 37.5546Z" fill="white"/><path fill-rule="evenodd" clip-rule="evenodd" d="M19.5914 19.411C19.4147 19.411 19.2381 19.3669 19.0762 19.411H19.5914Z" fill="white"/><path fill-rule="evenodd" clip-rule="evenodd" d="M19.0769 19.617C19.0033 19.617 18.9297 19.5728 18.9002 19.4845C18.8708 19.3815 18.9297 19.2784 19.018 19.249C19.1946 19.1901 19.386 19.2048 19.5332 19.2196H19.6068C19.7098 19.2196 19.7834 19.3226 19.7687 19.4256C19.7687 19.5287 19.6804 19.6023 19.5773 19.5875H19.5037C19.3713 19.5728 19.2388 19.5581 19.121 19.5875C19.1063 19.5875 19.0916 19.5875 19.0621 19.5875L19.0769 19.617Z" fill="white"/></svg>