<svg width="45" height="48" fill="none" xmlns="http://www.w3.org/2000/svg"><path d="M35.25 11.4375C35.9062 11.8125 36.6562 12 37.5 12C37.6875 12 37.9688 12 38.1562 12C40.3125 11.625 42 9.75 42 7.5C42 5.0625 39.9375 3 37.5 3C34.9688 3 33 5.0625 33 7.5C33 7.59375 33 7.6875 33 7.6875C33 8.8125 33.375 9.75 34.0312 10.5C34.4062 10.875 34.7812 11.25 35.25 11.4375ZM34.6875 14.5312C33.2812 13.9688 32.0625 12.9375 31.2188 11.625L14.8125 18.1875C14.9062 18.6562 15 19.125 15 19.5C15 20.9062 14.625 22.125 13.9688 23.25L26.9062 34.5938C28.125 33.6562 29.625 33.0938 31.3125 33.0938L34.6875 14.5312ZM34.2188 33.5625C37.0312 34.6875 39 37.4062 39 40.5C39 44.7188 35.625 48 31.5 48C27.2812 48 24 44.7188 24 40.5C24 39.1875 24.2812 37.9688 24.9375 36.8438L12 25.5C10.7812 26.4375 9.1875 27 7.5 27C3.28125 27 0 23.7188 0 19.5C0 15.375 3.28125 12 7.5 12C10.0312 12 12.375 13.4062 13.6875 15.375L30.0938 8.90625C30 8.4375 30 7.96875 30 7.5C30 3.375 33.2812 0 37.5 0C41.625 0 45 3.375 45 7.5C45 11.625 41.7188 15 37.5938 15L34.2188 33.5625ZM11.1562 22.0312C11.25 21.9375 11.3438 21.8438 11.3438 21.75C11.7188 21.0938 12 20.3438 12 19.5C12 17.0625 9.9375 15 7.5 15C4.96875 15 3 17.0625 3 19.5C3 22.0312 4.96875 24 7.5 24C8.25 24 9 23.8125 9.65625 23.4375C10.3125 23.0625 10.7812 22.5938 11.1562 22.0312ZM27.2812 38.9062C27.0938 39.375 27 39.9375 27 40.5C27 43.0312 28.9688 45 31.5 45C33.9375 45 36 43.0312 36 40.5C36 38.0625 33.9375 36 31.5 36C30.1875 36 28.9688 36.5625 28.125 37.5C27.9375 37.7812 27.6562 38.0625 27.4688 38.4375C27.375 38.5312 27.375 38.7188 27.2812 38.9062Z" fill="white"/></svg>