<svg width="56" height="56" fill="none" xmlns="http://www.w3.org/2000/svg"><path fill-rule="evenodd" clip-rule="evenodd" d="M15.4923 47.2262H11.353C9.80079 47.2262 8.5935 46.0189 8.5935 44.4667V11.3525C8.5935 9.88653 9.80079 8.59301 11.353 8.59301H22.3911V18.2513C22.3911 20.5797 24.202 22.3906 26.5303 22.3906H36.1887V35.3603H38.9482V19.976C38.9482 18.9412 38.4308 17.8201 37.6546 17.044L27.7376 7.12702C26.9615 6.35091 25.8405 5.8335 24.8057 5.8335H11.353C8.24856 5.8335 5.83398 8.33431 5.83398 11.3525V44.4667C5.83398 47.5712 8.24856 49.9857 11.353 49.9857H15.4923V47.2262ZM36.0402 19.4968L36.0402 19.4968L36.0403 19.4969C36.0617 19.5449 36.0821 19.5904 36.1024 19.6311H26.5303C25.7542 19.6311 25.1506 19.0274 25.1506 18.2513V8.67925C25.1913 8.6996 25.2368 8.71996 25.2849 8.74145C25.4404 8.811 25.6225 8.89243 25.7542 9.02419L35.7575 19.0274C35.8892 19.1592 35.9707 19.3413 36.0402 19.4968ZM40.6815 48.0767C41.1191 49.2689 42.5603 50.1668 44.8089 50.1668C47.5253 50.1668 49.1929 48.8237 49.1929 46.6959C49.1929 45.0434 48.1968 44.1153 45.8879 43.655L44.741 43.4211C43.4507 43.1646 42.9301 42.7496 42.9301 42.078C42.9301 41.2782 43.6771 40.75 44.8014 40.75C45.737 40.75 46.4387 41.0895 46.8009 41.912C47.0575 42.3798 47.3744 42.5836 47.8875 42.5836C48.4685 42.5836 48.8609 42.2138 48.8609 41.6705C48.8609 41.4744 48.8307 41.3159 48.7779 41.165C48.2949 39.7464 46.7934 38.9089 44.8014 38.9089C42.3792 38.9089 40.6438 40.2293 40.6438 42.2214C40.6438 43.8437 41.7077 44.8849 43.8808 45.315L45.0353 45.5414C46.401 45.8206 46.9141 46.2281 46.9141 46.9449C46.9141 47.7447 46.0841 48.3333 44.8617 48.3333C43.8204 48.3333 42.9678 47.956 42.6131 47.126C42.3415 46.6431 42.0321 46.462 41.5643 46.462C40.9758 46.462 40.5608 46.8619 40.5608 47.4655C40.5608 47.6693 40.606 47.8805 40.6815 48.0767ZM34.4499 50.1668C31.6581 50.1668 29.8849 48.537 29.8849 46.1375V40.1388C29.8849 39.3842 30.3074 38.9466 31.0243 38.9466C31.7411 38.9466 32.1636 39.3842 32.1636 40.1388V45.9111C32.1636 47.3071 32.9861 48.2201 34.4499 48.2201C35.9062 48.2201 36.7287 47.3071 36.7287 45.9111V40.1388C36.7287 39.3842 37.1512 38.9466 37.8681 38.9466C38.5849 38.9466 39.0074 39.3842 39.0074 40.1388V46.1375C39.0074 48.537 37.2342 50.1668 34.4499 50.1668ZM19.9851 48.9595C19.9851 49.7065 20.4152 50.1442 21.1245 50.1442C21.8413 50.1442 22.2639 49.7065 22.2639 48.9595V46.0017H24.2031L26.014 49.284C26.3837 49.948 26.6328 50.1442 27.176 50.1442C27.84 50.1442 28.323 49.7065 28.323 49.1029C28.323 48.8388 28.2701 48.6426 28.0815 48.3182L26.512 45.6018C27.7118 45.0887 28.3833 43.9267 28.3833 42.5685C28.3833 40.418 26.9497 39.0975 24.4445 39.0975H21.1245C20.4077 39.0975 19.9851 39.5352 19.9851 40.2822V48.9595ZM24.2257 44.3492H22.2639V40.8783H24.2031C25.3349 40.8783 26.0442 41.5574 26.0442 42.6137C26.0442 43.6927 25.3726 44.3492 24.2257 44.3492Z" fill="#314081"/></svg>