<svg width="56" height="56" fill="none" xmlns="http://www.w3.org/2000/svg"><g clip-path="url(#clip0_6001_879)"><path d="M3.5 0L7 3.5L0 3.5L3.5 0Z" fill="#314081"/><path d="M56 52.5L52.5 56V49L56 52.5Z" fill="#314081"/><path d="M12.1435 9.33333C9.67563 9.33333 8.16602 7.95499 8.16602 5.25082V0H10.1876V5.19831C10.1876 6.6948 10.9358 7.46929 12.1698 7.46929C13.4037 7.46929 14.152 6.72105 14.152 5.26395V0H16.1735V5.18519C16.1735 7.96812 14.6114 9.33333 12.1435 9.33333Z" fill="#314081"/><path d="M54.3447 46.6668C53.072 46.6668 52.2098 46.1605 52.2098 44.4635V40.9875H51.334V39.2084H52.2098V37.3335H54.29V39.2084H56.0143V40.9875H54.29V44.1214C54.29 44.6004 54.4953 44.833 54.9606 44.833C55.3438 44.833 55.6859 44.7372 55.987 44.573V46.2426C55.549 46.5026 55.0427 46.6668 54.3447 46.6668Z" fill="#314081"/><path d="M3.5 3.5V52.5H52.5" stroke="#314081" stroke-width="2.5"/><path d="M46.2099 43.1587H41.8987L41.7513 43.0308L41.6039 42.4899L41.4566 41.5521L41.3092 40.2455L41.1618 38.6089L41.0144 36.6911L40.867 34.5492L40.7197 32.2469L40.5723 29.8528L40.4249 27.4383L40.2775 25.0752L40.1301 22.8339L39.9828 20.7812L39.8354 18.9782L39.688 17.4785L39.5406 16.3269L39.3932 15.5577L39.2459 15.1937L39.0985 15.2458L38.9511 15.7125L38.8037 16.5798L38.6563 17.8219L38.509 19.4019L38.3616 21.2726L38.2142 23.3784L38.0668 25.6565L37.9194 28.0391L37.7721 30.4553L37.6247 32.833L37.4773 35.1016L37.3299 37.1933L37.1825 39.046L37.0352 40.6044L36.8878 41.8221L36.7404 42.6629L36.593 43.1017L36.4456 43.1255L36.2983 42.7336L36.1509 41.9375L36.0035 40.7611L35.8561 39.2394L35.7087 37.4176L35.5614 35.3501L35.414 33.0984L35.2666 30.7295L35.1192 28.3141L34.9718 25.924L34.8245 23.6305L34.6771 21.5018L34.5297 19.6013L34.3823 17.9857L34.2349 16.703L34.0876 15.7915L33.9402 15.2782L33.7928 15.1786L33.6454 15.4954L33.498 16.2194L33.3507 17.329L33.2033 18.791L33.0559 20.562L32.9085 22.5893L32.7611 24.8123L32.6138 27.165L32.4664 29.5773L32.319 31.9774L32.1716 34.2936L32.0242 36.4572L31.8769 38.4036L31.7295 40.0749L31.5821 41.4212L31.4347 42.4026L31.2873 42.9898L31.14 43.1652L30.9926 42.9237L30.8452 42.2725L30.6978 41.2309L30.5504 39.83L30.4031 38.1115L30.2557 36.1266L30.1083 33.9343L29.9609 31.6001L29.8135 29.1933L29.6662 26.7857L29.5188 24.449L29.3714 22.2527L29.224 20.2623L29.0766 18.537L28.9293 17.1283L28.7819 16.078L28.6345 15.4176L28.4871 15.1665L28.3397 15.3324L28.1924 15.9102L28.045 16.8827L27.8976 18.2211L27.7502 19.8854L27.6028 21.8261L27.4555 23.9854L27.3081 26.2989L27.1607 28.6978L27.0133 31.1106L26.8659 33.4655L26.7186 35.6923L26.5712 37.7248L26.4238 39.5023L26.2764 40.972L26.129 42.0901L25.9817 42.8232L25.8343 43.1496L25.6869 43.0596L25.5395 42.5558L25.3921 41.6531L25.2448 40.3786L25.0974 38.7701L24.95 36.8756L24.8026 34.7515L24.6552 32.461L24.5079 30.0724L24.3605 27.6567L24.2131 25.286L24.0657 23.0308L23.9183 20.9583L23.771 19.1303L23.6236 17.6011L23.4762 16.4163L23.3288 15.6111L23.1814 15.2097L23.034 15.2239L22.8867 15.6532L22.7393 16.485L22.5919 17.6944L22.4445 19.2454L22.2971 21.0919L22.1498 23.1788L22.0024 25.444L21.855 27.82L21.7076 30.2361L21.5602 32.6203L21.4129 34.9017L21.2655 37.0121L21.1181 38.8889L20.9707 40.4761L20.8233 41.7265L20.676 42.6028L20.5286 43.0789L20.3812 43.1406L20.2338 42.7862L20.0864 42.026L19.9391 40.8829L19.7917 39.3909L19.6443 37.5942L19.4969 35.5466L19.3495 33.3089L19.2022 30.9479L19.0548 28.5337L18.9074 26.1384L18.76 23.8332L18.6126 21.6868L18.4653 19.7631L18.3179 18.1195L18.1705 16.8048L18.0231 15.8582L17.8757 15.3079L17.7284 15.1704L17.581 15.4496L17.4336 16.1373L17.2862 17.213L17.1388 18.6446L16.9915 20.3896L16.8441 22.3959L16.6967 24.6038L16.5493 26.9476L16.4019 29.3575L16.2546 31.7616L16.1072 34.0884L15.9598 36.2686L15.8124 38.2372L15.665 39.9357L15.5177 41.3134L15.3703 42.3293L15.2229 42.9532L15.0755 43.1665L14.9281 42.9628L14.7808 42.3482L14.6334 41.341L14.486 39.9712L14.3386 38.2796L14.1912 36.3165L14.0439 34.1405L13.8965 31.8163L13.7491 29.4132L13.6017 27.0027L13.4543 24.6566L13.307 22.4448L13.1596 20.4331L13.0122 18.6815L12.8648 17.2421L12.7174 16.1578L12.5701 15.4609L12.4227 15.1721H8.75" stroke="#314081" stroke-width="2" stroke-miterlimit="10" stroke-linecap="round" stroke-linejoin="round"/></g><defs><clipPath id="clip0_6001_879"><rect width="56" height="56" fill="white"/></clipPath></defs></svg>