<svg width="24" height="24" fill="none" xmlns="http://www.w3.org/2000/svg"><path d="M10.5469 1.59375C10.5 1.64062 10.4531 1.73438 10.4531 1.78125L9.79688 4.03125C9.65625 4.59375 9.23438 5.01562 8.76562 5.25C8.39062 5.4375 8.0625 5.625 7.73438 5.85938C7.3125 6.14062 6.70312 6.28125 6.14062 6.14062L3.89062 5.57812C3.79688 5.57812 3.75 5.57812 3.65625 5.57812C3.42188 5.90625 3.1875 6.23438 2.95312 6.60938L2.76562 6.9375C2.57812 7.3125 2.39062 7.6875 2.25 8.0625C2.25 8.10938 2.29688 8.20312 2.34375 8.25L3.98438 9.89062C4.35938 10.3125 4.54688 10.9219 4.5 11.4375C4.5 11.625 4.5 11.8125 4.5 12C4.5 12.2344 4.5 12.4219 4.5 12.6094C4.54688 13.125 4.35938 13.6875 3.98438 14.1094L2.34375 15.7969C2.29688 15.8438 2.25 15.9375 2.25 15.9844C2.39062 16.3594 2.57812 16.7344 2.76562 17.1094L3 17.4375C3.1875 17.8125 3.42188 18.1406 3.70312 18.4688C3.75 18.4688 3.79688 18.4688 3.89062 18.4688L6.14062 17.9062C6.70312 17.7656 7.3125 17.9062 7.73438 18.1875C8.0625 18.4219 8.39062 18.6094 8.76562 18.7969C9.23438 19.0312 9.65625 19.4531 9.79688 20.0156L10.4531 22.2656C10.4531 22.3125 10.5 22.4062 10.5469 22.4531C11.0156 22.5 11.4844 22.5469 12 22.5469C12.4688 22.5469 12.9375 22.5 13.4062 22.4531C13.4531 22.4062 13.5 22.3125 13.5 22.2656L14.1562 20.0156C14.3438 19.4531 14.7188 19.0312 15.2344 18.7969C15.5625 18.6094 15.8906 18.4219 16.2188 18.1875C16.6875 17.9062 17.25 17.7656 17.8125 17.9062L20.0625 18.4688C20.1562 18.4688 20.2031 18.4688 20.2969 18.4688C20.5312 18.1406 20.7656 17.8125 21 17.4375L21.1875 17.1094C21.375 16.7344 21.5625 16.3594 21.7031 15.9844C21.7031 15.9375 21.6562 15.8438 21.6094 15.7969L19.9688 14.1094C19.5938 13.6875 19.4062 13.125 19.4531 12.6094C19.4531 12.4219 19.5 12.2344 19.5 12C19.5 11.8125 19.4531 11.625 19.4531 11.4375C19.4062 10.9219 19.5938 10.3125 19.9688 9.89062L21.6094 8.25C21.6562 8.20312 21.7031 8.10938 21.7031 8.0625C21.5625 7.6875 21.375 7.3125 21.1875 6.9375L20.9531 6.60938C20.7656 6.23438 20.5312 5.90625 20.2969 5.57812C20.2031 5.57812 20.1562 5.57812 20.0625 5.57812L17.8125 6.14062C17.25 6.28125 16.6875 6.14062 16.2188 5.85938C15.8906 5.625 15.5625 5.4375 15.1875 5.25C14.7188 5.01562 14.2969 4.59375 14.1562 4.03125L13.5 1.78125C13.5 1.73438 13.4531 1.64062 13.4062 1.59375C12.9375 1.54688 12.4688 1.5 12 1.5C11.4844 1.5 11.0156 1.54688 10.5469 1.59375ZM10.1719 0.140625C10.7812 0.046875 11.3906 0 12 0C12.6094 0 13.1719 0.046875 13.7812 0.140625C13.875 0.1875 13.9219 0.1875 14.0156 0.234375C14.4375 0.46875 14.8125 0.890625 14.9531 1.35938L15.6094 3.60938C15.6094 3.70312 15.7031 3.84375 15.8438 3.89062C16.2656 4.07812 16.6875 4.35938 17.0625 4.59375C17.2031 4.6875 17.3438 4.73438 17.4375 4.6875L19.6875 4.125C20.2031 3.98438 20.7656 4.07812 21.1875 4.35938C21.2344 4.40625 21.2812 4.45312 21.3281 4.54688C21.7031 4.92188 21.9844 5.39062 22.2656 5.85938L22.5 6.1875V6.23438C22.7344 6.65625 22.9688 7.17188 23.1562 7.64062C23.2031 7.73438 23.2031 7.78125 23.2031 7.875C23.25 8.39062 23.0625 8.90625 22.6875 9.28125L21.0469 10.9688C21 11.0156 20.9531 11.1562 20.9531 11.2969C20.9531 11.5312 21 11.7656 21 12C21 12.2344 20.9531 12.5156 20.9531 12.7031C20.9531 12.8906 21 13.0312 21.0469 13.0781L22.6875 14.7656C23.0625 15.1406 23.25 15.6562 23.2031 16.1719C23.2031 16.2188 23.2031 16.3125 23.1562 16.4062C22.9688 16.875 22.7344 17.3438 22.5 17.8125L22.2656 18.1875C21.9844 18.6562 21.7031 19.125 21.375 19.5C21.2812 19.5938 21.2344 19.6406 21.1875 19.6875C20.7656 19.9688 20.2031 20.0625 19.7344 19.9219L17.4375 19.3594C17.3438 19.3125 17.2031 19.3594 17.0625 19.4531C16.6875 19.6875 16.2656 19.9219 15.8438 20.1562C15.7031 20.2031 15.6094 20.3438 15.6094 20.4375L14.9531 22.6406C14.8125 23.1562 14.4375 23.5781 14.0156 23.8125C13.9219 23.8594 13.875 23.8594 13.7812 23.9062C13.1719 23.9531 12.6094 24 12 24C11.3906 24 10.7812 23.9531 10.1719 23.9062C10.0781 23.8594 10.0312 23.8594 9.9375 23.8125C9.51562 23.5781 9.14062 23.1562 9 22.6406L8.34375 20.4375C8.34375 20.3438 8.25 20.2031 8.10938 20.1562C7.6875 19.9219 7.26562 19.6875 6.89062 19.4531C6.75 19.3594 6.60938 19.3125 6.51562 19.3594L4.26562 19.9219C3.75 20.0625 3.23438 19.9688 2.8125 19.6875C2.71875 19.6406 2.67188 19.5938 2.625 19.5C2.29688 19.0781 1.96875 18.6562 1.6875 18.1875L1.5 17.8125H1.45312C1.21875 17.3438 0.984375 16.875 0.796875 16.4062C0.796875 16.3125 0.75 16.2188 0.75 16.1719C0.75 15.6562 0.890625 15.1406 1.26562 14.7656L2.90625 13.0781C2.95312 13.0312 3 12.8906 3 12.7031C3 12.4688 3 12.2344 3 12C3 11.7656 3 11.5312 3 11.2969C3 11.1562 2.95312 11.0156 2.90625 10.9688L1.26562 9.28125C0.890625 8.90625 0.75 8.39062 0.75 7.875C0.75 7.78125 0.796875 7.73438 0.796875 7.64062C0.984375 7.17188 1.21875 6.65625 1.45312 6.23438L1.5 6.1875L1.6875 5.85938V5.8125C1.96875 5.39062 2.29688 4.92188 2.625 4.54688C2.67188 4.45312 2.71875 4.40625 2.8125 4.35938C3.23438 4.07812 3.75 3.98438 4.26562 4.125L6.51562 4.6875C6.60938 4.73438 6.75 4.6875 6.89062 4.59375C7.26562 4.3125 7.6875 4.07812 8.10938 3.89062C8.25 3.84375 8.34375 3.70312 8.34375 3.60938L9 1.35938C9.14062 0.890625 9.51562 0.46875 9.9375 0.234375C10.0312 0.1875 10.0781 0.1875 10.1719 0.140625ZM13.4531 7.64062L11.9531 16.6406C11.9062 17.0625 11.5312 17.3438 11.1094 17.25C10.6875 17.2031 10.4062 16.8281 10.5 16.4062L12 7.40625C12.0469 6.98438 12.4219 6.70312 12.8438 6.79688C13.2656 6.84375 13.5469 7.21875 13.4531 7.64062ZM8.76562 10.6875L7.40625 12L8.76562 13.3594C9.04688 13.6406 9.04688 14.1562 8.76562 14.4375C8.48438 14.7188 7.96875 14.7188 7.6875 14.4375L5.8125 12.5625C5.53125 12.2812 5.53125 11.7656 5.8125 11.4844L7.6875 9.60938C7.96875 9.32812 8.48438 9.32812 8.76562 9.60938C9.04688 9.89062 9.04688 10.4062 8.76562 10.6875ZM16.2656 9.60938L18.1406 11.4844C18.4219 11.7656 18.4219 12.2812 18.1406 12.5625L16.2656 14.4375C15.9844 14.7188 15.4688 14.7188 15.1875 14.4375C14.9062 14.1562 14.9062 13.6406 15.1875 13.3594L16.5469 12L15.1875 10.6875C14.9062 10.4062 14.9062 9.89062 15.1875 9.60938C15.4688 9.32812 15.9844 9.32812 16.2656 9.60938Z" fill="#314081"/></svg>