<svg width="30" height="24" fill="none" xmlns="http://www.w3.org/2000/svg"><path d="M21.75 1.5H18.75V6.75C18.75 7.03125 18.5625 7.3125 18.3281 7.45312C18.0469 7.54688 17.7656 7.54688 17.5312 7.35938L15 5.4375L12.4219 7.35938C12.1875 7.54688 11.9062 7.54688 11.625 7.45312C11.3906 7.3125 11.25 7.07812 11.25 6.75V1.5H8.25C7.82812 1.5 7.5 1.875 7.5 2.25V11.25C7.5 11.6719 7.82812 12 8.25 12H21.75C22.125 12 22.5 11.6719 22.5 11.25V2.25C22.5 1.875 22.125 1.5 21.75 1.5ZM12.75 1.5V5.25L14.5312 3.9375C14.8125 3.70312 15.1406 3.70312 15.4219 3.9375L17.25 5.25V1.5H12.75ZM8.25 0H21.75C22.9688 0 24 1.03125 24 2.25V11.25C24 12.5156 22.9688 13.5 21.75 13.5H8.25C6.98438 13.5 6 12.5156 6 11.25V2.25C6 1.03125 6.98438 0 8.25 0ZM28.5 19.5C28.5 17.8594 27.1406 16.5 25.5 16.5H4.5C2.8125 16.5 1.5 17.8594 1.5 19.5C1.5 21.1875 2.8125 22.5 4.5 22.5H25.5C27.1406 22.5 28.5 21.1875 28.5 19.5ZM4.5 15H25.5C27.9844 15 30 17.0156 30 19.5C30 21.9844 27.9844 24 25.5 24H4.5C2.01562 24 0 21.9844 0 19.5C0 17.0156 2.01562 15 4.5 15ZM7.125 19.5C7.125 20.1562 6.60938 20.625 6 20.625C5.34375 20.625 4.875 20.1562 4.875 19.5C4.875 18.8906 5.34375 18.375 6 18.375C6.60938 18.375 7.125 18.8906 7.125 19.5ZM15 20.625C14.3438 20.625 13.875 20.1562 13.875 19.5C13.875 18.8906 14.3438 18.375 15 18.375C15.6094 18.375 16.125 18.8906 16.125 19.5C16.125 20.1562 15.6094 20.625 15 20.625ZM25.125 19.5C25.125 20.1562 24.6094 20.625 24 20.625C23.3438 20.625 22.875 20.1562 22.875 19.5C22.875 18.8906 23.3438 18.375 24 18.375C24.6094 18.375 25.125 18.8906 25.125 19.5Z" fill="#314081"/></svg>