<svg width="48" height="48" fill="none" xmlns="http://www.w3.org/2000/svg"><path d="M14.0625 0.75C14.7812 0.75 15.5 1.46875 15.5 2.1875V6.5H32.75V2.1875C32.75 1.46875 33.3789 0.75 34.1875 0.75C34.9062 0.75 35.625 1.46875 35.625 2.1875V6.5H38.5C41.6445 6.5 44.25 9.10547 44.25 12.25V15.125V18V41C44.25 44.2344 41.6445 46.75 38.5 46.75H9.75C6.51562 46.75 4 44.2344 4 41V18V15.125V12.25C4 9.10547 6.51562 6.5 9.75 6.5H12.625V2.1875C12.625 1.46875 13.2539 0.75 14.0625 0.75ZM41.375 18H6.875V41C6.875 42.6172 8.13281 43.875 9.75 43.875H38.5C40.0273 43.875 41.375 42.6172 41.375 41V18ZM38.5 9.375H9.75C8.13281 9.375 6.875 10.7227 6.875 12.25V15.125H41.375V12.25C41.375 10.7227 40.0273 9.375 38.5 9.375Z" fill="#314081"/></svg>