<svg width="134" height="48" fill="none" xmlns="http://www.w3.org/2000/svg"><path fill-rule="evenodd" clip-rule="evenodd" d="M43.612 7.99793H37.3236V33.8437H32.3312V7.99793H26.0723V3.25586H43.612V7.99793Z" fill="#314081"/><path fill-rule="evenodd" clip-rule="evenodd" d="M67.4836 33.8438H62.7858V17.0256C62.7858 15.0964 62.8299 13.447 62.933 12.0774H62.8447C62.6238 12.6664 62.2556 13.5059 61.7401 14.6104L52.6389 33.829H47.6465V3.25594H52.3444V20.1772C52.3444 22.2684 52.3002 23.6675 52.2266 24.3743H52.2855C52.3296 24.1976 52.7125 23.3729 53.4194 21.8708L62.1672 3.24121H67.4836V33.8438Z" fill="#314081"/><path fill-rule="evenodd" clip-rule="evenodd" d="M89.1032 7.99793H82.8148V33.8437H77.8371V7.99793H71.5781V3.25586H89.1032V7.99793Z" fill="#314081"/><path fill-rule="evenodd" clip-rule="evenodd" d="M102.563 21.753L100.192 11.4736C100.015 10.7078 99.8975 9.79469 99.8239 8.71963H99.706C99.6619 9.61797 99.5293 10.5016 99.3231 11.3852L96.9227 21.753H102.563ZM110.678 33.8438H105.258L103.682 27.0399H95.8329L94.2865 33.8438H88.8965L96.9227 3.24121H102.813L110.663 33.8438H110.678Z" fill="#314081"/><path fill-rule="evenodd" clip-rule="evenodd" d="M133.594 33.8437H128.601V21.3847H119.471V33.8437H114.508V3.25586H119.471V15.4645H128.601V3.25586H133.594V33.8437Z" fill="#314081"/><path fill-rule="evenodd" clip-rule="evenodd" d="M34.3341 46.8328H32.6994L28.8262 42.7387C28.6789 42.5914 28.5906 42.4736 28.5611 42.4294H28.5317V46.8475H27.3535V37.8936H28.5317V42.1055H28.5611C28.62 42.0171 28.7084 41.914 28.8262 41.7962L32.5816 37.8936H34.0395L29.7393 42.1938L34.3488 46.8623L34.3341 46.8328Z" fill="#314081"/><path fill-rule="evenodd" clip-rule="evenodd" d="M43.8624 38.674C42.8021 38.674 41.9479 39.0127 41.2999 39.6901C40.6372 40.3676 40.3132 41.2659 40.3132 42.3704C40.3132 43.4749 40.6372 44.3586 41.2705 45.036C41.9185 45.7134 42.7432 46.0522 43.7741 46.0522C44.8786 46.0522 45.7475 45.7282 46.3807 45.0949C47.014 44.4469 47.338 43.5486 47.338 42.3999C47.338 41.2512 47.0287 40.3087 46.4102 39.6607C45.7916 39.0127 44.9522 38.6887 43.8624 38.6887V38.674ZM43.7741 46.98C42.3455 46.98 41.2116 46.5676 40.3574 45.7282C39.5033 44.8887 39.0762 43.7989 39.0762 42.4588C39.0762 41.0156 39.518 39.8669 40.3869 39.0127C41.2558 38.1585 42.4486 37.7314 43.9508 37.7314C45.3351 37.7314 46.4544 38.1438 47.2938 38.9832C48.1332 39.8227 48.5603 40.9125 48.5603 42.2526C48.5603 43.7106 48.1332 44.874 47.2643 45.7134C46.3955 46.5676 45.232 46.9947 43.7741 46.9947V46.98Z" fill="#314081"/><path fill-rule="evenodd" clip-rule="evenodd" d="M60.8566 46.833H59.6784V42.7389H54.4946V46.833H53.3164V37.8643H54.4946V41.7963H59.6784V37.8643H60.8566V46.833Z" fill="#314081"/><path fill-rule="evenodd" clip-rule="evenodd" d="M72.5654 38.8215H69.6642V46.833H68.4861V38.8215H65.5996V37.8643H72.5654V38.8215Z" fill="#314081"/><path fill-rule="evenodd" clip-rule="evenodd" d="M78.4848 38.8214V42.4884H79.7219C80.5318 42.4884 81.1504 42.3264 81.5774 41.9877C82.0045 41.649 82.2107 41.1925 82.2107 40.5887C82.2107 39.4105 81.4302 38.8214 79.8544 38.8214H78.4701H78.4848ZM78.4848 43.4457V46.8329H77.3066V37.8789H80.0606C81.1356 37.8789 81.9603 38.1145 82.5494 38.5858C83.1385 39.0571 83.433 39.705 83.433 40.5592C83.433 41.4134 83.109 42.1055 82.4463 42.6504C81.7983 43.1953 80.9 43.4604 79.7955 43.4604H78.4701L78.4848 43.4457Z" fill="#314081"/><path fill-rule="evenodd" clip-rule="evenodd" d="M92.9766 38.674C91.9163 38.674 91.0621 39.0127 90.4141 39.6901C89.7514 40.3676 89.4274 41.2659 89.4274 42.3704C89.4274 43.4749 89.7514 44.3586 90.3847 45.036C91.0326 45.7134 91.8574 46.0522 92.8882 46.0522C93.9928 46.0522 94.8616 45.7282 95.4949 45.0949C96.1282 44.4469 96.4522 43.5486 96.4522 42.3999C96.4522 41.2512 96.1429 40.3087 95.5244 39.6607C94.9058 39.0127 94.0664 38.6887 92.9766 38.6887V38.674ZM92.903 46.98C91.4745 46.98 90.3405 46.5676 89.4863 45.7282C88.6322 44.8887 88.2051 43.7989 88.2051 42.4588C88.2051 41.0156 88.6469 39.8669 89.5158 39.0127C90.3847 38.1585 91.5775 37.7314 93.0797 37.7314C94.464 37.7314 95.5833 38.1438 96.4227 38.9832C97.2621 39.8227 97.6892 40.9125 97.6892 42.2526C97.6892 43.7106 97.2621 44.874 96.3932 45.7134C95.5244 46.5676 94.3609 46.9947 92.903 46.9947V46.98Z" fill="#314081"/><path fill-rule="evenodd" clip-rule="evenodd" d="M110.635 46.8329H109.456V38.8214H106.673C106.349 41.0746 106.099 42.6799 105.907 43.6077C105.716 44.5355 105.539 45.2276 105.348 45.6694C105.156 46.1113 104.891 46.4352 104.567 46.6562C104.243 46.8771 103.845 46.9801 103.389 46.9801C103.021 46.9801 102.697 46.936 102.432 46.8476V45.8609C102.667 45.9787 102.932 46.0376 103.227 46.0376C103.521 46.0376 103.787 45.8904 104.037 45.5811C104.287 45.2718 104.552 44.4766 104.817 43.1806C105.082 41.8846 105.377 40.1174 105.701 37.8789H110.635V46.8329Z" fill="#314081"/><path fill-rule="evenodd" clip-rule="evenodd" d="M114.949 39.2045H121.237L123.697 42.8273H131.031C131.252 43.1513 131.62 43.3575 132.047 43.3575C132.724 43.3575 133.269 42.8126 133.269 42.1351C133.269 41.4577 132.724 40.9128 132.047 40.9128C131.62 40.9128 131.237 41.1337 131.016 41.4724H124.404L121.944 37.8496H114.949C114.581 37.8496 114.271 38.1441 114.271 38.527C114.271 38.9099 114.566 39.2045 114.949 39.2045Z" fill="#314081"/><path fill-rule="evenodd" clip-rule="evenodd" d="M132.047 44.9766C131.649 44.9766 131.296 45.168 131.075 45.4626H114.949C114.581 45.4626 114.271 45.7571 114.271 46.14C114.271 46.5229 114.566 46.8174 114.949 46.8174H130.987C131.193 47.1856 131.59 47.4212 132.047 47.4212C132.724 47.4212 133.269 46.8763 133.269 46.1989C133.269 45.5215 132.724 44.9766 132.047 44.9766Z" fill="#314081"/><path fill-rule="evenodd" clip-rule="evenodd" d="M114.949 42.8708H118.955C119.176 43.1653 119.529 43.3568 119.927 43.3568C120.604 43.3568 121.149 42.8119 121.149 42.1344C121.149 41.457 120.604 40.9121 119.927 40.9121C119.47 40.9121 119.087 41.1625 118.866 41.5159H114.949C114.581 41.5159 114.271 41.8105 114.271 42.1934C114.271 42.5763 114.566 42.8708 114.949 42.8708Z" fill="#314081"/><path fill-rule="evenodd" clip-rule="evenodd" d="M125.891 39.2331H131.031C131.252 39.5276 131.605 39.7191 132.003 39.7191C132.68 39.7191 133.225 39.1742 133.225 38.4967C133.225 37.8193 132.68 37.2744 132.003 37.2744C131.547 37.2744 131.164 37.5248 130.943 37.8782H125.877C125.508 37.8782 125.199 38.1728 125.199 38.5557C125.199 38.9386 125.494 39.2331 125.877 39.2331H125.891Z" fill="#314081"/><path fill-rule="evenodd" clip-rule="evenodd" d="M6.82421 22.2832C6.36768 26.5246 7.42802 30.4272 9.87268 33.9175C12.3468 37.4372 15.7045 39.7199 19.887 40.7508C21.2419 41.0895 22.5967 41.2515 23.9222 41.2662V39.8819C22.6851 39.8819 21.448 39.7052 20.2257 39.4106C18.3112 38.9246 16.5587 38.1588 15.0271 37.1132C13.4955 36.0676 12.1406 34.7274 11.0067 33.1075C8.72398 29.8676 7.78146 26.2595 8.19382 22.401C8.47363 19.8533 9.20997 17.5559 10.4029 15.5972C11.6105 13.6238 13.3041 11.9154 15.4395 10.5458C17.2951 9.35296 19.2537 8.55771 21.286 8.16008C22.1697 7.99808 23.0533 7.90972 23.9074 7.90972V6.52539C20.9621 6.52539 17.7221 7.43846 14.6884 9.38241C10.02 12.3867 7.39856 16.7311 6.80948 22.2537L6.82421 22.2832Z" fill="#314081"/><path fill-rule="evenodd" clip-rule="evenodd" d="M23.9069 42.9741C22.8318 42.9741 21.7715 42.871 20.6964 42.6943C20.019 42.5765 19.695 42.7532 19.4299 43.3864C19.047 44.3142 18.6494 45.2273 18.2812 46.1551C18.1781 46.4202 18.0603 46.4791 17.8099 46.3613C16.6465 45.8753 15.4831 45.404 14.3196 44.9328C13.7895 44.7119 13.2593 44.4762 12.7144 44.2848C12.4199 44.167 12.2873 44.0197 12.4199 43.7988C12.8322 42.8268 13.2004 41.9432 13.5686 41.0743C13.8778 40.3527 13.7895 40.014 13.1415 39.5574C11.3006 38.2615 9.72484 36.7004 8.4436 34.8596C8.04597 34.2852 7.70726 34.1821 7.05927 34.4619C6.11675 34.8448 5.18895 35.2277 4.26116 35.6254C4.0108 35.7284 3.90771 35.699 3.80462 35.4486C3.09773 33.7109 2.37611 31.9878 1.63976 30.25C1.53668 29.9997 1.59558 29.8966 1.83121 29.8082C2.77374 29.4253 3.70153 29.0277 4.62933 28.6448C5.26259 28.3797 5.43931 28.0557 5.32149 27.3636C4.92387 25.1103 4.90914 22.8571 5.32149 20.6039C5.42458 20.0295 5.21841 19.6466 4.65878 19.411C3.71626 19.0134 2.75901 18.6158 1.81649 18.2476C1.5514 18.1445 1.52195 18.012 1.62504 17.7616C2.33193 16.068 3.02409 14.3744 3.71626 12.6661C3.8488 12.3421 4.0108 12.3274 4.29061 12.4452C5.1595 12.8134 6.02839 13.1668 6.89727 13.5497C7.60417 13.8442 7.98707 13.7559 8.42887 13.1226C9.68066 11.3112 11.2123 9.79433 12.9942 8.51309C13.7453 7.98292 13.8189 7.70311 13.4508 6.83422C13.0826 5.96533 12.7291 5.08172 12.361 4.21283C12.2579 3.96247 12.3021 3.85938 12.5377 3.7563C14.2755 3.0494 16.0132 2.32779 17.7363 1.59144C18.0161 1.47362 18.0897 1.59144 18.1781 1.79762C18.561 2.72541 18.9439 3.63848 19.3268 4.56628C19.6066 5.22899 19.9011 5.40571 20.6228 5.2879C21.7126 5.09645 22.8171 4.99336 23.9069 4.99336V3.60903C22.9054 3.60903 21.904 3.69739 20.9026 3.85939C20.608 3.90357 20.4902 3.8152 20.3871 3.56485C20.0042 2.6076 19.6066 1.66507 19.209 0.722551C18.9144 0.0303856 18.4432 -0.161064 17.7363 0.133474C15.6451 1.00236 13.5391 1.87125 11.4479 2.75487C10.7705 3.03468 10.579 3.50594 10.8588 4.18338C11.2564 5.15535 11.6541 6.12733 12.0812 7.09931C12.1695 7.30548 12.1548 7.43803 11.9633 7.57057C10.2697 8.80763 8.81177 10.2656 7.57471 11.9592C7.42744 12.1654 7.28018 12.239 7.04454 12.1212C6.92673 12.0623 6.79419 12.0181 6.67637 11.9592C5.7633 11.5763 4.85023 11.2081 4.0108 10.8547C3.40699 10.6927 2.96519 10.9136 2.74428 11.4585C1.8754 13.5644 1.00651 15.6704 0.137618 17.7911C-0.171647 18.5716 0.03453 19.0134 0.815057 19.3227C1.74285 19.6908 2.65592 20.0885 3.59844 20.4566C3.8488 20.5597 3.93716 20.6923 3.89298 20.9721C3.56899 23.0191 3.56899 25.0662 3.89298 27.0985C3.93716 27.393 3.8488 27.5108 3.59844 27.6139C2.65592 27.9968 1.72813 28.3797 0.785603 28.7773C0.0492568 29.0866 -0.15692 29.5579 0.152345 30.2942C1.00651 32.3707 1.8754 34.4325 2.74428 36.4942C3.05355 37.2306 3.49536 37.422 4.2317 37.1128C5.17422 36.7299 6.10202 36.347 7.02982 35.9346C7.32436 35.8021 7.47162 35.861 7.66307 36.1113C8.85596 37.746 10.2845 39.1598 11.9192 40.3527C12.2431 40.5883 12.2284 40.7798 12.0959 41.089C11.6983 42.0021 11.3154 42.9299 10.9472 43.8577C10.6674 44.5351 10.8735 45.0064 11.551 45.2862C13.598 46.1256 15.6451 46.9651 17.6921 47.8192C18.5904 48.1874 19.0028 48.0107 19.371 47.1271C19.7391 46.2287 20.1073 45.3304 20.4608 44.4173C20.5639 44.167 20.6817 44.0786 20.9762 44.1228C21.9482 44.2701 22.9202 44.3437 23.9069 44.3584V42.9888V42.9741Z" fill="#314081"/><path fill-rule="evenodd" clip-rule="evenodd" d="M20.4305 9.88311C20.5042 9.97147 20.4894 10.0598 20.4894 10.1482C20.4894 11.1791 20.4894 12.2247 20.4894 13.2556C20.4894 13.447 20.4305 13.5354 20.2538 13.6237C19.6647 13.8888 19.3555 14.3895 19.3555 15.0228C19.3555 15.6413 19.65 16.142 20.2391 16.4366C20.8429 16.7459 21.6529 16.5986 22.0947 16.0684C22.3745 15.7297 22.5512 15.3173 22.4923 14.8755C22.4039 14.3159 22.1241 13.8741 21.6087 13.6237C21.4467 13.5501 21.4172 13.4617 21.4172 13.3145C21.4172 12.6812 21.4172 12.048 21.4172 11.4C21.4172 10.9287 21.4172 10.4575 21.4172 9.98619C21.4172 9.89783 21.4172 9.80947 21.4467 9.70638C21.5792 9.60329 21.7265 9.58857 21.8885 9.55911C22.2861 9.48548 22.6838 9.52966 23.0814 9.42657C23.3317 9.36766 23.6263 9.42657 23.8766 9.42657C23.965 9.50021 23.9503 9.58857 23.9503 9.6622C23.9503 12.313 23.9503 14.9492 23.9503 17.6C23.9503 17.6736 23.9503 17.7473 23.9208 17.8062C23.8619 17.8651 23.7883 17.8651 23.7146 17.8651C21.6087 17.8651 19.5027 17.8651 17.3968 17.8651C17.2495 17.8651 17.1612 17.8356 17.1023 17.6884C16.955 17.3791 16.7488 17.1288 16.4395 16.9668C16.3217 16.8931 16.1892 16.8489 16.0566 16.8342C16.0419 16.8342 16.0125 16.8342 15.9977 16.8342C15.7179 16.6575 15.4528 16.79 15.1878 16.8637C14.8049 16.9668 14.5103 17.2171 14.3041 17.5706C14.098 17.9535 14.0538 18.3658 14.1863 18.7782C14.422 19.5587 15.1583 20.0005 15.9536 19.868C16.4985 19.7796 16.8814 19.4556 17.1023 18.9402C17.1759 18.7782 17.279 18.734 17.441 18.734C19.5175 18.734 21.6087 18.734 23.6852 18.734C23.7588 18.734 23.8325 18.734 23.9061 18.7634C23.9061 18.7634 23.9061 18.7634 23.9208 18.7782C23.9208 18.7782 23.9208 18.7782 23.9208 18.8076C23.9208 18.8518 23.9355 18.896 23.9355 18.9402C23.9355 25.4495 23.9355 31.9588 23.9355 38.4533C23.9355 38.4828 23.9355 38.5122 23.9061 38.5417C23.6999 38.6153 23.479 38.5711 23.2728 38.5711C23.1697 38.4681 23.1992 38.3502 23.1992 38.2472C23.1992 37.2899 23.2287 36.3179 23.1992 35.3607C23.1256 33.6376 23.1992 31.9293 23.155 30.2063C23.155 29.4552 22.7279 28.9692 22.1094 28.6157C21.8443 28.4685 21.5498 28.4243 21.2405 28.4243C21.0638 28.4243 20.9018 28.4243 20.7251 28.4243C20.298 28.4243 19.9298 28.0856 19.8709 27.6732C19.8415 27.467 19.8267 27.2609 19.8267 27.0547C19.8267 25.906 19.8267 24.7426 19.8267 23.5939C19.8267 23.5055 19.8267 23.4319 19.8267 23.3435C19.8267 23.2257 19.8856 23.1226 20.0182 23.0784C20.1949 23.0195 20.3275 22.887 20.46 22.7692C20.9902 22.2832 21.0343 21.3701 20.6662 20.8105C20.4453 20.4865 20.1507 20.2803 19.812 20.1772C19.488 20.0741 19.1493 20.0889 18.8106 20.2214C18.4277 20.3687 18.1479 20.6338 17.9711 20.9725C17.8239 21.2523 17.7355 21.5616 17.8091 21.9003C17.9417 22.5188 18.2951 22.9312 18.8695 23.1521C18.9284 23.2699 18.9137 23.373 18.9137 23.4908C18.9137 24.8015 18.9137 26.1122 18.9137 27.4229C18.9137 27.8499 19.0462 28.2476 19.3113 28.601C19.6942 29.1165 20.2096 29.3226 20.8282 29.3374C20.9902 29.3374 21.1522 29.3521 21.3142 29.3374C21.8001 29.2785 22.2861 29.8234 22.2861 30.2946C22.2861 32.916 22.2861 35.5521 22.2861 38.1735C22.2861 38.2472 22.3009 38.3355 22.2567 38.4092C21.9621 38.4975 21.1669 38.3355 19.8267 37.9379C19.7531 37.8495 19.7826 37.7317 19.7826 37.6286C19.7826 36.3916 19.7826 35.1545 19.7826 33.9174C19.7826 33.2105 19.4733 32.6657 18.8842 32.2828C18.5897 32.0913 18.2362 32.0177 17.8681 32.0177C15.983 32.0177 14.1127 32.0177 12.2276 32.0177C11.9626 32.0177 11.8006 31.9588 11.6533 31.7084C11.3882 31.2224 11.0937 30.7659 10.858 30.2652C10.6666 29.8528 10.4751 29.4257 10.3131 28.9986C10.2542 28.8072 10.1511 28.6305 10.1659 28.4096C10.1659 28.3948 10.1659 28.3654 10.1659 28.3654C10.0186 28.277 10.0628 28.1298 10.0333 27.9972C10.0333 27.9383 9.9597 27.9089 9.98915 27.8352C10.1659 27.7469 10.3573 27.8499 10.534 27.8058C10.7255 27.7616 10.9169 27.8499 11.0937 27.8058C11.2851 27.7616 11.4618 27.8647 11.668 27.8352C11.8153 28.0709 11.9331 28.3359 12.154 28.5421C12.5516 28.8956 13.0376 29.0576 13.5383 28.9397C14.1274 28.7925 14.5692 28.439 14.7018 27.791C14.7312 27.629 14.8343 27.467 14.7901 27.2903C14.7018 26.9958 14.6429 26.7012 14.4367 26.4509C14.0096 25.906 13.45 25.7882 12.8167 25.8913C12.5075 25.9354 12.2424 26.1269 12.0509 26.3773C11.9478 26.5098 11.7564 26.5834 11.7711 26.8191C11.7711 26.8927 11.668 26.9663 11.5649 26.9663H9.76825C9.62098 26.5982 9.5768 26.23 9.56207 25.8618C9.56207 25.7145 9.56207 25.5673 9.48844 25.4347C9.45898 25.3906 9.45898 25.3316 9.45898 25.2727C9.45898 24.5953 9.45898 23.9326 9.45898 23.2551C9.45898 23.2257 9.45898 23.1815 9.47371 23.1521C9.56207 23.0637 9.67989 23.0932 9.78298 23.0932C11.4618 23.0932 13.1407 23.0932 14.8196 23.0932H15.2025C15.5854 23.0932 15.8652 23.2846 16.0566 23.5939C16.145 23.7411 16.2186 23.9326 16.2186 24.1388C16.2186 25.3611 16.2186 26.5687 16.2186 27.791C16.2186 27.9825 16.1597 28.1003 15.983 28.1739C15.6148 28.3359 15.3939 28.6157 15.2319 28.9839C15.0994 29.2785 15.0847 29.573 15.1436 29.8675C15.2614 30.3977 15.5559 30.8101 16.1008 31.0162C16.3806 31.1193 16.6457 31.1488 16.9255 31.1046C17.2937 31.0457 17.6324 30.8837 17.8681 30.5744C18.1626 30.1915 18.3099 29.7497 18.2068 29.2785C18.089 28.7777 17.8386 28.3507 17.3232 28.1592C17.117 28.0709 17.0728 28.0856 17.0728 27.791C17.0728 26.5393 17.0875 25.3022 17.0728 24.0504C17.0728 23.2993 16.6899 22.7397 16.0125 22.3863C15.7768 22.2684 15.5412 22.2243 15.2761 22.2243C13.4942 22.2243 11.7122 22.2243 9.93025 22.2243C9.82716 22.2243 9.70934 22.2243 9.62098 22.2095C9.56207 22.1654 9.54735 22.1064 9.56207 22.0475C9.62098 21.8119 9.59153 21.5616 9.69461 21.3259C9.7388 21.2228 9.70934 21.0903 9.7388 20.9725C9.85661 20.5159 9.9597 20.0594 10.0922 19.6176C10.2984 18.9843 10.5488 18.3658 10.8286 17.762C11.0053 17.3644 11.2262 16.9962 11.4324 16.6133C11.6091 16.2746 11.83 15.9653 12.0509 15.6561C12.5516 14.9197 13.126 14.257 13.7592 13.6237C14.525 12.8727 15.3498 12.21 16.2628 11.6356C16.7635 11.3116 17.3084 11.0613 17.8239 10.7814C18.2657 10.5458 18.7369 10.3838 19.1935 10.2071C19.4438 10.104 19.6942 10.0156 19.974 9.97147C20.1213 9.94201 20.2538 9.8242 20.4305 9.86838V9.88311Z" fill="#314081"/><path fill-rule="evenodd" clip-rule="evenodd" d="M18.8557 37.5541C18.7673 37.613 18.6937 37.5836 18.6201 37.5541C18.1046 37.3332 17.5892 37.1271 17.1032 36.8472C16.5878 36.5527 16.0723 36.2582 15.6011 35.9047C15.2771 35.6691 14.9531 35.4482 14.6585 35.1831C14.2167 34.8149 13.7749 34.432 13.392 34.0049C13.1122 33.681 12.7882 33.3864 12.582 33.0182C12.6115 32.9299 12.6704 32.9446 12.7293 32.9446C13.0975 32.9446 13.4509 32.9741 13.8191 32.9152C13.9958 32.8857 14.1725 32.9593 14.364 32.9593C15.5274 32.9593 16.7056 32.9593 17.869 32.9593C18.517 32.9593 18.8999 33.4453 18.8999 33.9755C18.8999 35.1095 18.8999 36.2434 18.8999 37.3774C18.8999 37.4363 18.8999 37.51 18.8704 37.5836L18.8557 37.5541Z" fill="#314081"/><path fill-rule="evenodd" clip-rule="evenodd" d="M19.5914 19.4112C19.4147 19.4112 19.2381 19.3671 19.0762 19.4112H19.5914Z" fill="#314081"/><path fill-rule="evenodd" clip-rule="evenodd" d="M19.0769 19.6166C19.0033 19.6166 18.9297 19.5725 18.9002 19.4842C18.8708 19.3811 18.9297 19.2781 19.018 19.2487C19.1946 19.1898 19.386 19.2045 19.5332 19.2192H19.6068C19.7098 19.2192 19.7834 19.3223 19.7687 19.4253C19.7687 19.5283 19.6804 19.6019 19.5773 19.5872H19.5037C19.3713 19.5725 19.2388 19.5578 19.121 19.5872C19.1063 19.5872 19.0916 19.5872 19.0621 19.5872L19.0769 19.6166Z" fill="#314081"/></svg>