<svg width="56" height="56" fill="none" xmlns="http://www.w3.org/2000/svg"><path d="M20.7077 6.12496V10.5H26.541V6.12496C26.541 5.39579 27.179 4.66663 27.9993 4.66663C28.7285 4.66663 29.4577 5.39579 29.4577 6.12496V10.5H35.291V6.12496C35.291 5.39579 35.929 4.66663 36.7493 4.66663C37.4785 4.66663 38.2077 5.39579 38.2077 6.12496V10.5H39.666C42.8561 10.5 45.4993 13.1432 45.4993 16.3333V17.7916H49.8743C50.6035 17.7916 51.3327 18.5208 51.3327 19.25C51.3327 20.0703 50.6035 20.7083 49.8743 20.7083H45.4993V26.5416H49.8743C50.6035 26.5416 51.3327 27.2708 51.3327 28C51.3327 28.8203 50.6035 29.4583 49.8743 29.4583H45.4993V35.2916H49.8743C50.6035 35.2916 51.3327 36.0208 51.3327 36.75C51.3327 37.5703 50.6035 38.2083 49.8743 38.2083H45.4993V39.6666C45.4993 42.9479 42.8561 45.5 39.666 45.5H38.2077V49.875C38.2077 50.6953 37.4785 51.3333 36.7493 51.3333C35.929 51.3333 35.291 50.6953 35.291 49.875V45.5H29.4577V49.875C29.4577 50.6953 28.7285 51.3333 27.9993 51.3333C27.179 51.3333 26.541 50.6953 26.541 49.875V45.5H20.7077V49.875C20.7077 50.6953 19.9785 51.3333 19.2493 51.3333C18.429 51.3333 17.791 50.6953 17.791 49.875V45.5H16.3327C13.0514 45.5 10.4993 42.9479 10.4993 39.6666V38.2083H6.12435C5.30404 38.2083 4.66602 37.5703 4.66602 36.75C4.66602 36.0208 5.30404 35.2916 6.12435 35.2916H10.4993V29.4583H6.12435C5.30404 29.4583 4.66602 28.8203 4.66602 28C4.66602 27.2708 5.30404 26.5416 6.12435 26.5416H10.4993V20.7083H6.12435C5.30404 20.7083 4.66602 20.0703 4.66602 19.25C4.66602 18.5208 5.30404 17.7916 6.12435 17.7916H10.4993V16.3333C10.4993 13.1432 13.0514 10.5 16.3327 10.5H17.791V6.12496C17.791 5.39579 18.429 4.66663 19.2493 4.66663C19.9785 4.66663 20.7077 5.39579 20.7077 6.12496ZM42.5827 16.3333C42.5827 14.7838 41.2155 13.4166 39.666 13.4166H16.3327C14.6921 13.4166 13.416 14.7838 13.416 16.3333V39.6666C13.416 41.3073 14.6921 42.5833 16.3327 42.5833H39.666C41.2155 42.5833 42.5827 41.3073 42.5827 39.6666V16.3333ZM19.2493 16.3333H36.7493C38.2988 16.3333 39.666 17.7005 39.666 19.25V36.75C39.666 38.3906 38.2988 39.6666 36.7493 39.6666H19.2493C17.6087 39.6666 16.3327 38.3906 16.3327 36.75V19.25C16.3327 17.7005 17.6087 16.3333 19.2493 16.3333ZM36.7493 19.25H19.2493V36.75H36.7493V19.25Z" fill="#314081"/></svg>