<svg width="22" height="22" fill="none" xmlns="http://www.w3.org/2000/svg"><path d="M8.75 0.496094C9.125 0.496094 9.5 0.871094 9.5 1.24609V5.74609C9.5 7.57422 10.0625 9.30859 11.1406 10.7148L12.0312 11.9336C13.2969 13.6211 14 15.6367 14 17.7461V20.7461C14 21.168 13.625 21.4961 13.25 21.4961C12.8281 21.4961 12.5 21.168 12.5 20.7461V17.7461C12.5 15.9648 11.8906 14.2305 10.8125 12.8242L9.92188 11.6055C8.65625 9.91797 8 7.85547 8 5.74609V1.24609C8 0.871094 8.32812 0.496094 8.75 0.496094ZM1.25 3.49609C1.625 3.49609 2 3.87109 2 4.24609V6.40234C2 8.04297 2.46875 9.63672 3.35938 10.9961L4.85938 13.1992C5.89062 14.793 6.5 16.7148 6.5 18.6367V20.7461C6.5 21.168 6.125 21.4961 5.75 21.4961C5.32812 21.4961 5 21.168 5 20.7461V18.6367C5 16.9961 4.48438 15.4023 3.59375 14.043L2.09375 11.8398C1.0625 10.2461 0.5 8.32422 0.5 6.40234V4.24609C0.5 3.87109 0.828125 3.49609 1.25 3.49609ZM17 4.24609V6.40234C17 8.04297 17.4688 9.63672 18.3594 10.9961L19.8594 13.1992C20.8906 14.793 21.5 16.7148 21.5 18.6367V20.7461C21.5 21.168 21.125 21.4961 20.75 21.4961C20.3281 21.4961 20 21.168 20 20.7461V18.6367C20 16.9961 19.4844 15.4023 18.5938 14.043L17.0938 11.8398C16.0625 10.2461 15.5 8.32422 15.5 6.40234V4.24609C15.5 3.87109 15.8281 3.49609 16.25 3.49609C16.625 3.49609 17 3.87109 17 4.24609Z" fill="#314081"/></svg>