<svg width="48" height="48" fill="none" xmlns="http://www.w3.org/2000/svg"><rect x="1.25" y="13.25" width="45.5" height="21.5" rx="4.75" stroke="#314081" stroke-width="2.5"/><path d="M38.9786 28.0893C37.7062 28.0893 36.7745 27.6348 36.002 26.8963L37.0586 25.6352C37.6607 26.1806 38.2515 26.4987 38.9559 26.4987C39.7739 26.4987 40.2852 26.101 40.2852 25.3739C40.2852 24.6922 39.7058 24.2946 38.8764 24.2946C38.3765 24.2946 37.922 24.4309 37.5471 24.59L36.5359 23.9197L36.7632 20H41.6485V21.5338H38.2629L38.172 22.9085C38.4901 22.829 38.7741 22.7722 39.2172 22.7722C40.7624 22.7722 42.0008 23.522 42.0008 25.3398C42.0008 27.0213 40.8078 28.0893 38.9786 28.0893Z" fill="#314081"/><path d="M31.9348 28.1802C30.1737 28.1802 28.8672 27.2713 28.8672 25.8625C28.8672 24.8967 29.3103 24.3287 30.151 23.9424C29.5375 23.5675 29.1399 23.0562 29.1399 22.1814C29.1399 20.9657 30.2533 20 31.9348 20C33.6162 20 34.7296 20.9544 34.7296 22.2041C34.7296 23.0562 34.332 23.5675 33.7185 23.9424C34.5251 24.3628 35.0023 24.874 35.0023 25.8397C35.0023 27.3167 33.6958 28.1802 31.9348 28.1802ZM31.9348 23.363C32.6278 23.363 33.0709 22.954 33.0709 22.3745C33.0709 21.886 32.6505 21.4429 31.9348 21.4429C31.219 21.4429 30.7986 21.8746 30.7986 22.3859C30.7986 22.9426 31.2417 23.363 31.9348 23.363ZM31.9348 26.7373C32.7982 26.7373 33.3095 26.3056 33.3095 25.7261C33.3095 25.1126 32.73 24.749 31.9348 24.749C31.1395 24.749 30.56 25.1126 30.56 25.7488C30.56 26.2942 31.0713 26.7373 31.9348 26.7373Z" fill="#314081"/><path d="M25.0446 28.01V26.2944H21.159L20.875 25.056L25.2378 20.0002H26.7147V24.8743H27.7827V26.2944H26.7147V28.01H25.0446ZM22.9314 24.8743H25.0446V22.3975L22.9314 24.8743Z" fill="#314081"/><path d="M17.0384 28.1802C15.8341 28.1802 14.6184 27.7598 13.6641 26.9077L14.6979 25.6693C15.4137 26.2601 16.1636 26.635 17.0725 26.635C17.7882 26.635 18.22 26.351 18.22 25.8625C18.22 25.4194 17.9473 25.1921 16.618 24.8513C15.0161 24.4423 13.9822 23.9992 13.9822 22.3972C13.9822 20.9544 15.141 20 16.7657 20C17.9246 20 18.913 20.3636 19.7197 21.0112L18.8108 22.3291C18.1064 21.8405 17.4133 21.5451 16.743 21.5451C16.0727 21.5451 15.7205 21.8519 15.7205 22.2609C15.7205 22.7835 16.0613 22.954 17.436 23.3062C19.0493 23.7265 19.9583 24.306 19.9583 25.7148C19.9583 27.294 18.754 28.1802 17.0384 28.1802Z" fill="#314081"/><path d="M6 27.9529V20H9.63563C10.6468 20 11.4307 20.284 11.9534 20.8067C12.3964 21.2497 12.635 21.8746 12.635 22.6472C12.635 23.931 11.942 24.7377 10.9308 25.1126L12.8736 27.9529H10.8286L9.10165 25.408H7.74965V27.9529H6ZM7.74965 23.8629H9.52202C10.3741 23.8629 10.8627 23.4084 10.8627 22.7154C10.8627 21.9655 10.34 21.5792 9.48794 21.5792H7.74965V23.8629Z" fill="#314081"/></svg>