<svg width="48" height="48" fill="none" xmlns="http://www.w3.org/2000/svg"><path d="M11.9758 25.1173C11.717 25.1173 11.4688 25.2201 11.2858 25.4031C11.1028 25.5861 11 25.8343 11 26.0931V42.6088C11 43.7734 11.4626 44.8904 12.2861 45.7139C13.1097 46.5374 14.2266 47 15.3912 47H33.5316C34.6962 47 35.8131 46.5374 36.6366 45.7139C37.4601 44.8904 37.9228 43.7734 37.9228 42.6088V26.0931C37.9228 25.8343 37.82 25.5861 37.637 25.4031C37.454 25.2201 37.2058 25.1173 36.947 25.1173H34.7075V21.5605H36.9372C37.196 21.5605 37.4442 21.4576 37.6272 21.2746C37.8102 21.0916 37.913 20.8434 37.913 20.5846V16.0471C37.913 15.7883 37.8102 15.5401 37.6272 15.3571C37.4442 15.1741 37.196 15.0713 36.9372 15.0713H29.8284V1.97582C29.8284 1.71701 29.7256 1.46881 29.5426 1.28581C29.3596 1.10281 29.1114 1 28.8526 1C28.5938 1 28.3456 1.10281 28.1626 1.28581C27.9796 1.46881 27.8768 1.71701 27.8768 1.97582V15.0615H21.046V1.97582C21.046 1.71701 20.9432 1.46881 20.7602 1.28581C20.5772 1.10281 20.329 1 20.0702 1C19.8114 1 19.5632 1.10281 19.3802 1.28581C19.1972 1.46881 19.0944 1.71701 19.0944 1.97582V15.0615H11.9758C11.717 15.0615 11.4688 15.1643 11.2858 15.3473C11.1028 15.5303 11 15.7785 11 16.0373V20.5846C11 20.8434 11.1028 21.0916 11.2858 21.2746C11.4688 21.4576 11.717 21.5605 11.9758 21.5605H14.2153V25.1222L11.9758 25.1173ZM35.9711 42.6088C35.9711 43.2558 35.7141 43.8763 35.2566 44.3338C34.7991 44.7913 34.1786 45.0484 33.5316 45.0484H15.3912C14.7442 45.0484 14.1237 44.7913 13.6662 44.3338C13.2087 43.8763 12.9516 43.2558 12.9516 42.6088V27.0689H35.9711V42.6088ZM12.9516 17.0132H35.9711V19.6088H12.9516V17.0132ZM16.1669 21.5605H32.7558V25.1222H16.1669V21.5605Z" fill="#314081"/></svg>