<svg width="24" height="24" fill="none" xmlns="http://www.w3.org/2000/svg"><path d="M8.90625 3.37109C8.71875 3.69922 8.39062 3.83984 8.01562 3.74609C6.84375 3.37109 5.48438 3.65234 4.54688 4.58984C3.60938 5.52734 3.32812 6.88672 3.70312 8.05859C3.79688 8.43359 3.65625 8.76172 3.32812 8.94922C2.20312 9.51172 1.5 10.6836 1.5 11.9961C1.5 13.3555 2.20312 14.4805 3.32812 15.0898C3.65625 15.2773 3.79688 15.6055 3.70312 15.9805C3.32812 17.1523 3.60938 18.5117 4.54688 19.4492C5.48438 20.3867 6.84375 20.668 8.01562 20.293C8.39062 20.1992 8.76562 20.3398 8.90625 20.668C9.51562 21.793 10.6406 22.4961 12 22.4961C13.3125 22.4961 14.4844 21.793 15.0469 20.668C15.2344 20.3398 15.6094 20.1992 15.9375 20.293C17.1094 20.668 18.4688 20.3867 19.4062 19.4492C20.3438 18.5117 20.625 17.1523 20.25 15.9805C20.1562 15.6055 20.2969 15.2305 20.625 15.0898C21.75 14.4805 22.5 13.3555 22.5 11.9961C22.5 10.6836 21.75 9.51172 20.625 8.94922C20.2969 8.76172 20.1562 8.38672 20.25 8.05859C20.625 6.88672 20.3438 5.52734 19.4062 4.58984C18.4688 3.65234 17.1094 3.37109 15.9375 3.74609C15.5625 3.83984 15.2344 3.69922 15.0469 3.37109C14.4844 2.24609 13.3125 1.49609 12 1.49609C10.6406 1.49609 9.51562 2.24609 8.90625 3.37109ZM12 -0.00390625C13.6875 -0.00390625 15.1875 0.886719 16.0781 2.15234C17.625 1.87109 19.2656 2.33984 20.4844 3.51172C21.6562 4.73047 22.125 6.37109 21.8438 7.91797C23.1094 8.80859 24 10.3086 24 11.9961C24 13.7305 23.1094 15.1836 21.8438 16.1211C22.125 17.668 21.6562 19.3086 20.4844 20.4805C19.2656 21.6992 17.625 22.168 16.0781 21.8867C15.1875 23.1523 13.6875 23.9961 12 23.9961C10.2656 23.9961 8.8125 23.1523 7.875 21.8867C6.32812 22.168 4.6875 21.6992 3.51562 20.4805C2.29688 19.3086 1.82812 17.668 2.10938 16.1211C0.84375 15.1836 0 13.7305 0 11.9961C0 10.3086 0.84375 8.80859 2.10938 7.91797C1.82812 6.37109 2.29688 4.73047 3.51562 3.51172C4.6875 2.33984 6.32812 1.87109 7.875 2.15234C8.8125 0.886719 10.2656 -0.00390625 12 -0.00390625ZM17.0156 9.55859L11.0156 15.5586C10.7344 15.8398 10.2188 15.8398 9.9375 15.5586L6.9375 12.5586C6.65625 12.2773 6.65625 11.7617 6.9375 11.4805C7.21875 11.1992 7.73438 11.1992 8.01562 11.4805L10.5 13.9648L15.9375 8.48047C16.2188 8.19922 16.7344 8.19922 17.0156 8.48047C17.2969 8.76172 17.2969 9.27734 17.0156 9.55859Z" fill="#314081"/></svg>