<svg width="56" height="56" fill="none" xmlns="http://www.w3.org/2000/svg"><path d="M31.209 12.8335H25.959C25.2207 12.8335 24.6465 13.4897 24.6465 14.146V15.9507V16.771V18.5757V19.396C24.6465 20.1343 25.2207 20.7085 25.959 20.7085H31.209C31.8652 20.7085 32.5215 20.1343 32.5215 19.396V18.5757V16.771V15.9507V14.146C32.5215 13.4897 31.8652 12.8335 31.209 12.8335ZM38.0176 18.0835C43.3496 21.3647 46.959 27.189 46.959 33.8335H48.2715C50.4043 33.8335 52.209 35.6382 52.209 37.771V43.021C52.209 45.2358 50.4043 46.9585 48.2715 46.9585H43.0215C40.8066 46.9585 39.084 45.2358 39.084 43.021V37.771C39.084 35.6382 40.8066 33.8335 43.0215 33.8335H44.334C44.334 27.5171 40.5605 22.021 35.1465 19.5601C35.0645 21.6929 33.3418 23.3335 31.209 23.3335H25.959C23.7441 23.3335 22.0215 21.6929 22.0215 19.5601C16.5254 22.021 12.834 27.5171 12.834 33.8335H14.1465C16.2793 33.8335 18.084 35.6382 18.084 37.771V43.021C18.084 45.2358 16.2793 46.9585 14.1465 46.9585H8.89648C6.68164 46.9585 4.95898 45.2358 4.95898 43.021V37.771C4.95898 35.6382 6.68164 33.8335 8.89648 33.8335H10.209C10.209 27.189 13.7363 21.3647 19.0684 18.0835H12.6699C12.0137 20.3804 9.96289 22.021 7.58398 22.021C4.63086 22.021 2.33398 19.7241 2.33398 16.771C2.33398 13.8999 4.63086 11.521 7.58398 11.521C9.96289 11.521 12.0137 13.2437 12.6699 15.4585H22.0215V14.146C22.0215 12.0132 23.7441 10.2085 25.959 10.2085H31.209C33.3418 10.2085 35.1465 12.0132 35.1465 14.146V15.4585H44.498C45.0723 13.2437 47.123 11.521 49.584 11.521C52.4551 11.521 54.834 13.8999 54.834 16.771C54.834 19.7241 52.4551 22.021 49.584 22.021C47.123 22.021 45.0723 20.3804 44.498 18.0835H38.0176ZM46.959 36.4585H44.334H43.0215C42.2832 36.4585 41.709 37.1147 41.709 37.771V43.021C41.709 43.7593 42.2832 44.3335 43.0215 44.3335H48.2715C48.9277 44.3335 49.584 43.7593 49.584 43.021V37.771C49.584 37.1147 48.9277 36.4585 48.2715 36.4585H46.959ZM12.834 36.4585H10.209H8.89648C8.1582 36.4585 7.58398 37.1147 7.58398 37.771V43.021C7.58398 43.7593 8.1582 44.3335 8.89648 44.3335H14.1465C14.8027 44.3335 15.459 43.7593 15.459 43.021V37.771C15.459 37.1147 14.8027 36.4585 14.1465 36.4585H12.834ZM4.95898 16.771C4.95898 18.2476 6.10742 19.396 7.58398 19.396C8.97852 19.396 10.209 18.2476 10.209 16.771C10.209 15.3765 8.97852 14.146 7.58398 14.146C6.10742 14.146 4.95898 15.3765 4.95898 16.771ZM46.959 16.771C46.959 18.2476 48.1074 19.396 49.584 19.396C50.9785 19.396 52.209 18.2476 52.209 16.771C52.209 15.3765 50.9785 14.146 49.584 14.146C48.1074 14.146 46.959 15.3765 46.959 16.771Z" fill="#314081"/></svg>