<svg width="1606" height="559" fill="none" xmlns="http://www.w3.org/2000/svg"><g clip-path="url(#clip0_3927_34219)"><path d="M196.41 50.7492H4.74414V48.0821H195.309L239.497 3.89062L241.379 5.77476L196.41 50.7492Z" fill="#CDD4E8"/><path d="M246.418 75.7812H169.365V73.1141H245.317L303.663 14.7305H524.502V17.3976H304.764L246.418 75.7812Z" fill="#CDD4E8"/><path d="M884.993 97.6567H617.277L578.715 59.0932H325.646V56.426H579.815L618.378 95.014H884.993V97.6567Z" fill="#CDD4E8"/><path d="M921.551 79.941H650.705V77.2739H920.45L976.718 20.9946H1166.28V23.6373H977.818L921.551 79.941Z" fill="#CDD4E8"/><path d="M961.139 121.637H773.631V118.994H960.039L1023.59 55.3984H1223.67L1263.8 95.528H1348.76V98.1952H1262.7L1222.57 58.0411H1024.69L961.139 121.637Z" fill="#CDD4E8"/><path d="M242.627 519.262L184.893 461.515H21.4219V458.847H185.993L244.51 517.378L242.627 519.262Z" fill="#CDD4E8"/><path d="M520.343 499.026H257.836L223.283 464.475L225.166 462.591L258.936 496.383H520.343V499.026Z" fill="#CDD4E8"/><path d="M1064.19 536.048H793.855L737.075 479.23H614.196L569.398 524.058H490.242V521.391H568.297L613.096 476.563H738.175L794.956 533.381H1064.19V536.048Z" fill="#CDD4E8"/><path d="M1146.57 555.33H1015.35V552.662H1145.47L1217.36 480.747H1437.17V483.39H1218.46L1146.57 555.33Z" fill="#CDD4E8"/><path d="M204.748 432.323H25.5781V429.656H203.648L287.009 346.24H474.542L534.331 286.413L536.214 288.297L475.642 348.907H288.11L204.748 432.323Z" fill="#CDD4E8"/><path d="M1140.82 529.808L1099.64 488.602H780.845L739.152 446.906H545.383L472.439 373.939H296.448L248.104 422.315L246.221 420.431L295.348 371.272H473.539L546.484 444.239H740.252L781.945 485.959H1100.74L1140.82 526.064L1202.79 464.059H1432.99V466.727H1203.89L1140.82 529.808Z" fill="#CDD4E8"/><path d="M493.176 458.284L468.283 433.35H301.633L277.253 457.746L275.395 455.862L300.533 430.683H469.383L495.059 456.4L493.176 458.284Z" fill="#CDD4E8"/><path d="M986.67 154.474H647.991L570.914 77.3229H319.875L292.781 104.435H21.9355V101.768H291.681L318.775 74.6802H572.014L649.091 151.832H985.57L1048.49 88.8479L1050.37 90.732L986.67 154.474Z" fill="#CDD4E8"/><path d="M543.868 183.935H277.888L257.396 163.455L259.279 161.57L278.989 181.268H542.767L585.341 138.667H608.889V141.334H586.466L543.868 183.935Z" fill="#CDD4E8"/><path d="M515.745 148.749H289.601L270.845 129.981H85.4883V127.338H271.945L290.701 146.081H514.645L540.59 120.144L542.473 122.004L515.745 148.749Z" fill="#CDD4E8"/><path d="M575.119 243.371H271.628L200.371 172.068L202.23 170.184L272.729 240.704H574.019L632.389 182.296L634.272 184.18L575.119 243.371Z" fill="#CDD4E8"/><path d="M567.318 220.688H281.776L219.273 158.145H37.0469V155.478H220.374L282.877 218.021H566.218L615.443 168.765H1011.61L1095.61 84.7126H1207.43V87.3798H1096.71L1012.71 171.432H616.543L567.318 220.688Z" fill="#CDD4E8"/><path d="M798.598 413.041H552.132L497.283 358.156L499.166 356.272L553.233 410.374H797.497L888.146 319.666H1080.84V322.333H889.246L798.598 413.041Z" fill="#CDD4E8"/><path d="M449.941 314.675L448.058 312.79L494.789 266.03H279.281V263.387H501.196L449.941 314.675Z" fill="#CDD4E8"/><path d="M789.234 384.877H569.324L528.536 344.062L602.63 269.945H527.46L486.672 310.759L484.789 308.875L526.36 267.278H609.037L532.302 344.062L570.425 382.234H788.133L878.146 292.138L880.029 294.022L789.234 384.877Z" fill="#CDD4E8"/><path d="M427.615 298.868H281.776L180.196 197.222H52.6719V194.58H181.297L282.876 296.225H427.615V298.868Z" fill="#CDD4E8"/><path d="M211.008 398.971H26.0918V396.304H209.908L270.992 335.155L272.875 337.039L211.008 398.971Z" fill="#CDD4E8"/><path d="M619.502 238.844L617.619 236.96L654.495 200.036H1035.04L1071.52 163.528L1073.41 165.412L1036.14 202.703H655.595L619.502 238.844Z" fill="#CDD4E8"/><path d="M792.338 304.349H595.586L659.36 240.533L661.219 242.417L602.017 301.681H791.237L836.965 255.948H1010.51V258.615H838.066L792.338 304.349Z" fill="#CDD4E8"/><path d="M784.538 353.605H588.08L570.742 336.257L572.625 334.372L589.18 350.938H783.438L839.069 295.271L840.952 297.155L784.538 353.605Z" fill="#CDD4E8"/><path d="M775.147 273.077H661.219L704.672 229.595L706.555 231.479L667.65 270.41H774.047L811.949 232.482H1064.72L1175.89 121.27H1254.31V123.937H1176.99L1065.82 235.149H813.05L775.147 273.077Z" fill="#CDD4E8"/><path d="M1168.97 480.282H1116.3L1094.44 458.382H789.697L767.811 436.483H719.98V433.84H768.912L790.798 455.715H1095.54L1117.4 477.615H1167.87L1200.68 444.778H1355.89V447.445H1201.81L1168.97 480.282Z" fill="#CDD4E8"/><path d="M206.926 269.333L162.225 224.603H50.3262V221.936H163.325L208.809 267.449L206.926 269.333Z" fill="#CDD4E8"/><path d="M182.862 361.435H22.9863V358.768H181.762L222.404 318.1H326.037V320.767H223.504L182.862 361.435Z" fill="#CDD4E8"/><path d="M140.68 301.999H24.5508V299.357H139.579L169.413 269.48L171.295 271.364L140.68 301.999Z" fill="#CDD4E8"/><path d="M154.742 333.271H43.2832V330.629H153.641L194.258 289.961H249.45V292.628H195.359L154.742 333.271Z" fill="#CDD4E8"/><path d="M940.208 438.049H832.344L888.929 381.451H1090.23V384.118H890.029L838.775 435.406H940.208V438.049Z" fill="#CDD4E8"/><path d="M1336.18 395.056H1176.48L1125.69 344.233H903.308L858.607 388.963L856.725 387.079L902.208 341.566H1126.79L1177.58 392.389H1335.08L1397.22 330.237H1502.81V332.904H1398.32L1336.18 395.056Z" fill="#CDD4E8"/><path d="M1108.03 287.93H924.705V285.262H1106.93L1187.41 204.734H1277.76V207.401H1188.51L1108.03 287.93Z" fill="#CDD4E8"/><path d="M1107.08 232.58L1105.22 230.696L1184.28 151.562H1301.8L1351.42 201.211H1384.81V203.878H1350.31L1300.7 154.23H1185.38L1107.08 232.58Z" fill="#CDD4E8"/><path d="M1383.08 431.809H1133.49L1116.3 414.607H935.635V411.94H1117.4L1134.59 429.142H1381.98L1422.6 388.474H1562.18V391.141H1423.7L1383.08 431.809Z" fill="#CDD4E8"/><path d="M1457.47 237.89H1339.02L1285.07 183.911H1181V181.244H1286.17L1340.12 235.223H1457.47V237.89Z" fill="#CDD4E8"/><path d="M1311.19 363.001H1186.63L1133.73 310.05L1198.51 245.231L1200.39 247.115L1137.5 310.05L1187.73 360.334H1310.09L1384.31 286.046H1601.26V288.713H1385.41L1311.19 363.001Z" fill="#CDD4E8"/><path d="M1207.87 305.303L1206.02 303.419L1246.02 263.387H1450.45V266.03H1247.12L1207.87 305.303Z" fill="#CDD4E8"/><path d="M1290.87 331.73H1216.78L1257.88 290.597L1259.76 292.457L1223.21 329.063H1289.77L1315.71 303.101L1317.6 304.985L1290.87 331.73Z" fill="#CDD4E8"/><path d="M4.98849 54.4195C2.22526 54.4195 0 52.1683 0 49.4278C0 46.6872 2.24971 44.436 4.98849 44.436C7.72727 44.436 9.97698 46.6872 9.97698 49.4278C9.97698 52.1683 7.72727 54.4195 4.98849 54.4195Z" fill="#CDD4E8"/><path d="M243.8 8.53977C245.756 6.58223 245.756 3.4257 243.8 1.46816C241.844 -0.489385 238.689 -0.489385 236.733 1.46816C234.777 3.4257 234.777 6.58223 236.733 8.53977C238.689 10.4973 241.844 10.4973 243.8 8.53977Z" fill="#CDD4E8"/><path d="M169.61 79.4517C166.846 79.4517 164.621 77.2005 164.621 74.46C164.621 71.7194 166.871 69.4683 169.61 69.4683C172.348 69.4683 174.598 71.7194 174.598 74.46C174.598 77.2005 172.348 79.4517 169.61 79.4517Z" fill="#CDD4E8"/><path d="M524.256 21.0679C527.019 21.0679 529.245 18.8168 529.245 16.0762C529.245 13.3356 526.995 11.0845 524.256 11.0845C521.517 11.0845 519.268 13.3356 519.268 16.0762C519.268 18.8168 521.517 21.0679 524.256 21.0679Z" fill="#CDD4E8"/><path d="M325.891 62.7637C323.128 62.7637 320.902 60.5126 320.902 57.772C320.902 55.0314 323.152 52.7803 325.891 52.7803C328.63 52.7803 330.879 55.0314 330.879 57.772C330.879 60.5126 328.63 62.7637 325.891 62.7637Z" fill="#CDD4E8"/><path d="M884.748 101.327C887.512 101.327 889.737 99.076 889.737 96.3355C889.737 93.5949 887.487 91.3438 884.748 91.3438C882.009 91.3438 879.76 93.5949 879.76 96.3355C879.76 99.076 882.009 101.327 884.748 101.327Z" fill="#CDD4E8"/><path d="M650.949 83.6114C648.186 83.6114 645.961 81.3602 645.961 78.6197C645.961 75.8791 648.211 73.6279 650.949 73.6279C653.688 73.6279 655.938 75.8791 655.938 78.6197C655.938 81.3602 653.688 83.6114 650.949 83.6114Z" fill="#CDD4E8"/><path d="M1166.04 27.3077C1168.8 27.3077 1171.02 25.0565 1171.02 22.3159C1171.02 19.5754 1168.77 17.3242 1166.04 17.3242C1163.3 17.3242 1161.05 19.5754 1161.05 22.3159C1161.05 25.0565 1163.3 27.3077 1166.04 27.3077Z" fill="#CDD4E8"/><path d="M773.875 125.307C771.112 125.307 768.887 123.056 768.887 120.315C768.887 117.575 771.136 115.323 773.875 115.323C776.614 115.323 778.864 117.575 778.864 120.315C778.864 123.056 776.614 125.307 773.875 125.307Z" fill="#CDD4E8"/><path d="M1348.52 101.866C1351.28 101.866 1353.51 99.6144 1353.51 96.8738C1353.51 94.1333 1351.26 91.8821 1348.52 91.8821C1345.78 91.8821 1343.53 94.1333 1343.53 96.8738C1343.53 99.6144 1345.78 101.866 1348.52 101.866Z" fill="#CDD4E8"/><path d="M21.6662 465.185C18.903 465.185 16.6777 462.934 16.6777 460.193C16.6777 457.453 18.9274 455.201 21.6662 455.201C24.405 455.201 26.6547 457.453 26.6547 460.193C26.6547 462.934 24.405 465.185 21.6662 465.185Z" fill="#CDD4E8"/><path d="M239.838 521.684C241.795 523.642 244.949 523.642 246.905 521.684C248.862 519.727 248.862 516.57 246.905 514.613C244.949 512.655 241.795 512.655 239.838 514.613C237.882 516.57 237.882 519.727 239.838 521.684Z" fill="#CDD4E8"/><path d="M220.862 467.24C218.905 465.283 218.905 462.126 220.862 460.169C222.818 458.211 225.972 458.211 227.929 460.169C229.885 462.126 229.885 465.283 227.929 467.24C225.972 469.198 222.818 469.198 220.862 467.24Z" fill="#CDD4E8"/><path d="M520.098 502.721C522.861 502.721 525.086 500.47 525.086 497.729C525.086 494.988 522.837 492.737 520.098 492.737C517.359 492.737 515.109 494.988 515.109 497.729C515.109 500.47 517.359 502.721 520.098 502.721Z" fill="#CDD4E8"/><path d="M490.51 527.728C493.265 527.728 495.498 525.493 495.498 522.737C495.498 519.98 493.265 517.745 490.51 517.745C487.755 517.745 485.521 519.98 485.521 522.737C485.521 525.493 487.755 527.728 490.51 527.728Z" fill="#CDD4E8"/><path d="M1063.94 539.718C1066.7 539.718 1068.93 537.467 1068.93 534.727C1068.93 531.986 1066.68 529.735 1063.94 529.735C1061.2 529.735 1058.95 531.986 1058.95 534.727C1058.95 537.467 1061.2 539.718 1063.94 539.718Z" fill="#CDD4E8"/><path d="M1015.6 559C1012.83 559 1010.61 556.749 1010.61 554.008C1010.61 551.268 1012.86 549.017 1015.6 549.017C1018.34 549.017 1020.59 551.268 1020.59 554.008C1020.59 556.749 1018.34 559 1015.6 559Z" fill="#CDD4E8"/><path d="M1436.93 487.06C1439.68 487.06 1441.92 484.825 1441.92 482.069C1441.92 479.312 1439.68 477.077 1436.93 477.077C1434.17 477.077 1431.94 479.312 1431.94 482.069C1431.94 484.825 1434.17 487.06 1436.93 487.06Z" fill="#CDD4E8"/><path d="M25.8479 435.993C23.0846 435.993 20.8594 433.742 20.8594 431.001C20.8594 428.261 23.1091 426.01 25.8479 426.01C28.5866 426.01 30.8364 428.261 30.8364 431.001C30.8364 433.742 28.5866 435.993 25.8479 435.993Z" fill="#CDD4E8"/><path d="M538.634 291.062C540.59 289.104 540.59 285.948 538.634 283.99C536.678 282.033 533.523 282.033 531.567 283.99C529.611 285.948 529.611 289.104 531.567 291.062C533.523 293.019 536.678 293.019 538.634 291.062Z" fill="#CDD4E8"/><path d="M250.866 424.737C248.91 426.695 245.756 426.695 243.799 424.737C241.843 422.78 241.843 419.623 243.799 417.666C245.756 415.708 248.91 415.708 250.866 417.666C252.823 419.623 252.823 422.78 250.866 424.737Z" fill="#CDD4E8"/><path d="M1432.75 470.397C1435.51 470.397 1437.74 468.146 1437.74 465.405C1437.74 462.664 1435.49 460.413 1432.75 460.413C1430.01 460.413 1427.76 462.664 1427.76 465.405C1427.76 468.146 1430.01 470.397 1432.75 470.397Z" fill="#CDD4E8"/><path d="M280.04 460.169C278.084 462.126 274.929 462.126 272.973 460.169C271.017 458.211 271.017 455.055 272.973 453.097C274.929 451.14 278.084 451.14 280.04 453.097C281.996 455.055 281.996 458.211 280.04 460.169Z" fill="#CDD4E8"/><path d="M490.413 460.707C492.369 462.665 495.523 462.665 497.48 460.707C499.436 458.749 499.436 455.593 497.48 453.635C495.523 451.678 492.369 451.678 490.413 453.635C488.456 455.593 488.456 458.749 490.413 460.707Z" fill="#CDD4E8"/><path d="M22.1799 108.105C19.4167 108.105 17.1914 105.854 17.1914 103.113C17.1914 100.373 19.4411 98.1216 22.1799 98.1216C24.9187 98.1216 27.1684 100.373 27.1684 103.113C27.1684 105.854 24.9187 108.105 22.1799 108.105Z" fill="#CDD4E8"/><path d="M1052.79 93.497C1054.75 91.5395 1054.75 88.383 1052.79 86.4254C1050.84 84.4679 1047.68 84.4679 1045.73 86.4254C1043.77 88.383 1043.77 91.5395 1045.73 93.497C1047.68 95.4546 1050.84 95.4546 1052.79 93.497Z" fill="#CDD4E8"/><path d="M254.975 166.22C253.019 164.262 253.019 161.106 254.975 159.148C256.931 157.191 260.086 157.191 262.042 159.148C263.998 161.106 263.998 164.262 262.042 166.22C260.086 168.177 256.931 168.177 254.975 166.22Z" fill="#CDD4E8"/><path d="M608.645 145.005C611.408 145.005 613.633 142.754 613.633 140.013C613.633 137.272 611.384 135.021 608.645 135.021C605.906 135.021 603.656 137.272 603.656 140.013C603.656 142.754 605.906 145.005 608.645 145.005Z" fill="#CDD4E8"/><path d="M85.7346 133.651C82.9714 133.651 80.7461 131.4 80.7461 128.659C80.7461 125.919 82.9958 123.667 85.7346 123.667C88.4734 123.667 90.7231 125.919 90.7231 128.659C90.7231 131.4 88.4734 133.651 85.7346 133.651Z" fill="#CDD4E8"/><path d="M544.87 124.793C546.826 122.836 546.826 119.679 544.87 117.722C542.914 115.764 539.759 115.764 537.803 117.722C535.847 119.679 535.847 122.836 537.803 124.793C539.759 126.751 542.914 126.751 544.87 124.793Z" fill="#CDD4E8"/><path d="M197.95 174.833C195.993 172.875 195.993 169.719 197.95 167.761C199.906 165.804 203.06 165.804 205.017 167.761C206.973 169.719 206.973 172.875 205.017 174.833C203.06 176.79 199.906 176.79 197.95 174.833Z" fill="#CDD4E8"/><path d="M636.692 186.945C638.649 184.987 638.649 181.831 636.692 179.873C634.736 177.916 631.582 177.916 629.625 179.873C627.669 181.831 627.669 184.987 629.625 186.945C631.582 188.903 634.736 188.903 636.692 186.945Z" fill="#CDD4E8"/><path d="M37.2912 161.815C34.528 161.815 32.3027 159.564 32.3027 156.824C32.3027 154.083 34.5524 151.832 37.2912 151.832C40.03 151.832 42.2797 154.083 42.2797 156.824C42.2797 159.564 40.03 161.815 37.2912 161.815Z" fill="#CDD4E8"/><path d="M1207.19 91.0257C1209.94 91.0257 1212.18 88.7908 1212.18 86.034C1212.18 83.2771 1209.94 81.0422 1207.19 81.0422C1204.43 81.0422 1202.2 83.2771 1202.2 86.034C1202.2 88.7908 1204.43 91.0257 1207.19 91.0257Z" fill="#CDD4E8"/><path d="M494.862 360.921C492.905 358.964 492.905 355.807 494.862 353.85C496.818 351.892 499.972 351.892 501.929 353.85C503.885 355.807 503.885 358.964 501.929 360.921C499.972 362.879 496.818 362.879 494.862 360.921Z" fill="#CDD4E8"/><path d="M1080.59 326.004C1083.36 326.004 1085.58 323.753 1085.58 321.012C1085.58 318.271 1083.33 316.02 1080.59 316.02C1077.86 316.02 1075.61 318.271 1075.61 321.012C1075.61 323.753 1077.86 326.004 1080.59 326.004Z" fill="#CDD4E8"/><path d="M279.528 269.7C276.764 269.7 274.539 267.449 274.539 264.708C274.539 261.968 276.789 259.717 279.528 259.717C282.266 259.717 284.516 261.968 284.516 264.708C284.516 267.449 282.266 269.7 279.528 269.7Z" fill="#CDD4E8"/><path d="M445.639 310.025C443.683 311.983 443.683 315.139 445.639 317.097C447.595 319.054 450.75 319.054 452.706 317.097C454.662 315.139 454.662 311.983 452.706 310.025C450.75 308.068 447.595 308.068 445.639 310.025Z" fill="#CDD4E8"/><path d="M485.914 314.65C488.669 314.65 490.903 312.415 490.903 309.658C490.903 306.901 488.669 304.667 485.914 304.667C483.159 304.667 480.926 306.901 480.926 309.658C480.926 312.415 483.159 314.65 485.914 314.65Z" fill="#CDD4E8"/><path d="M882.448 296.812C884.405 294.854 884.405 291.698 882.448 289.74C880.492 287.783 877.338 287.783 875.381 289.74C873.425 291.698 873.425 294.854 875.381 296.812C877.338 298.77 880.492 298.77 882.448 296.812Z" fill="#CDD4E8"/><path d="M52.9182 200.917C50.1549 200.917 47.9297 198.666 47.9297 195.925C47.9297 193.185 50.1794 190.934 52.9182 190.934C55.657 190.934 57.9067 193.185 57.9067 195.925C57.9067 198.666 55.657 200.917 52.9182 200.917Z" fill="#CDD4E8"/><path d="M427.371 302.562C430.135 302.562 432.36 300.311 432.36 297.571C432.36 294.83 430.11 292.579 427.371 292.579C424.633 292.579 422.383 294.83 422.383 297.571C422.383 300.311 424.633 302.562 427.371 302.562Z" fill="#CDD4E8"/><path d="M26.3361 402.617C29.0912 402.617 31.3246 400.382 31.3246 397.625C31.3246 394.868 29.0912 392.634 26.3361 392.634C23.5811 392.634 21.3477 394.868 21.3477 397.625C21.3477 400.382 23.5811 402.617 26.3361 402.617Z" fill="#CDD4E8"/><path d="M275.296 339.804C277.252 337.847 277.252 334.69 275.296 332.733C273.34 330.775 270.185 330.775 268.229 332.733C266.273 334.69 266.273 337.847 268.229 339.804C270.185 341.762 273.34 341.762 275.296 339.804Z" fill="#CDD4E8"/><path d="M622.265 241.242C620.308 243.2 617.154 243.2 615.198 241.242C613.241 239.285 613.241 236.128 615.198 234.171C617.154 232.213 620.308 232.213 622.265 234.171C624.221 236.128 624.221 239.285 622.265 241.242Z" fill="#CDD4E8"/><path d="M1075.83 168.177C1077.78 166.22 1077.78 163.063 1075.83 161.106C1073.87 159.148 1070.72 159.148 1068.76 161.106C1066.8 163.063 1066.8 166.22 1068.76 168.177C1070.72 170.135 1073.87 170.135 1075.83 168.177Z" fill="#CDD4E8"/><path d="M656.573 238.135C658.529 236.177 661.683 236.177 663.64 238.135C665.596 240.092 665.596 243.249 663.64 245.206C661.683 247.164 658.529 247.164 656.573 245.206C654.616 243.249 654.616 240.092 656.573 238.135Z" fill="#CDD4E8"/><path d="M1010.27 262.286C1013.03 262.286 1015.25 260.035 1015.25 257.294C1015.25 254.554 1013 252.302 1010.27 252.302C1007.53 252.302 1005.28 254.554 1005.28 257.294C1005.28 260.035 1007.53 262.286 1010.27 262.286Z" fill="#CDD4E8"/><path d="M568.321 339.021C566.364 337.064 566.364 333.907 568.321 331.95C570.277 329.992 573.431 329.992 575.388 331.95C577.344 333.907 577.344 337.064 575.388 339.021C573.431 340.979 570.277 340.979 568.321 339.021Z" fill="#CDD4E8"/><path d="M843.372 299.944C845.328 297.987 845.328 294.83 843.372 292.872C841.416 290.915 838.261 290.915 836.305 292.872C834.349 294.83 834.349 297.987 836.305 299.944C838.261 301.902 841.416 301.902 843.372 299.944Z" fill="#CDD4E8"/><path d="M701.909 227.173C703.865 225.215 707.019 225.215 708.976 227.173C710.932 229.13 710.932 232.287 708.976 234.244C707.019 236.202 703.865 236.202 701.909 234.244C699.952 232.287 699.952 229.13 701.909 227.173Z" fill="#CDD4E8"/><path d="M1254.07 127.607C1256.83 127.607 1259.06 125.356 1259.06 122.616C1259.06 119.875 1256.81 117.624 1254.07 117.624C1251.33 117.624 1249.08 119.875 1249.08 122.616C1249.08 125.356 1251.33 127.607 1254.07 127.607Z" fill="#CDD4E8"/><path d="M720.225 440.177C717.462 440.177 715.236 437.926 715.236 435.186C715.236 432.445 717.486 430.194 720.225 430.194C722.964 430.194 725.213 432.445 725.213 435.186C725.213 437.926 722.964 440.177 720.225 440.177Z" fill="#CDD4E8"/><path d="M1355.65 451.115C1358.41 451.115 1360.64 448.864 1360.64 446.123C1360.64 443.383 1358.39 441.132 1355.65 441.132C1352.91 441.132 1350.66 443.383 1350.66 446.123C1350.66 448.864 1352.91 451.115 1355.65 451.115Z" fill="#CDD4E8"/><path d="M50.5705 228.274C47.8073 228.274 45.582 226.023 45.582 223.282C45.582 220.541 47.8317 218.29 50.5705 218.29C53.3093 218.29 55.559 220.541 55.559 223.282C55.559 226.023 53.3093 228.274 50.5705 228.274Z" fill="#CDD4E8"/><path d="M207.682 273.199C210.437 273.199 212.67 270.964 212.67 268.208C212.67 265.451 210.437 263.216 207.682 263.216C204.927 263.216 202.693 265.451 202.693 268.208C202.693 270.964 204.927 273.199 207.682 273.199Z" fill="#CDD4E8"/><path d="M23.2307 365.081C25.9857 365.081 28.2192 362.846 28.2192 360.089C28.2192 357.333 25.9857 355.098 23.2307 355.098C20.4756 355.098 18.2422 357.333 18.2422 360.089C18.2422 362.846 20.4756 365.081 23.2307 365.081Z" fill="#CDD4E8"/><path d="M325.768 324.438C328.531 324.438 330.756 322.187 330.756 319.446C330.756 316.706 328.507 314.454 325.768 314.454C323.029 314.454 320.779 316.706 320.779 319.446C320.779 322.187 323.029 324.438 325.768 324.438Z" fill="#CDD4E8"/><path d="M24.7951 305.67C22.0319 305.67 19.8066 303.419 19.8066 300.678C19.8066 297.938 22.0564 295.687 24.7951 295.687C27.5339 295.687 29.7836 297.938 29.7836 300.678C29.7836 303.419 27.5339 305.67 24.7951 305.67Z" fill="#CDD4E8"/><path d="M173.718 274.129C175.674 272.172 175.674 269.015 173.718 267.058C171.762 265.1 168.607 265.1 166.651 267.058C164.695 269.015 164.695 272.172 166.651 274.129C168.607 276.087 171.762 276.087 173.718 274.129Z" fill="#CDD4E8"/><path d="M43.551 336.966C40.7878 336.966 38.5625 334.715 38.5625 331.974C38.5625 329.234 40.8122 326.983 43.551 326.983C46.2898 326.983 48.5395 329.234 48.5395 331.974C48.5395 334.715 46.2898 336.966 43.551 336.966Z" fill="#CDD4E8"/><path d="M249.203 296.298C251.967 296.298 254.192 294.047 254.192 291.306C254.192 288.566 251.942 286.315 249.203 286.315C246.465 286.315 244.215 288.566 244.215 291.306C244.215 294.047 246.465 296.298 249.203 296.298Z" fill="#CDD4E8"/><path d="M939.963 431.711C942.726 431.711 944.952 433.962 944.952 436.703C944.952 439.443 942.702 441.694 939.963 441.694C937.224 441.694 934.975 439.443 934.975 436.703C934.975 433.962 937.224 431.711 939.963 431.711Z" fill="#CDD4E8"/><path d="M1089.98 387.789C1092.75 387.789 1094.97 385.537 1094.97 382.797C1094.97 380.056 1092.72 377.805 1089.98 377.805C1087.25 377.805 1085 380.056 1085 382.797C1085 385.537 1087.25 387.789 1089.98 387.789Z" fill="#CDD4E8"/><path d="M861.37 391.386C859.414 393.343 856.259 393.343 854.303 391.386C852.347 389.428 852.347 386.272 854.303 384.314C856.259 382.357 859.414 382.357 861.37 384.314C863.326 386.272 863.326 389.428 861.37 391.386Z" fill="#CDD4E8"/><path d="M1502.54 336.575C1505.3 336.575 1507.53 334.323 1507.53 331.583C1507.53 328.842 1505.28 326.591 1502.54 326.591C1499.8 326.591 1497.55 328.842 1497.55 331.583C1497.55 334.323 1499.8 336.575 1502.54 336.575Z" fill="#CDD4E8"/><path d="M924.949 291.6C922.186 291.6 919.961 289.349 919.961 286.608C919.961 283.868 922.211 281.617 924.949 281.617C927.688 281.617 929.938 283.868 929.938 286.608C929.938 289.349 927.688 291.6 924.949 291.6Z" fill="#CDD4E8"/><path d="M1277.52 211.072C1280.28 211.072 1282.51 208.821 1282.51 206.08C1282.51 203.34 1280.26 201.088 1277.52 201.088C1274.78 201.088 1272.53 203.34 1272.53 206.08C1272.53 208.821 1274.78 211.072 1277.52 211.072Z" fill="#CDD4E8"/><path d="M1109.87 235.003C1107.91 236.96 1104.76 236.96 1102.8 235.003C1100.84 233.045 1100.84 229.889 1102.8 227.931C1104.76 225.974 1107.91 225.974 1109.87 227.931C1111.82 229.889 1111.82 233.045 1109.87 235.003Z" fill="#CDD4E8"/><path d="M1384.57 207.548C1387.33 207.548 1389.56 205.297 1389.56 202.556C1389.56 199.816 1387.31 197.565 1384.57 197.565C1381.83 197.565 1379.58 199.816 1379.58 202.556C1379.58 205.297 1381.83 207.548 1384.57 207.548Z" fill="#CDD4E8"/><path d="M935.879 418.277C933.116 418.277 930.891 416.026 930.891 413.286C930.891 410.545 933.14 408.294 935.879 408.294C938.618 408.294 940.868 410.545 940.868 413.286C940.868 416.026 938.618 418.277 935.879 418.277Z" fill="#CDD4E8"/><path d="M1561.93 394.811C1564.69 394.811 1566.92 392.576 1566.92 389.82C1566.92 387.063 1564.69 384.828 1561.93 384.828C1559.18 384.828 1556.95 387.063 1556.95 389.82C1556.95 392.576 1559.18 394.811 1561.93 394.811Z" fill="#CDD4E8"/><path d="M1181.24 187.581C1178.48 187.581 1176.26 185.33 1176.26 182.59C1176.26 179.849 1178.51 177.598 1181.24 177.598C1183.98 177.598 1186.23 179.849 1186.23 182.59C1186.23 185.33 1183.98 187.581 1181.24 187.581Z" fill="#CDD4E8"/><path d="M1457.23 241.56C1459.99 241.56 1462.22 239.309 1462.22 236.569C1462.22 233.828 1459.97 231.577 1457.23 231.577C1454.49 231.577 1452.24 233.828 1452.24 236.569C1452.24 239.309 1454.49 241.56 1457.23 241.56Z" fill="#CDD4E8"/><path d="M1195.72 242.808C1197.68 240.851 1200.83 240.851 1202.79 242.808C1204.74 244.766 1204.74 247.923 1202.79 249.88C1200.83 251.838 1197.68 251.838 1195.72 249.88C1193.76 247.923 1193.76 244.766 1195.72 242.808Z" fill="#CDD4E8"/><path d="M1601.01 292.383C1603.78 292.383 1606 290.132 1606 287.391C1606 284.651 1603.75 282.4 1601.01 282.4C1598.27 282.4 1596.02 284.651 1596.02 287.391C1596.02 290.132 1598.27 292.383 1601.01 292.383Z" fill="#CDD4E8"/><path d="M1210.66 307.725C1208.71 309.683 1205.55 309.683 1203.6 307.725C1201.64 305.768 1201.64 302.611 1203.6 300.654C1205.55 298.696 1208.71 298.696 1210.66 300.654C1212.62 302.611 1212.62 305.768 1210.66 307.725Z" fill="#CDD4E8"/><path d="M1450.21 269.7C1452.96 269.7 1455.2 267.465 1455.2 264.708C1455.2 261.951 1452.96 259.717 1450.21 259.717C1447.45 259.717 1445.22 261.951 1445.22 264.708C1445.22 267.465 1447.45 269.7 1450.21 269.7Z" fill="#CDD4E8"/><path d="M1255.12 288.174C1257.08 286.217 1260.23 286.217 1262.19 288.174C1264.14 290.132 1264.14 293.288 1262.19 295.246C1260.23 297.203 1257.08 297.203 1255.12 295.246C1253.16 293.288 1253.16 290.132 1255.12 288.174Z" fill="#CDD4E8"/><path d="M1320.02 307.75C1321.97 305.792 1321.97 302.636 1320.02 300.678C1318.06 298.721 1314.91 298.721 1312.95 300.678C1311 302.636 1311 305.792 1312.95 307.75C1314.91 309.707 1318.06 309.707 1320.02 307.75Z" fill="#CDD4E8"/></g><defs><clipPath id="clip0_3927_34219"><rect width="1606" height="559" fill="white"/></clipPath></defs></svg>