<svg width="22" height="22" fill="none" xmlns="http://www.w3.org/2000/svg"><path d="M13.1094 2L12.8281 1.53125L12.1719 0.5H18.5C20.1406 0.5 21.5 1.85938 21.5 3.5V18.5C21.5 20.1875 20.1406 21.5 18.5 21.5H3.5C1.8125 21.5 0.5 20.1875 0.5 18.5V3.5C0.5 1.85938 1.8125 0.5 3.5 0.5H9.78125L9.125 1.53125L8.84375 2H3.5C2.65625 2 2 2.70312 2 3.5V15.5C2.9375 15.5 3.92188 15.0781 4.71875 14.5156C5.04688 14.2812 5.32812 14.0469 5.60938 13.7656C6.125 13.3438 6.82812 13.3438 7.34375 13.7656C7.625 14.0469 7.90625 14.2812 8.23438 14.5156C9.03125 15.0781 10.0156 15.5 11 15.5C11.9375 15.5 12.9219 15.0781 13.7188 14.5156C14.0469 14.2812 14.3281 14.0469 14.6094 13.7656C15.125 13.3438 15.8281 13.3438 16.3438 13.7656C16.625 14.0469 16.9062 14.2812 17.2344 14.5156C18.0312 15.0312 19.0156 15.5 20 15.5V3.5C20 2.70312 19.2969 2 18.5 2H13.1094ZM2 17V18.5C2 19.3438 2.65625 20 3.5 20H18.5C19.2969 20 20 19.3438 20 18.5V17C18.5469 17 17.2812 16.3438 16.3906 15.7812C16.0156 15.5 15.7344 15.2656 15.5 15.0312C15.2188 15.2656 14.9375 15.5 14.5625 15.7812C13.6719 16.3438 12.4062 17 11 17C9.54688 17 8.28125 16.3438 7.39062 15.7812C7.01562 15.5 6.73438 15.2656 6.5 15.0312C6.21875 15.2656 5.9375 15.5 5.5625 15.7812C4.67188 16.3438 3.40625 17 2 17ZM11.5625 2.32812L13.7656 5.65625C14.1406 6.21875 14.375 6.875 14.375 7.57812V7.625C14.375 9.5 12.8281 11 11 11C9.125 11 7.625 9.5 7.625 7.625V7.57812C7.625 6.875 7.8125 6.21875 8.1875 5.65625L10.3906 2.32812C10.5312 2.14062 10.7656 2 11 2C11.2344 2 11.4219 2.14062 11.5625 2.32812ZM11 4.15625L9.45312 6.5C9.21875 6.78125 9.125 7.20312 9.125 7.57812V7.625C9.125 8.70312 9.92188 9.5 11 9.5C12.0312 9.5 12.875 8.70312 12.875 7.625V7.57812C12.875 7.20312 12.7344 6.78125 12.5469 6.5L11 4.15625Z" fill="#314081"/></svg>