<svg width="24" height="24" fill="none" xmlns="http://www.w3.org/2000/svg"><path d="M11.3906 1.78125L3.09375 5.29688C2.57812 5.48438 2.20312 6 2.25 6.5625C2.25 10.9688 4.07812 18.75 11.3906 22.2656C11.7656 22.4531 12.1875 22.4531 12.5625 22.2656C19.875 18.75 21.7031 10.9688 21.75 6.5625C21.75 6 21.375 5.53125 20.8594 5.29688L12.5625 1.78125C12.1875 1.59375 11.7656 1.59375 11.3906 1.78125ZM13.1719 0.375L21.4219 3.89062C22.4531 4.35938 23.25 5.34375 23.25 6.5625C23.2031 11.25 21.2812 19.7344 13.2188 23.625C12.4219 24 11.5312 24 10.7344 23.625C2.67188 19.7344 0.75 11.25 0.75 6.5625C0.703125 5.34375 1.5 4.35938 2.53125 3.89062L10.8281 0.375C11.5781 0.046875 12.4219 0.046875 13.1719 0.375ZM17.0156 9.5625L11.0156 15.5625C10.7344 15.8438 10.2188 15.8438 9.9375 15.5625L6.9375 12.5625C6.65625 12.2812 6.65625 11.7656 6.9375 11.4844C7.21875 11.2031 7.73438 11.2031 8.01562 11.4844L10.5 13.9688L15.9375 8.48438C16.2188 8.20312 16.7344 8.20312 17.0156 8.48438C17.2969 8.76562 17.2969 9.28125 17.0156 9.5625Z" fill="#314081"/></svg>