<svg width="18" height="24" fill="none" xmlns="http://www.w3.org/2000/svg"><path d="M9 22.5C13.125 22.5 16.5 19.1719 16.5 15C16.5 14.25 16.1719 13.1719 15.6094 11.8594C15.0469 10.5469 14.2969 9.14062 13.4531 7.78125C11.7656 5.0625 9.84375 2.57812 9 1.5H8.95312C8.10938 2.57812 6.1875 5.0625 4.5 7.78125C3.65625 9.14062 2.90625 10.5469 2.34375 11.8594C1.78125 13.1719 1.5 14.25 1.5 15C1.5 19.1719 4.82812 22.5 9 22.5ZM0 15C0 10.7344 6.09375 2.71875 7.78125 0.5625C8.0625 0.234375 8.48438 0 8.95312 0H9C9.46875 0 9.89062 0.234375 10.1719 0.5625C11.8594 2.71875 18 10.7344 18 15C18 19.9688 13.9688 24 9 24C4.03125 24 0 19.9688 0 15ZM5.25 15C5.25 17.1094 6.89062 18.75 9 18.75C9.375 18.75 9.75 19.125 9.75 19.5C9.75 19.9219 9.375 20.25 9 20.25C6.09375 20.25 3.75 17.9062 3.75 15C3.75 14.625 4.07812 14.25 4.5 14.25C4.875 14.25 5.25 14.625 5.25 15Z" fill="#314081"/></svg>