<svg width="25" height="25" fill="none" xmlns="http://www.w3.org/2000/svg"><path d="M12.3438 6.32812L12.8125 1.73438C10.2344 2.4375 8.45312 4.73438 8.45312 7.5C8.45312 8.90625 8.64062 9.9375 8.875 10.7344C9.01562 11.2031 8.875 11.7188 8.59375 12.1406C8.26562 12.5156 7.75 12.7031 7.28125 12.6562L2.6875 12.1875C3.39062 14.7656 5.6875 16.5469 8.45312 16.5C9.85938 16.5 10.8906 16.3594 11.6875 16.125C12.1562 15.9844 12.6719 16.125 13.0938 16.4062C13.4688 16.7344 13.6562 17.25 13.6094 17.7188L13.1406 22.3125C15.7188 21.6094 17.5 19.3125 17.5 16.5469V16.5C17.5 15.1406 17.3125 14.1094 17.0781 13.3125C16.9375 12.7969 17.0781 12.2812 17.4062 11.9062C17.6875 11.5312 18.2031 11.3438 18.6719 11.3906L23.2656 11.8594C22.5625 9.28125 20.2656 7.5 17.5 7.5C16.0938 7.5 15.0625 7.6875 14.2656 7.92188C13.7969 8.0625 13.2812 7.92188 12.8594 7.59375C12.4844 7.3125 12.2969 6.79688 12.3438 6.32812ZM13.8438 6.46875C14.3125 6.32812 14.7812 6.23438 15.3906 6.14062C16 6.04688 16.7031 6 17.5 6C21.1094 6 24.0625 8.4375 24.8125 11.8594C25 12.75 24.2031 13.4531 23.3125 13.3594L20.125 13.0312L18.5312 12.8906C18.6719 13.3125 18.7656 13.8281 18.8594 14.4375C18.9531 15.0469 19 15.75 19 16.5C19 20.1562 16.5625 23.1094 13.1406 23.8594C12.25 24.0469 11.5469 23.25 11.6406 22.3594L11.9688 19.1719L12.1094 17.5781C11.6875 17.7188 11.1719 17.8125 10.5625 17.9062C9.95312 17.9531 9.25 18 8.5 18C4.84375 18.0469 1.89062 15.6094 1.14062 12.1875C0.953125 11.2969 1.75 10.5938 2.64062 10.6875L5.82812 11.0156L7.42188 11.1562C7.28125 10.6875 7.1875 10.2188 7.09375 9.60938C7.04688 9 7 8.29688 7 7.5C6.95312 3.89062 9.39062 0.9375 12.8125 0.1875C13.7031 0 14.4062 0.796875 14.3125 1.6875L13.9844 4.875L13.8438 6.46875ZM13 13.125C12.3438 13.125 11.875 12.6562 11.875 12C11.875 11.3906 12.3438 10.875 13 10.875C13.6094 10.875 14.125 11.3906 14.125 12C14.125 12.6562 13.6094 13.125 13 13.125Z" fill="#314081"/></svg>